%
M48
M72
T01C0.0080
T02C0.0400
T03C0.0433
%
T01
X4505Y12630
X4505Y13005
X4505Y13380
X4505Y13755
X4505Y14130
X4505Y14630
X4505Y15005
X6630Y16380
T02
X7380Y13880
X8380Y13880
X9380Y13880
X10380Y13880
X11380Y13880
X12380Y13880
X13380Y13880
X14380Y13880
X15380Y13880
X16380Y13880
X17380Y13880
X17380Y12880
X16380Y12880
X15380Y12880
X14380Y12880
X13380Y12880
X12380Y12880
X11380Y12880
X10380Y12880
X9380Y12880
X8380Y12880
X7380Y12880
T03
X3129Y15555
X2145Y15555
M30
