G75*
%MOIN*%
%OFA0B0*%
%FSLAX24Y24*%
%IPPOS*%
%LPD*%
%AMOC8*
5,1,8,0,0,1.08239X$1,22.5*
%
%ADD10R,0.0315X0.0098*%
%ADD11R,0.0315X0.0157*%
%ADD12OC8,0.0740*%
%ADD13C,0.0060*%
%ADD14C,0.0240*%
D10*
X004880Y012063D03*
X004880Y012260D03*
X004880Y012457D03*
X004880Y012654D03*
X004880Y012850D03*
X004880Y013047D03*
X004880Y013244D03*
X004880Y013441D03*
X004880Y013638D03*
X004880Y013835D03*
X004880Y014032D03*
X004880Y014228D03*
X004880Y014425D03*
X004880Y014622D03*
X004880Y014819D03*
X004880Y015016D03*
X004880Y015213D03*
X004880Y015410D03*
X004880Y015606D03*
X004880Y015803D03*
X004880Y016000D03*
X004880Y016197D03*
D11*
X003896Y016591D03*
X003896Y011669D03*
D12*
X007380Y012880D03*
X008380Y012880D03*
X009380Y012880D03*
X010380Y012880D03*
X011380Y012880D03*
X012380Y012880D03*
X013380Y012880D03*
X014380Y012880D03*
X015380Y012880D03*
X016380Y012880D03*
X017380Y012880D03*
X017380Y013880D03*
X016380Y013880D03*
X015380Y013880D03*
X014380Y013880D03*
X013380Y013880D03*
X012380Y013880D03*
X011380Y013880D03*
X010380Y013880D03*
X009380Y013880D03*
X008380Y013880D03*
X007380Y013880D03*
D13*
X026956Y010886D02*
X029599Y010671D01*
X029945Y010698D01*
X030309Y010727D01*
X030852Y010868D01*
X031875Y011175D01*
X032334Y011337D01*
X032505Y011400D01*
X032607Y011437D01*
X032618Y011454D01*
X032694Y011469D01*
X032766Y011496D01*
X032785Y011487D01*
X033407Y011610D01*
X033408Y011612D01*
X033500Y011629D01*
X033592Y011647D01*
X033594Y011646D01*
X034205Y011760D01*
X034205Y011760D01*
X034296Y011777D01*
X034393Y011795D01*
X034393Y011795D01*
X035005Y011909D01*
X035005Y011910D01*
X035098Y011926D01*
X035190Y011943D01*
X035192Y011943D01*
X035816Y012052D01*
X035817Y012053D01*
X035909Y012068D01*
X036001Y012084D01*
X036003Y012083D01*
X036030Y012087D01*
X036030Y012087D01*
X036124Y012102D01*
X036219Y012116D01*
X036219Y012116D01*
X036331Y012134D01*
X036883Y012256D01*
X036905Y012277D01*
X036973Y012275D01*
X037039Y012290D01*
X037065Y012274D01*
X037825Y012260D01*
X038761Y012244D01*
X038773Y012253D01*
X038854Y012242D01*
X038935Y012241D01*
X038946Y012229D01*
X040023Y012079D01*
X040053Y012091D01*
X040114Y012066D01*
X040179Y012057D01*
X040199Y012031D01*
X041454Y011510D01*
X041454Y011510D01*
X041550Y011470D01*
X041630Y011437D01*
X041630Y011437D01*
X042887Y010915D01*
X042920Y010919D01*
X042972Y010880D01*
X043032Y010855D01*
X043045Y010824D01*
X044005Y010084D01*
X044021Y010084D01*
X044079Y010027D01*
X044143Y009977D01*
X044145Y009961D01*
X045018Y009102D01*
X045018Y009102D01*
X045757Y008373D01*
X045776Y008371D01*
X045823Y008308D01*
X045878Y008254D01*
X045878Y008234D01*
X046479Y007429D01*
X046971Y006836D01*
X046971Y006836D01*
X047588Y006093D01*
X048834Y004605D01*
X050080Y003177D01*
X050080Y003177D01*
X051200Y001892D01*
X052288Y000701D01*
X052546Y000578D01*
X052811Y000452D01*
X053409Y000379D01*
X054014Y000359D01*
X054617Y000338D01*
X055145Y000371D01*
X055194Y000395D01*
X055227Y000411D01*
X055365Y000478D01*
X055365Y000478D01*
X055447Y000518D01*
X055639Y000632D01*
X055831Y000795D01*
X055969Y000912D01*
X056061Y001024D01*
X056065Y001049D01*
X056065Y001050D01*
X056081Y001143D01*
X056096Y001237D01*
X056096Y001237D01*
X056103Y001276D01*
X056081Y001368D01*
X055986Y001537D01*
X055884Y001719D01*
X055716Y001928D01*
X055530Y002149D01*
X055529Y002149D01*
X055468Y002221D01*
X055406Y002294D01*
X055406Y002294D01*
X055223Y002511D01*
X054961Y002782D01*
X054961Y002782D01*
X054895Y002850D01*
X054828Y002919D01*
X054828Y002919D01*
X053428Y004366D01*
X053428Y004366D01*
X053360Y004436D01*
X053296Y004503D01*
X053296Y004503D01*
X052229Y005606D01*
X052227Y005606D01*
X052162Y005675D01*
X052097Y005743D01*
X052097Y005744D01*
X050248Y007692D01*
X050248Y007692D01*
X050179Y007765D01*
X050117Y007830D01*
X050117Y007830D01*
X048216Y009834D01*
X046364Y011272D01*
X042856Y013326D01*
X041225Y013928D01*
X039684Y014325D01*
X038150Y014721D01*
X036486Y015012D01*
X034000Y015286D01*
X034000Y015286D01*
X031322Y015581D01*
X027832Y015857D01*
X022754Y016213D01*
X022754Y016213D01*
X017488Y016582D01*
X011910Y016745D01*
X007716Y016815D01*
X007716Y016815D01*
X007631Y016817D01*
X007525Y016819D01*
X007525Y016819D01*
X003331Y016889D01*
X000485Y016899D01*
X000485Y013619D01*
X003457Y011360D01*
X004863Y011360D01*
X007265Y011720D01*
X007273Y011730D01*
X007357Y011734D01*
X007440Y011747D01*
X007451Y011739D01*
X012284Y011980D01*
X012292Y011988D01*
X012378Y011985D01*
X012464Y011989D01*
X012472Y011982D01*
X016801Y011843D01*
X016810Y011850D01*
X016895Y011840D01*
X016981Y011837D01*
X016989Y011830D01*
X017719Y011748D01*
X018533Y011657D01*
X021413Y011380D01*
X024090Y011142D01*
X024090Y011142D01*
X024216Y011131D01*
X024279Y011125D01*
X024279Y011125D01*
X026956Y010886D01*
X026871Y010894D02*
X030939Y010894D01*
X031134Y010953D02*
X026215Y010953D01*
X025559Y011011D02*
X031328Y011011D01*
X031523Y011070D02*
X024902Y011070D01*
X024246Y011128D02*
X031717Y011128D01*
X031907Y011187D02*
X023590Y011187D01*
X022933Y011245D02*
X032073Y011245D01*
X032239Y011304D02*
X022276Y011304D01*
X021619Y011362D02*
X032403Y011362D01*
X032562Y011421D02*
X020996Y011421D01*
X020388Y011479D02*
X032721Y011479D01*
X033039Y011538D02*
X019779Y011538D01*
X019171Y011596D02*
X033334Y011596D01*
X033638Y011655D02*
X018563Y011655D01*
X018034Y011713D02*
X033952Y011713D01*
X034266Y011772D02*
X017510Y011772D01*
X016988Y011830D02*
X034581Y011830D01*
X034895Y011889D02*
X015388Y011889D01*
X015571Y012420D02*
X015189Y012420D01*
X014920Y012689D01*
X014920Y013071D01*
X015189Y013340D01*
X015571Y013340D01*
X015620Y013290D01*
X015760Y013430D01*
X015760Y013609D01*
X015571Y013420D01*
X015189Y013420D01*
X014920Y013689D01*
X014920Y014071D01*
X014970Y014120D01*
X013955Y015135D01*
X013295Y015135D01*
X014140Y014290D01*
X014189Y014340D01*
X014571Y014340D01*
X014840Y014071D01*
X014840Y013689D01*
X014571Y013420D01*
X014189Y013420D01*
X013920Y013689D01*
X013920Y014071D01*
X013970Y014120D01*
X013080Y015010D01*
X012420Y015010D01*
X013140Y014290D01*
X013189Y014340D01*
X013571Y014340D01*
X013840Y014071D01*
X013840Y013689D01*
X013571Y013420D01*
X013189Y013420D01*
X012920Y013689D01*
X012920Y014071D01*
X012970Y014120D01*
X012205Y014885D01*
X011545Y014885D01*
X012140Y014290D01*
X012189Y014340D01*
X012571Y014340D01*
X012840Y014071D01*
X012840Y013689D01*
X012571Y013420D01*
X012189Y013420D01*
X011920Y013689D01*
X011920Y014071D01*
X011970Y014120D01*
X011330Y014760D01*
X010670Y014760D01*
X011140Y014290D01*
X011189Y014340D01*
X011571Y014340D01*
X011840Y014071D01*
X011840Y013689D01*
X011571Y013420D01*
X011189Y013420D01*
X010920Y013689D01*
X010920Y014071D01*
X010970Y014120D01*
X010455Y014635D01*
X009795Y014635D01*
X010140Y014290D01*
X010189Y014340D01*
X010571Y014340D01*
X010840Y014071D01*
X010840Y013689D01*
X010571Y013420D01*
X010189Y013420D01*
X009920Y013689D01*
X009920Y014071D01*
X009970Y014120D01*
X009580Y014510D01*
X008920Y014510D01*
X009140Y014290D01*
X009189Y014340D01*
X009571Y014340D01*
X009840Y014071D01*
X009840Y013689D01*
X009571Y013420D01*
X009189Y013420D01*
X008920Y013689D01*
X008920Y014071D01*
X008970Y014120D01*
X008705Y014385D01*
X008045Y014385D01*
X008140Y014290D01*
X008189Y014340D01*
X008571Y014340D01*
X008840Y014071D01*
X008840Y013689D01*
X008571Y013420D01*
X008189Y013420D01*
X007920Y013689D01*
X007920Y014071D01*
X007970Y014120D01*
X007830Y014260D01*
X007651Y014260D01*
X007840Y014071D01*
X007840Y013689D01*
X007571Y013420D01*
X007189Y013420D01*
X007140Y013470D01*
X005613Y011943D01*
X005094Y011943D01*
X005075Y011924D01*
X004685Y011924D01*
X004633Y011977D01*
X004633Y012117D01*
X004618Y012131D01*
X004601Y012161D01*
X004593Y012194D01*
X004593Y012260D01*
X004880Y012260D01*
X005167Y012260D01*
X005167Y012326D01*
X005165Y012337D01*
X005256Y012337D01*
X006920Y014000D01*
X006920Y013689D01*
X006970Y013640D01*
X005513Y012183D01*
X005165Y012183D01*
X005167Y012194D01*
X005167Y012260D01*
X004880Y012260D01*
X004880Y012260D01*
X004880Y012260D01*
X004593Y012260D01*
X004593Y012326D01*
X004601Y012359D01*
X004618Y012389D01*
X004633Y012403D01*
X004633Y012461D01*
X004592Y012420D01*
X004418Y012420D01*
X004295Y012543D01*
X004295Y012717D01*
X004396Y012818D01*
X004295Y012918D01*
X004295Y013092D01*
X004396Y013193D01*
X004295Y013293D01*
X004295Y013467D01*
X004396Y013568D01*
X004295Y013668D01*
X004295Y013842D01*
X004396Y013942D01*
X004295Y014043D01*
X004295Y014217D01*
X004418Y014340D01*
X004545Y014340D01*
X004554Y014348D01*
X004633Y014348D01*
X004633Y014461D01*
X004592Y014420D01*
X004418Y014420D01*
X004295Y014543D01*
X004295Y014717D01*
X004396Y014818D01*
X004295Y014918D01*
X004295Y015092D01*
X004418Y015215D01*
X004592Y015215D01*
X004633Y015174D01*
X004633Y015299D01*
X004644Y015311D01*
X004633Y015323D01*
X004633Y015496D01*
X004644Y015508D01*
X004633Y015520D01*
X004633Y015693D01*
X004644Y015705D01*
X004633Y015717D01*
X004633Y015890D01*
X004644Y015902D01*
X004633Y015914D01*
X004633Y016054D01*
X004618Y016068D01*
X004601Y016098D01*
X004593Y016131D01*
X004593Y016197D01*
X004880Y016197D01*
X004880Y016376D01*
X004880Y016197D01*
X004880Y016197D01*
X005167Y016197D01*
X005167Y016263D01*
X005159Y016296D01*
X005142Y016326D01*
X005117Y016350D01*
X005088Y016367D01*
X005055Y016376D01*
X004880Y016376D01*
X004705Y016376D01*
X004672Y016367D01*
X004643Y016350D01*
X004618Y016326D01*
X004601Y016296D01*
X004593Y016263D01*
X004593Y016197D01*
X004880Y016197D01*
X004880Y016197D01*
X004880Y016197D01*
X005167Y016197D01*
X005167Y016131D01*
X005165Y016120D01*
X006200Y016120D01*
X006420Y016340D01*
X006420Y016467D01*
X006543Y016590D01*
X006717Y016590D01*
X006840Y016467D01*
X006840Y016293D01*
X006717Y016170D01*
X006590Y016170D01*
X006343Y015923D01*
X015256Y015923D01*
X016930Y014250D01*
X017000Y014180D01*
X017000Y014151D01*
X017189Y014340D01*
X017571Y014340D01*
X017840Y014071D01*
X017840Y013689D01*
X017571Y013420D01*
X017189Y013420D01*
X017000Y013609D01*
X017000Y013330D01*
X016790Y013120D01*
X016840Y013071D01*
X016840Y012689D01*
X016571Y012420D01*
X016189Y012420D01*
X015920Y012689D01*
X015920Y013071D01*
X016189Y013340D01*
X016571Y013340D01*
X016620Y013290D01*
X016760Y013430D01*
X016760Y013609D01*
X016571Y013420D01*
X016189Y013420D01*
X016000Y013609D01*
X016000Y013330D01*
X015790Y013120D01*
X015840Y013071D01*
X015840Y012689D01*
X015571Y012420D01*
X015624Y012474D02*
X016136Y012474D01*
X016077Y012532D02*
X015683Y012532D01*
X015741Y012591D02*
X016019Y012591D01*
X015960Y012649D02*
X015800Y012649D01*
X015840Y012708D02*
X015920Y012708D01*
X015920Y012766D02*
X015840Y012766D01*
X015840Y012825D02*
X015920Y012825D01*
X015920Y012883D02*
X015840Y012883D01*
X015840Y012942D02*
X015920Y012942D01*
X015920Y013000D02*
X015840Y013000D01*
X015840Y013059D02*
X015920Y013059D01*
X015967Y013117D02*
X015793Y013117D01*
X015845Y013176D02*
X016025Y013176D01*
X016084Y013234D02*
X015904Y013234D01*
X015962Y013293D02*
X016142Y013293D01*
X016000Y013351D02*
X016681Y013351D01*
X016623Y013293D02*
X016618Y013293D01*
X016740Y013410D02*
X016000Y013410D01*
X016000Y013468D02*
X016141Y013468D01*
X016083Y013527D02*
X016000Y013527D01*
X016000Y013585D02*
X016024Y013585D01*
X015760Y013585D02*
X015736Y013585D01*
X015760Y013527D02*
X015677Y013527D01*
X015619Y013468D02*
X015760Y013468D01*
X015740Y013410D02*
X007079Y013410D01*
X007138Y013468D02*
X007141Y013468D01*
X007173Y013380D02*
X006880Y013087D01*
X006880Y012910D01*
X007350Y012910D01*
X007350Y013380D01*
X007173Y013380D01*
X007144Y013351D02*
X007021Y013351D01*
X006962Y013293D02*
X007085Y013293D01*
X007027Y013234D02*
X006904Y013234D01*
X006845Y013176D02*
X006968Y013176D01*
X006910Y013117D02*
X006787Y013117D01*
X006728Y013059D02*
X006880Y013059D01*
X006880Y013000D02*
X006670Y013000D01*
X006611Y012942D02*
X006880Y012942D01*
X006880Y012850D02*
X006880Y012673D01*
X007173Y012380D01*
X007350Y012380D01*
X007350Y012850D01*
X007410Y012850D01*
X007410Y012910D01*
X007880Y012910D01*
X007880Y013087D01*
X007587Y013380D01*
X007410Y013380D01*
X007410Y012910D01*
X007350Y012910D01*
X007350Y012850D01*
X006880Y012850D01*
X006880Y012825D02*
X006494Y012825D01*
X006553Y012883D02*
X007350Y012883D01*
X007350Y012825D02*
X007410Y012825D01*
X007410Y012850D02*
X007410Y012380D01*
X007587Y012380D01*
X007880Y012673D01*
X007880Y012850D01*
X007410Y012850D01*
X007410Y012883D02*
X007920Y012883D01*
X007920Y012825D02*
X007880Y012825D01*
X007880Y012766D02*
X007920Y012766D01*
X007920Y012708D02*
X007880Y012708D01*
X007920Y012689D02*
X008189Y012420D01*
X008571Y012420D01*
X008840Y012689D01*
X008840Y013071D01*
X008571Y013340D01*
X008189Y013340D01*
X007920Y013071D01*
X007920Y012689D01*
X007960Y012649D02*
X007856Y012649D01*
X007798Y012591D02*
X008019Y012591D01*
X008077Y012532D02*
X007739Y012532D01*
X007681Y012474D02*
X008136Y012474D01*
X008624Y012474D02*
X009136Y012474D01*
X009189Y012420D02*
X009571Y012420D01*
X009840Y012689D01*
X009840Y013071D01*
X009571Y013340D01*
X009189Y013340D01*
X008920Y013071D01*
X008920Y012689D01*
X009189Y012420D01*
X009077Y012532D02*
X008683Y012532D01*
X008741Y012591D02*
X009019Y012591D01*
X008960Y012649D02*
X008800Y012649D01*
X008840Y012708D02*
X008920Y012708D01*
X008920Y012766D02*
X008840Y012766D01*
X008840Y012825D02*
X008920Y012825D01*
X008920Y012883D02*
X008840Y012883D01*
X008840Y012942D02*
X008920Y012942D01*
X008920Y013000D02*
X008840Y013000D01*
X008840Y013059D02*
X008920Y013059D01*
X008967Y013117D02*
X008793Y013117D01*
X008735Y013176D02*
X009025Y013176D01*
X009084Y013234D02*
X008676Y013234D01*
X008618Y013293D02*
X009142Y013293D01*
X009141Y013468D02*
X008619Y013468D01*
X008677Y013527D02*
X009083Y013527D01*
X009024Y013585D02*
X008736Y013585D01*
X008794Y013644D02*
X008966Y013644D01*
X008920Y013702D02*
X008840Y013702D01*
X008840Y013761D02*
X008920Y013761D01*
X008920Y013819D02*
X008840Y013819D01*
X008840Y013878D02*
X008920Y013878D01*
X008920Y013936D02*
X008840Y013936D01*
X008840Y013995D02*
X008920Y013995D01*
X008920Y014053D02*
X008840Y014053D01*
X008799Y014112D02*
X008961Y014112D01*
X008920Y014170D02*
X008740Y014170D01*
X008682Y014229D02*
X008862Y014229D01*
X008803Y014287D02*
X008623Y014287D01*
X008745Y014346D02*
X008084Y014346D01*
X007880Y014380D02*
X008380Y013880D01*
X007920Y013878D02*
X007840Y013878D01*
X007840Y013936D02*
X007920Y013936D01*
X007920Y013995D02*
X007840Y013995D01*
X007840Y014053D02*
X007920Y014053D01*
X007961Y014112D02*
X007799Y014112D01*
X007740Y014170D02*
X007920Y014170D01*
X007862Y014229D02*
X007682Y014229D01*
X007880Y014380D02*
X007130Y014380D01*
X005207Y012457D01*
X004880Y012457D01*
X004856Y012630D02*
X004505Y012630D01*
X004364Y012474D02*
X001992Y012474D01*
X001915Y012532D02*
X004306Y012532D01*
X004295Y012591D02*
X001838Y012591D01*
X001761Y012649D02*
X004295Y012649D01*
X004295Y012708D02*
X001684Y012708D01*
X001607Y012766D02*
X004344Y012766D01*
X004388Y012825D02*
X001530Y012825D01*
X001453Y012883D02*
X004330Y012883D01*
X004295Y012942D02*
X001376Y012942D01*
X001300Y013000D02*
X004295Y013000D01*
X004295Y013059D02*
X001223Y013059D01*
X001146Y013117D02*
X004320Y013117D01*
X004379Y013176D02*
X001069Y013176D01*
X000992Y013234D02*
X004354Y013234D01*
X004295Y013293D02*
X000915Y013293D01*
X000838Y013351D02*
X004295Y013351D01*
X004295Y013410D02*
X000761Y013410D01*
X000684Y013468D02*
X004296Y013468D01*
X004355Y013527D02*
X000607Y013527D01*
X000530Y013585D02*
X004378Y013585D01*
X004319Y013644D02*
X000485Y013644D01*
X000485Y013702D02*
X004295Y013702D01*
X004295Y013761D02*
X000485Y013761D01*
X000485Y013819D02*
X004295Y013819D01*
X004331Y013878D02*
X000485Y013878D01*
X000485Y013936D02*
X004389Y013936D01*
X004343Y013995D02*
X000485Y013995D01*
X000485Y014053D02*
X004295Y014053D01*
X004295Y014112D02*
X000485Y014112D01*
X000485Y014170D02*
X004295Y014170D01*
X004307Y014229D02*
X000485Y014229D01*
X000485Y014287D02*
X004365Y014287D01*
X004375Y014463D02*
X000485Y014463D01*
X000485Y014521D02*
X004317Y014521D01*
X004295Y014580D02*
X000485Y014580D01*
X000485Y014638D02*
X004295Y014638D01*
X004295Y014697D02*
X000485Y014697D01*
X000485Y014755D02*
X004333Y014755D01*
X004392Y014814D02*
X000485Y014814D01*
X000485Y014872D02*
X004341Y014872D01*
X004295Y014931D02*
X000485Y014931D01*
X000485Y014989D02*
X004295Y014989D01*
X004295Y015048D02*
X000485Y015048D01*
X000485Y015106D02*
X004309Y015106D01*
X004368Y015165D02*
X003353Y015165D01*
X003382Y015177D02*
X003508Y015302D01*
X003576Y015466D01*
X003576Y015644D01*
X003508Y015808D01*
X004633Y015808D01*
X004633Y015750D02*
X003532Y015750D01*
X003508Y015808D02*
X003382Y015934D01*
X003218Y016002D01*
X003040Y016002D01*
X002876Y015934D01*
X002750Y015808D01*
X002523Y015808D01*
X002398Y015934D01*
X002234Y016002D01*
X002056Y016002D01*
X001892Y015934D01*
X001766Y015808D01*
X000485Y015808D01*
X000485Y015750D02*
X001742Y015750D01*
X001766Y015808D02*
X001698Y015644D01*
X001698Y015466D01*
X001766Y015302D01*
X001892Y015177D01*
X002056Y015109D01*
X002234Y015109D01*
X002398Y015177D01*
X002523Y015302D01*
X002591Y015466D01*
X002591Y015644D01*
X002523Y015808D01*
X002548Y015750D02*
X002726Y015750D01*
X002750Y015808D02*
X002682Y015644D01*
X002682Y015466D01*
X002750Y015302D01*
X002876Y015177D01*
X003040Y015109D01*
X003218Y015109D01*
X003382Y015177D01*
X003428Y015223D02*
X004633Y015223D01*
X004633Y015282D02*
X003487Y015282D01*
X003523Y015340D02*
X004633Y015340D01*
X004633Y015399D02*
X003547Y015399D01*
X003572Y015457D02*
X004633Y015457D01*
X004637Y015516D02*
X003576Y015516D01*
X003576Y015574D02*
X004633Y015574D01*
X004633Y015633D02*
X003576Y015633D01*
X003556Y015691D02*
X004633Y015691D01*
X004633Y015867D02*
X003449Y015867D01*
X003391Y015925D02*
X004633Y015925D01*
X004633Y015984D02*
X003262Y015984D01*
X002996Y015984D02*
X002277Y015984D01*
X002406Y015925D02*
X002867Y015925D01*
X002809Y015867D02*
X002465Y015867D01*
X002572Y015691D02*
X002702Y015691D01*
X002682Y015633D02*
X002591Y015633D01*
X002591Y015574D02*
X002682Y015574D01*
X002682Y015516D02*
X002591Y015516D01*
X002587Y015457D02*
X002686Y015457D01*
X002711Y015399D02*
X002563Y015399D01*
X002539Y015340D02*
X002735Y015340D01*
X002771Y015282D02*
X002503Y015282D01*
X002444Y015223D02*
X002830Y015223D01*
X002905Y015165D02*
X002369Y015165D01*
X001921Y015165D02*
X000485Y015165D01*
X000485Y015223D02*
X001845Y015223D01*
X001787Y015282D02*
X000485Y015282D01*
X000485Y015340D02*
X001751Y015340D01*
X001726Y015399D02*
X000485Y015399D01*
X000485Y015457D02*
X001702Y015457D01*
X001698Y015516D02*
X000485Y015516D01*
X000485Y015574D02*
X001698Y015574D01*
X001698Y015633D02*
X000485Y015633D01*
X000485Y015691D02*
X001718Y015691D01*
X001825Y015867D02*
X000485Y015867D01*
X000485Y015925D02*
X001883Y015925D01*
X002012Y015984D02*
X000485Y015984D01*
X000485Y016042D02*
X004633Y016042D01*
X004601Y016101D02*
X000485Y016101D01*
X000485Y016159D02*
X004593Y016159D01*
X004593Y016218D02*
X000485Y016218D01*
X000485Y016276D02*
X004596Y016276D01*
X004627Y016335D02*
X000485Y016335D01*
X000485Y016393D02*
X003684Y016393D01*
X003688Y016391D02*
X003721Y016382D01*
X003886Y016382D01*
X003886Y016581D01*
X003608Y016581D01*
X003608Y016495D01*
X003617Y016462D01*
X003634Y016432D01*
X003658Y016408D01*
X003688Y016391D01*
X003623Y016452D02*
X000485Y016452D01*
X000485Y016510D02*
X003608Y016510D01*
X003608Y016569D02*
X000485Y016569D01*
X000485Y016627D02*
X003608Y016627D01*
X003608Y016600D02*
X003608Y016686D01*
X000485Y016686D01*
X000485Y016744D02*
X003631Y016744D01*
X003634Y016749D02*
X003617Y016720D01*
X003608Y016686D01*
X003634Y016749D02*
X003658Y016773D01*
X003688Y016791D01*
X003721Y016799D01*
X003886Y016799D01*
X003886Y016600D01*
X003886Y016581D01*
X003905Y016581D01*
X003905Y016382D01*
X004070Y016382D01*
X004103Y016391D01*
X004133Y016408D01*
X004157Y016432D01*
X004174Y016462D01*
X004183Y016495D01*
X004183Y016581D01*
X003905Y016581D01*
X003905Y016600D01*
X003886Y016600D01*
X003608Y016600D01*
X003886Y016627D02*
X003905Y016627D01*
X003905Y016600D02*
X003905Y016799D01*
X004070Y016799D01*
X004103Y016791D01*
X004133Y016773D01*
X004157Y016749D01*
X004174Y016720D01*
X004183Y016686D01*
X013936Y016686D01*
X011934Y016744D02*
X004160Y016744D01*
X004183Y016686D02*
X004183Y016600D01*
X003905Y016600D01*
X003905Y016569D02*
X003886Y016569D01*
X003886Y016510D02*
X003905Y016510D01*
X003905Y016452D02*
X003886Y016452D01*
X003886Y016393D02*
X003905Y016393D01*
X004107Y016393D02*
X006420Y016393D01*
X006420Y016452D02*
X004169Y016452D01*
X004183Y016510D02*
X006463Y016510D01*
X006522Y016569D02*
X004183Y016569D01*
X004183Y016627D02*
X015939Y016627D01*
X017677Y016569D02*
X006738Y016569D01*
X006797Y016510D02*
X018511Y016510D01*
X019346Y016452D02*
X006840Y016452D01*
X006840Y016393D02*
X020180Y016393D01*
X021014Y016335D02*
X006840Y016335D01*
X006823Y016276D02*
X021849Y016276D01*
X022683Y016218D02*
X006765Y016218D01*
X006579Y016159D02*
X023518Y016159D01*
X024352Y016101D02*
X006520Y016101D01*
X006462Y016042D02*
X025186Y016042D01*
X026021Y015984D02*
X006403Y015984D01*
X006345Y015925D02*
X026855Y015925D01*
X027690Y015867D02*
X015313Y015867D01*
X015372Y015808D02*
X028446Y015808D01*
X029186Y015750D02*
X015430Y015750D01*
X015489Y015691D02*
X029926Y015691D01*
X030667Y015633D02*
X015547Y015633D01*
X015606Y015574D02*
X031383Y015574D01*
X031914Y015516D02*
X015664Y015516D01*
X015723Y015457D02*
X032445Y015457D01*
X032975Y015399D02*
X015781Y015399D01*
X015840Y015340D02*
X033506Y015340D01*
X034037Y015282D02*
X015898Y015282D01*
X015957Y015223D02*
X034568Y015223D01*
X035099Y015165D02*
X016015Y015165D01*
X016074Y015106D02*
X035630Y015106D01*
X036161Y015048D02*
X016132Y015048D01*
X016191Y014989D02*
X036616Y014989D01*
X036950Y014931D02*
X016249Y014931D01*
X016308Y014872D02*
X037284Y014872D01*
X037618Y014814D02*
X016366Y014814D01*
X016425Y014755D02*
X037953Y014755D01*
X038243Y014697D02*
X016483Y014697D01*
X016542Y014638D02*
X038470Y014638D01*
X038697Y014580D02*
X016600Y014580D01*
X016659Y014521D02*
X038924Y014521D01*
X039152Y014463D02*
X016717Y014463D01*
X016776Y014404D02*
X039379Y014404D01*
X039606Y014346D02*
X016834Y014346D01*
X016893Y014287D02*
X017137Y014287D01*
X017078Y014229D02*
X016951Y014229D01*
X017000Y014170D02*
X017020Y014170D01*
X016880Y014130D02*
X016880Y013380D01*
X016380Y012880D01*
X016840Y012883D02*
X017350Y012883D01*
X017350Y012910D02*
X017350Y012850D01*
X017410Y012850D01*
X017410Y012910D01*
X017880Y012910D01*
X017880Y013087D01*
X017587Y013380D01*
X017410Y013380D01*
X017410Y012910D01*
X017350Y012910D01*
X017350Y013380D01*
X017173Y013380D01*
X016880Y013087D01*
X016880Y012910D01*
X017350Y012910D01*
X017350Y012942D02*
X017410Y012942D01*
X017410Y013000D02*
X017350Y013000D01*
X017350Y013059D02*
X017410Y013059D01*
X017410Y013117D02*
X017350Y013117D01*
X017350Y013176D02*
X017410Y013176D01*
X017410Y013234D02*
X017350Y013234D01*
X017350Y013293D02*
X017410Y013293D01*
X017410Y013351D02*
X017350Y013351D01*
X017144Y013351D02*
X017000Y013351D01*
X017000Y013410D02*
X042629Y013410D01*
X042471Y013468D02*
X017619Y013468D01*
X017677Y013527D02*
X042312Y013527D01*
X042154Y013585D02*
X017736Y013585D01*
X017794Y013644D02*
X041996Y013644D01*
X041837Y013702D02*
X017840Y013702D01*
X017840Y013761D02*
X041679Y013761D01*
X041521Y013819D02*
X017840Y013819D01*
X017840Y013878D02*
X041362Y013878D01*
X041195Y013936D02*
X017840Y013936D01*
X017840Y013995D02*
X040968Y013995D01*
X040741Y014053D02*
X017840Y014053D01*
X017799Y014112D02*
X040514Y014112D01*
X040287Y014170D02*
X017740Y014170D01*
X017682Y014229D02*
X040060Y014229D01*
X039833Y014287D02*
X017623Y014287D01*
X016880Y014130D02*
X015207Y015803D01*
X004880Y015803D01*
X004880Y015606D02*
X014654Y015606D01*
X016380Y013880D01*
X016736Y013585D02*
X016760Y013585D01*
X016760Y013527D02*
X016677Y013527D01*
X016619Y013468D02*
X016760Y013468D01*
X017000Y013468D02*
X017141Y013468D01*
X017083Y013527D02*
X017000Y013527D01*
X017000Y013585D02*
X017024Y013585D01*
X016962Y013293D02*
X017085Y013293D01*
X017027Y013234D02*
X016904Y013234D01*
X016845Y013176D02*
X016968Y013176D01*
X016910Y013117D02*
X016793Y013117D01*
X016840Y013059D02*
X016880Y013059D01*
X016880Y013000D02*
X016840Y013000D01*
X016840Y012942D02*
X016880Y012942D01*
X016880Y012850D02*
X016880Y012673D01*
X017173Y012380D01*
X017350Y012380D01*
X017350Y012850D01*
X016880Y012850D01*
X016880Y012825D02*
X016840Y012825D01*
X016840Y012766D02*
X016880Y012766D01*
X016880Y012708D02*
X016840Y012708D01*
X016800Y012649D02*
X016904Y012649D01*
X016962Y012591D02*
X016741Y012591D01*
X016683Y012532D02*
X017021Y012532D01*
X017079Y012474D02*
X016624Y012474D01*
X017138Y012415D02*
X007622Y012415D01*
X007410Y012415D02*
X007350Y012415D01*
X007350Y012474D02*
X007410Y012474D01*
X007410Y012532D02*
X007350Y012532D01*
X007350Y012591D02*
X007410Y012591D01*
X007410Y012649D02*
X007350Y012649D01*
X007350Y012708D02*
X007410Y012708D01*
X007410Y012766D02*
X007350Y012766D01*
X007350Y012942D02*
X007410Y012942D01*
X007410Y013000D02*
X007350Y013000D01*
X007350Y013059D02*
X007410Y013059D01*
X007410Y013117D02*
X007350Y013117D01*
X007350Y013176D02*
X007410Y013176D01*
X007410Y013234D02*
X007350Y013234D01*
X007350Y013293D02*
X007410Y013293D01*
X007410Y013351D02*
X007350Y013351D01*
X007616Y013351D02*
X015681Y013351D01*
X015623Y013293D02*
X015618Y013293D01*
X015880Y013380D02*
X015380Y012880D01*
X014920Y012883D02*
X014840Y012883D01*
X014840Y012825D02*
X014920Y012825D01*
X014920Y012766D02*
X014840Y012766D01*
X014840Y012708D02*
X014920Y012708D01*
X014960Y012649D02*
X014800Y012649D01*
X014840Y012689D02*
X014571Y012420D01*
X014189Y012420D01*
X013920Y012689D01*
X013920Y013071D01*
X014189Y013340D01*
X014571Y013340D01*
X014840Y013071D01*
X014840Y012689D01*
X014741Y012591D02*
X015019Y012591D01*
X015077Y012532D02*
X014683Y012532D01*
X014624Y012474D02*
X015136Y012474D01*
X014136Y012474D02*
X013624Y012474D01*
X013571Y012420D02*
X013840Y012689D01*
X013840Y013071D01*
X013571Y013340D01*
X013189Y013340D01*
X012920Y013071D01*
X012920Y012689D01*
X013189Y012420D01*
X013571Y012420D01*
X013683Y012532D02*
X014077Y012532D01*
X014019Y012591D02*
X013741Y012591D01*
X013800Y012649D02*
X013960Y012649D01*
X013920Y012708D02*
X013840Y012708D01*
X013840Y012766D02*
X013920Y012766D01*
X013920Y012825D02*
X013840Y012825D01*
X013840Y012883D02*
X013920Y012883D01*
X013920Y012942D02*
X013840Y012942D01*
X013840Y013000D02*
X013920Y013000D01*
X013920Y013059D02*
X013840Y013059D01*
X013793Y013117D02*
X013967Y013117D01*
X014025Y013176D02*
X013735Y013176D01*
X013676Y013234D02*
X014084Y013234D01*
X014142Y013293D02*
X013618Y013293D01*
X013619Y013468D02*
X014141Y013468D01*
X014083Y013527D02*
X013677Y013527D01*
X013736Y013585D02*
X014024Y013585D01*
X013966Y013644D02*
X013794Y013644D01*
X013840Y013702D02*
X013920Y013702D01*
X013920Y013761D02*
X013840Y013761D01*
X013840Y013819D02*
X013920Y013819D01*
X013920Y013878D02*
X013840Y013878D01*
X013840Y013936D02*
X013920Y013936D01*
X013920Y013995D02*
X013840Y013995D01*
X013840Y014053D02*
X013920Y014053D01*
X013961Y014112D02*
X013799Y014112D01*
X013740Y014170D02*
X013920Y014170D01*
X013862Y014229D02*
X013682Y014229D01*
X013623Y014287D02*
X013803Y014287D01*
X013745Y014346D02*
X013084Y014346D01*
X013026Y014404D02*
X013686Y014404D01*
X013628Y014463D02*
X012967Y014463D01*
X012909Y014521D02*
X013569Y014521D01*
X013511Y014580D02*
X012850Y014580D01*
X012792Y014638D02*
X013452Y014638D01*
X013394Y014697D02*
X012733Y014697D01*
X012675Y014755D02*
X013335Y014755D01*
X013277Y014814D02*
X012616Y014814D01*
X012558Y014872D02*
X013218Y014872D01*
X013160Y014931D02*
X012499Y014931D01*
X012441Y014989D02*
X013101Y014989D01*
X013130Y015130D02*
X014380Y013880D01*
X014840Y013878D02*
X014920Y013878D01*
X014920Y013936D02*
X014840Y013936D01*
X014840Y013995D02*
X014920Y013995D01*
X014920Y014053D02*
X014840Y014053D01*
X014799Y014112D02*
X014961Y014112D01*
X014920Y014170D02*
X014740Y014170D01*
X014682Y014229D02*
X014862Y014229D01*
X014803Y014287D02*
X014623Y014287D01*
X014686Y014404D02*
X014026Y014404D01*
X014084Y014346D02*
X014745Y014346D01*
X014628Y014463D02*
X013967Y014463D01*
X013909Y014521D02*
X014569Y014521D01*
X014511Y014580D02*
X013850Y014580D01*
X013792Y014638D02*
X014452Y014638D01*
X014394Y014697D02*
X013733Y014697D01*
X013675Y014755D02*
X014335Y014755D01*
X014277Y014814D02*
X013616Y014814D01*
X013558Y014872D02*
X014218Y014872D01*
X014160Y014931D02*
X013499Y014931D01*
X013441Y014989D02*
X014101Y014989D01*
X014043Y015048D02*
X013382Y015048D01*
X013324Y015106D02*
X013984Y015106D01*
X014005Y015255D02*
X015380Y013880D01*
X015024Y013585D02*
X014736Y013585D01*
X014794Y013644D02*
X014966Y013644D01*
X014920Y013702D02*
X014840Y013702D01*
X014840Y013761D02*
X014920Y013761D01*
X014920Y013819D02*
X014840Y013819D01*
X014677Y013527D02*
X015083Y013527D01*
X015141Y013468D02*
X014619Y013468D01*
X014618Y013293D02*
X015142Y013293D01*
X015084Y013234D02*
X014676Y013234D01*
X014735Y013176D02*
X015025Y013176D01*
X014967Y013117D02*
X014793Y013117D01*
X014840Y013059D02*
X014920Y013059D01*
X014920Y013000D02*
X014840Y013000D01*
X014840Y012942D02*
X014920Y012942D01*
X015880Y013380D02*
X015880Y014130D01*
X014600Y015410D01*
X004880Y015410D01*
X004922Y015255D02*
X004880Y015213D01*
X004922Y015255D02*
X014005Y015255D01*
X013130Y015130D02*
X006380Y015130D01*
X006069Y014819D01*
X004880Y014819D01*
X004880Y015016D02*
X004516Y015016D01*
X004505Y015005D01*
X004505Y014630D02*
X004513Y014622D01*
X004880Y014622D01*
X004880Y014425D02*
X005925Y014425D01*
X006505Y015005D01*
X012255Y015005D01*
X013380Y013880D01*
X012920Y013878D02*
X012840Y013878D01*
X012840Y013936D02*
X012920Y013936D01*
X012920Y013995D02*
X012840Y013995D01*
X012840Y014053D02*
X012920Y014053D01*
X012961Y014112D02*
X012799Y014112D01*
X012740Y014170D02*
X012920Y014170D01*
X012862Y014229D02*
X012682Y014229D01*
X012623Y014287D02*
X012803Y014287D01*
X012745Y014346D02*
X012084Y014346D01*
X012026Y014404D02*
X012686Y014404D01*
X012628Y014463D02*
X011967Y014463D01*
X011909Y014521D02*
X012569Y014521D01*
X012511Y014580D02*
X011850Y014580D01*
X011792Y014638D02*
X012452Y014638D01*
X012394Y014697D02*
X011733Y014697D01*
X011675Y014755D02*
X012335Y014755D01*
X012277Y014814D02*
X011616Y014814D01*
X011558Y014872D02*
X012218Y014872D01*
X011452Y014638D02*
X010792Y014638D01*
X010850Y014580D02*
X011511Y014580D01*
X011569Y014521D02*
X010909Y014521D01*
X010967Y014463D02*
X011628Y014463D01*
X011686Y014404D02*
X011026Y014404D01*
X011084Y014346D02*
X011745Y014346D01*
X011803Y014287D02*
X011623Y014287D01*
X011682Y014229D02*
X011862Y014229D01*
X011920Y014170D02*
X011740Y014170D01*
X011799Y014112D02*
X011961Y014112D01*
X011920Y014053D02*
X011840Y014053D01*
X011840Y013995D02*
X011920Y013995D01*
X011920Y013936D02*
X011840Y013936D01*
X011840Y013878D02*
X011920Y013878D01*
X011920Y013819D02*
X011840Y013819D01*
X011840Y013761D02*
X011920Y013761D01*
X011920Y013702D02*
X011840Y013702D01*
X011794Y013644D02*
X011966Y013644D01*
X012024Y013585D02*
X011736Y013585D01*
X011677Y013527D02*
X012083Y013527D01*
X012141Y013468D02*
X011619Y013468D01*
X011571Y013340D02*
X011189Y013340D01*
X010920Y013071D01*
X010920Y012689D01*
X011189Y012420D01*
X011571Y012420D01*
X011840Y012689D01*
X011840Y013071D01*
X011571Y013340D01*
X011618Y013293D02*
X012142Y013293D01*
X012189Y013340D02*
X011920Y013071D01*
X011920Y012689D01*
X012189Y012420D01*
X012571Y012420D01*
X012840Y012689D01*
X012840Y013071D01*
X012571Y013340D01*
X012189Y013340D01*
X012084Y013234D02*
X011676Y013234D01*
X011735Y013176D02*
X012025Y013176D01*
X011967Y013117D02*
X011793Y013117D01*
X011840Y013059D02*
X011920Y013059D01*
X011920Y013000D02*
X011840Y013000D01*
X011840Y012942D02*
X011920Y012942D01*
X011920Y012883D02*
X011840Y012883D01*
X011840Y012825D02*
X011920Y012825D01*
X011920Y012766D02*
X011840Y012766D01*
X011840Y012708D02*
X011920Y012708D01*
X011960Y012649D02*
X011800Y012649D01*
X011741Y012591D02*
X012019Y012591D01*
X012077Y012532D02*
X011683Y012532D01*
X011624Y012474D02*
X012136Y012474D01*
X012624Y012474D02*
X013136Y012474D01*
X013077Y012532D02*
X012683Y012532D01*
X012741Y012591D02*
X013019Y012591D01*
X012960Y012649D02*
X012800Y012649D01*
X012840Y012708D02*
X012920Y012708D01*
X012920Y012766D02*
X012840Y012766D01*
X012840Y012825D02*
X012920Y012825D01*
X012920Y012883D02*
X012840Y012883D01*
X012840Y012942D02*
X012920Y012942D01*
X012920Y013000D02*
X012840Y013000D01*
X012840Y013059D02*
X012920Y013059D01*
X012967Y013117D02*
X012793Y013117D01*
X012735Y013176D02*
X013025Y013176D01*
X013084Y013234D02*
X012676Y013234D01*
X012618Y013293D02*
X013142Y013293D01*
X013141Y013468D02*
X012619Y013468D01*
X012677Y013527D02*
X013083Y013527D01*
X013024Y013585D02*
X012736Y013585D01*
X012794Y013644D02*
X012966Y013644D01*
X012920Y013702D02*
X012840Y013702D01*
X012840Y013761D02*
X012920Y013761D01*
X012920Y013819D02*
X012840Y013819D01*
X012380Y013880D02*
X011380Y014880D01*
X006630Y014880D01*
X005782Y014032D01*
X004880Y014032D01*
X004880Y014228D02*
X004603Y014228D01*
X004505Y014130D01*
X004551Y014346D02*
X000485Y014346D01*
X000485Y014404D02*
X004633Y014404D01*
X004585Y013835D02*
X004505Y013755D01*
X004585Y013835D02*
X004880Y013835D01*
X004880Y013638D02*
X005638Y013638D01*
X006755Y014755D01*
X010505Y014755D01*
X011380Y013880D01*
X010920Y013878D02*
X010840Y013878D01*
X010840Y013936D02*
X010920Y013936D01*
X010920Y013995D02*
X010840Y013995D01*
X010840Y014053D02*
X010920Y014053D01*
X010961Y014112D02*
X010799Y014112D01*
X010740Y014170D02*
X010920Y014170D01*
X010862Y014229D02*
X010682Y014229D01*
X010623Y014287D02*
X010803Y014287D01*
X010745Y014346D02*
X010084Y014346D01*
X010026Y014404D02*
X010686Y014404D01*
X010628Y014463D02*
X009967Y014463D01*
X009909Y014521D02*
X010569Y014521D01*
X010511Y014580D02*
X009850Y014580D01*
X009630Y014630D02*
X010380Y013880D01*
X009920Y013878D02*
X009840Y013878D01*
X009840Y013936D02*
X009920Y013936D01*
X009920Y013995D02*
X009840Y013995D01*
X009840Y014053D02*
X009920Y014053D01*
X009961Y014112D02*
X009799Y014112D01*
X009740Y014170D02*
X009920Y014170D01*
X009862Y014229D02*
X009682Y014229D01*
X009623Y014287D02*
X009803Y014287D01*
X009745Y014346D02*
X009084Y014346D01*
X009026Y014404D02*
X009686Y014404D01*
X009628Y014463D02*
X008967Y014463D01*
X008755Y014505D02*
X009380Y013880D01*
X009736Y013585D02*
X010024Y013585D01*
X009966Y013644D02*
X009794Y013644D01*
X009840Y013702D02*
X009920Y013702D01*
X009920Y013761D02*
X009840Y013761D01*
X009840Y013819D02*
X009920Y013819D01*
X010736Y013585D02*
X011024Y013585D01*
X010966Y013644D02*
X010794Y013644D01*
X010840Y013702D02*
X010920Y013702D01*
X010920Y013761D02*
X010840Y013761D01*
X010840Y013819D02*
X010920Y013819D01*
X011083Y013527D02*
X010677Y013527D01*
X010619Y013468D02*
X011141Y013468D01*
X011142Y013293D02*
X010618Y013293D01*
X010571Y013340D02*
X010189Y013340D01*
X009920Y013071D01*
X009920Y012689D01*
X010189Y012420D01*
X010571Y012420D01*
X010840Y012689D01*
X010840Y013071D01*
X010571Y013340D01*
X010676Y013234D02*
X011084Y013234D01*
X011025Y013176D02*
X010735Y013176D01*
X010793Y013117D02*
X010967Y013117D01*
X010920Y013059D02*
X010840Y013059D01*
X010840Y013000D02*
X010920Y013000D01*
X010920Y012942D02*
X010840Y012942D01*
X010840Y012883D02*
X010920Y012883D01*
X010920Y012825D02*
X010840Y012825D01*
X010840Y012766D02*
X010920Y012766D01*
X010920Y012708D02*
X010840Y012708D01*
X010800Y012649D02*
X010960Y012649D01*
X011019Y012591D02*
X010741Y012591D01*
X010683Y012532D02*
X011077Y012532D01*
X011136Y012474D02*
X010624Y012474D01*
X010136Y012474D02*
X009624Y012474D01*
X009683Y012532D02*
X010077Y012532D01*
X010019Y012591D02*
X009741Y012591D01*
X009800Y012649D02*
X009960Y012649D01*
X009920Y012708D02*
X009840Y012708D01*
X009840Y012766D02*
X009920Y012766D01*
X009920Y012825D02*
X009840Y012825D01*
X009840Y012883D02*
X009920Y012883D01*
X009920Y012942D02*
X009840Y012942D01*
X009840Y013000D02*
X009920Y013000D01*
X009920Y013059D02*
X009840Y013059D01*
X009793Y013117D02*
X009967Y013117D01*
X010025Y013176D02*
X009735Y013176D01*
X009676Y013234D02*
X010084Y013234D01*
X010142Y013293D02*
X009618Y013293D01*
X009619Y013468D02*
X010141Y013468D01*
X010083Y013527D02*
X009677Y013527D01*
X008141Y013468D02*
X007619Y013468D01*
X007677Y013527D02*
X008083Y013527D01*
X008024Y013585D02*
X007736Y013585D01*
X007794Y013644D02*
X007966Y013644D01*
X007920Y013702D02*
X007840Y013702D01*
X007840Y013761D02*
X007920Y013761D01*
X007920Y013819D02*
X007840Y013819D01*
X007380Y013880D02*
X005563Y012063D01*
X004880Y012063D01*
X004662Y011947D02*
X002685Y011947D01*
X002608Y012006D02*
X004633Y012006D01*
X004633Y012064D02*
X002531Y012064D01*
X002454Y012123D02*
X004627Y012123D01*
X004596Y012181D02*
X002377Y012181D01*
X002300Y012240D02*
X004593Y012240D01*
X004593Y012298D02*
X002223Y012298D01*
X002146Y012357D02*
X004601Y012357D01*
X004633Y012415D02*
X002069Y012415D01*
X002762Y011889D02*
X010445Y011889D01*
X009275Y011830D02*
X004155Y011830D01*
X004157Y011828D02*
X004133Y011852D01*
X004103Y011869D01*
X004070Y011878D01*
X003905Y011878D01*
X003905Y011679D01*
X003886Y011679D01*
X003886Y011660D01*
X003608Y011660D01*
X003608Y011574D01*
X003617Y011540D01*
X003634Y011511D01*
X003658Y011487D01*
X003688Y011469D01*
X003721Y011461D01*
X003886Y011461D01*
X003886Y011660D01*
X003905Y011660D01*
X003905Y011461D01*
X004070Y011461D01*
X004103Y011469D01*
X004133Y011487D01*
X004157Y011511D01*
X004174Y011540D01*
X004183Y011574D01*
X004183Y011660D01*
X003905Y011660D01*
X003905Y011679D01*
X004183Y011679D01*
X004183Y011765D01*
X004174Y011798D01*
X004157Y011828D01*
X004182Y011772D02*
X008105Y011772D01*
X007217Y011713D02*
X004183Y011713D01*
X004183Y011655D02*
X006827Y011655D01*
X006437Y011596D02*
X004183Y011596D01*
X004173Y011538D02*
X006047Y011538D01*
X005657Y011479D02*
X004120Y011479D01*
X003905Y011479D02*
X003886Y011479D01*
X003886Y011538D02*
X003905Y011538D01*
X003905Y011596D02*
X003886Y011596D01*
X003886Y011655D02*
X003905Y011655D01*
X003886Y011679D02*
X003608Y011679D01*
X003608Y011765D01*
X003617Y011798D01*
X003634Y011828D01*
X003658Y011852D01*
X003688Y011869D01*
X003721Y011878D01*
X003886Y011878D01*
X003886Y011679D01*
X003886Y011713D02*
X003905Y011713D01*
X003905Y011772D02*
X003886Y011772D01*
X003886Y011830D02*
X003905Y011830D01*
X003636Y011830D02*
X002839Y011830D01*
X002916Y011772D02*
X003610Y011772D01*
X003608Y011713D02*
X002993Y011713D01*
X003070Y011655D02*
X003608Y011655D01*
X003608Y011596D02*
X003147Y011596D01*
X003224Y011538D02*
X003619Y011538D01*
X003672Y011479D02*
X003301Y011479D01*
X003378Y011421D02*
X005267Y011421D01*
X004877Y011362D02*
X003455Y011362D01*
X005617Y011947D02*
X011615Y011947D01*
X013566Y011947D02*
X035217Y011947D01*
X035552Y012006D02*
X005675Y012006D01*
X005734Y012064D02*
X035885Y012064D01*
X036259Y012123D02*
X005792Y012123D01*
X005851Y012181D02*
X036545Y012181D01*
X036810Y012240D02*
X005909Y012240D01*
X005968Y012298D02*
X044612Y012298D01*
X044711Y012240D02*
X038936Y012240D01*
X039291Y012181D02*
X044811Y012181D01*
X044911Y012123D02*
X039709Y012123D01*
X040128Y012064D02*
X045011Y012064D01*
X045111Y012006D02*
X040259Y012006D01*
X040400Y011947D02*
X045211Y011947D01*
X045311Y011889D02*
X040541Y011889D01*
X040682Y011830D02*
X045411Y011830D01*
X045511Y011772D02*
X040823Y011772D01*
X040964Y011713D02*
X045611Y011713D01*
X045711Y011655D02*
X041105Y011655D01*
X041246Y011596D02*
X045811Y011596D01*
X045911Y011538D02*
X041387Y011538D01*
X041528Y011479D02*
X046011Y011479D01*
X046110Y011421D02*
X041669Y011421D01*
X041810Y011362D02*
X046210Y011362D01*
X046310Y011304D02*
X041951Y011304D01*
X042092Y011245D02*
X046399Y011245D01*
X046474Y011187D02*
X042233Y011187D01*
X042374Y011128D02*
X046550Y011128D01*
X046625Y011070D02*
X042515Y011070D01*
X042656Y011011D02*
X046700Y011011D01*
X046776Y010953D02*
X042797Y010953D01*
X042953Y010894D02*
X046851Y010894D01*
X046926Y010836D02*
X043040Y010836D01*
X043105Y010777D02*
X047002Y010777D01*
X047077Y010719D02*
X043181Y010719D01*
X043257Y010660D02*
X047152Y010660D01*
X047228Y010602D02*
X043333Y010602D01*
X043409Y010543D02*
X047303Y010543D01*
X047378Y010485D02*
X043485Y010485D01*
X043561Y010426D02*
X047454Y010426D01*
X047529Y010368D02*
X043637Y010368D01*
X043713Y010309D02*
X047604Y010309D01*
X047680Y010251D02*
X043789Y010251D01*
X043865Y010192D02*
X047755Y010192D01*
X047830Y010134D02*
X043940Y010134D01*
X044030Y010075D02*
X047906Y010075D01*
X047981Y010017D02*
X044092Y010017D01*
X044149Y009958D02*
X048056Y009958D01*
X048132Y009900D02*
X044208Y009900D01*
X044268Y009841D02*
X048207Y009841D01*
X048265Y009783D02*
X044327Y009783D01*
X044386Y009724D02*
X048320Y009724D01*
X048376Y009666D02*
X044446Y009666D01*
X044505Y009607D02*
X048431Y009607D01*
X048487Y009549D02*
X044564Y009549D01*
X044624Y009490D02*
X048542Y009490D01*
X048598Y009432D02*
X044683Y009432D01*
X044742Y009373D02*
X048653Y009373D01*
X048709Y009315D02*
X044802Y009315D01*
X044861Y009256D02*
X048764Y009256D01*
X048820Y009198D02*
X044921Y009198D01*
X044980Y009139D02*
X048875Y009139D01*
X048931Y009081D02*
X045039Y009081D01*
X045099Y009022D02*
X048986Y009022D01*
X049042Y008964D02*
X045158Y008964D01*
X045217Y008905D02*
X049097Y008905D01*
X049153Y008847D02*
X045277Y008847D01*
X045336Y008788D02*
X049208Y008788D01*
X049264Y008730D02*
X045395Y008730D01*
X045455Y008671D02*
X049319Y008671D01*
X049375Y008613D02*
X045514Y008613D01*
X045573Y008554D02*
X049430Y008554D01*
X049486Y008496D02*
X045633Y008496D01*
X045692Y008437D02*
X049542Y008437D01*
X049597Y008379D02*
X045752Y008379D01*
X045814Y008320D02*
X049653Y008320D01*
X049708Y008262D02*
X045870Y008262D01*
X045901Y008203D02*
X049764Y008203D01*
X049819Y008145D02*
X045945Y008145D01*
X045989Y008086D02*
X049875Y008086D01*
X049930Y008028D02*
X046032Y008028D01*
X046076Y007969D02*
X049986Y007969D01*
X050041Y007911D02*
X046120Y007911D01*
X046163Y007852D02*
X050097Y007852D01*
X050152Y007794D02*
X046207Y007794D01*
X046251Y007735D02*
X050208Y007735D01*
X050263Y007677D02*
X046294Y007677D01*
X046338Y007618D02*
X050319Y007618D01*
X050374Y007560D02*
X046382Y007560D01*
X046425Y007501D02*
X050430Y007501D01*
X050485Y007443D02*
X046469Y007443D01*
X046516Y007384D02*
X050541Y007384D01*
X050596Y007326D02*
X046565Y007326D01*
X046613Y007267D02*
X050652Y007267D01*
X050707Y007209D02*
X046662Y007209D01*
X046710Y007150D02*
X050763Y007150D01*
X050818Y007092D02*
X046759Y007092D01*
X046808Y007033D02*
X050874Y007033D01*
X050929Y006975D02*
X046856Y006975D01*
X046905Y006916D02*
X050985Y006916D01*
X051040Y006858D02*
X046953Y006858D01*
X047002Y006799D02*
X051096Y006799D01*
X051151Y006741D02*
X047050Y006741D01*
X047099Y006682D02*
X051207Y006682D01*
X051262Y006624D02*
X047147Y006624D01*
X047196Y006565D02*
X051318Y006565D01*
X051373Y006507D02*
X047245Y006507D01*
X047293Y006448D02*
X051429Y006448D01*
X051484Y006390D02*
X047342Y006390D01*
X047390Y006331D02*
X051540Y006331D01*
X051595Y006273D02*
X047439Y006273D01*
X047487Y006214D02*
X051651Y006214D01*
X051706Y006156D02*
X047536Y006156D01*
X047584Y006097D02*
X051762Y006097D01*
X051817Y006039D02*
X047633Y006039D01*
X047682Y005980D02*
X051873Y005980D01*
X051928Y005922D02*
X047731Y005922D01*
X047780Y005863D02*
X051984Y005863D01*
X052039Y005805D02*
X047829Y005805D01*
X047879Y005746D02*
X052095Y005746D01*
X052150Y005688D02*
X047928Y005688D01*
X047977Y005629D02*
X052206Y005629D01*
X052263Y005571D02*
X048026Y005571D01*
X048075Y005512D02*
X052320Y005512D01*
X052376Y005454D02*
X048124Y005454D01*
X048173Y005395D02*
X052433Y005395D01*
X052490Y005337D02*
X048222Y005337D01*
X048271Y005278D02*
X052546Y005278D01*
X052603Y005220D02*
X048320Y005220D01*
X048369Y005161D02*
X052659Y005161D01*
X052716Y005103D02*
X048418Y005103D01*
X048467Y005044D02*
X052772Y005044D01*
X052829Y004986D02*
X048516Y004986D01*
X048565Y004927D02*
X052886Y004927D01*
X052942Y004869D02*
X048614Y004869D01*
X048663Y004810D02*
X052999Y004810D01*
X053055Y004752D02*
X048712Y004752D01*
X048761Y004693D02*
X053112Y004693D01*
X053168Y004635D02*
X048810Y004635D01*
X048860Y004576D02*
X053225Y004576D01*
X053282Y004518D02*
X048911Y004518D01*
X048962Y004459D02*
X053338Y004459D01*
X053395Y004401D02*
X049013Y004401D01*
X049064Y004342D02*
X053451Y004342D01*
X053508Y004284D02*
X049115Y004284D01*
X049166Y004225D02*
X053564Y004225D01*
X053621Y004167D02*
X049217Y004167D01*
X049268Y004108D02*
X053678Y004108D01*
X053734Y004050D02*
X049319Y004050D01*
X049370Y003991D02*
X053791Y003991D01*
X053847Y003933D02*
X049421Y003933D01*
X049472Y003874D02*
X053904Y003874D01*
X053961Y003816D02*
X049523Y003816D01*
X049574Y003757D02*
X054017Y003757D01*
X054074Y003699D02*
X049625Y003699D01*
X049676Y003640D02*
X054130Y003640D01*
X054187Y003582D02*
X049727Y003582D01*
X049778Y003523D02*
X054244Y003523D01*
X054300Y003465D02*
X049829Y003465D01*
X049880Y003406D02*
X054357Y003406D01*
X054413Y003348D02*
X049931Y003348D01*
X049982Y003289D02*
X054470Y003289D01*
X054527Y003231D02*
X050033Y003231D01*
X050084Y003172D02*
X054583Y003172D01*
X054640Y003114D02*
X050135Y003114D01*
X050186Y003055D02*
X054696Y003055D01*
X054753Y002997D02*
X050237Y002997D01*
X050288Y002938D02*
X054810Y002938D01*
X054866Y002880D02*
X050339Y002880D01*
X050390Y002821D02*
X054923Y002821D01*
X054980Y002763D02*
X050441Y002763D01*
X050492Y002704D02*
X055036Y002704D01*
X055093Y002646D02*
X050543Y002646D01*
X050594Y002587D02*
X055150Y002587D01*
X055207Y002529D02*
X050645Y002529D01*
X050696Y002470D02*
X055258Y002470D01*
X055308Y002412D02*
X050747Y002412D01*
X050798Y002353D02*
X055357Y002353D01*
X055406Y002295D02*
X050849Y002295D01*
X050900Y002236D02*
X055456Y002236D01*
X055505Y002178D02*
X050951Y002178D01*
X051002Y002119D02*
X055555Y002119D01*
X055604Y002061D02*
X051053Y002061D01*
X051104Y002002D02*
X055654Y002002D01*
X055703Y001944D02*
X051155Y001944D01*
X051207Y001885D02*
X055751Y001885D01*
X055798Y001827D02*
X051260Y001827D01*
X051314Y001768D02*
X055844Y001768D01*
X055889Y001710D02*
X051367Y001710D01*
X051420Y001651D02*
X055922Y001651D01*
X055955Y001593D02*
X051474Y001593D01*
X051527Y001534D02*
X055988Y001534D01*
X056020Y001476D02*
X051581Y001476D01*
X051634Y001417D02*
X056053Y001417D01*
X056083Y001359D02*
X051688Y001359D01*
X051741Y001300D02*
X056097Y001300D01*
X056097Y001242D02*
X051794Y001242D01*
X051848Y001183D02*
X056087Y001183D01*
X056077Y001125D02*
X051901Y001125D01*
X051955Y001066D02*
X056068Y001066D01*
X056047Y001008D02*
X052008Y001008D01*
X052062Y000949D02*
X056000Y000949D01*
X055944Y000891D02*
X052115Y000891D01*
X052168Y000832D02*
X055875Y000832D01*
X055806Y000774D02*
X052222Y000774D01*
X052275Y000715D02*
X055737Y000715D01*
X055668Y000657D02*
X052382Y000657D01*
X052504Y000598D02*
X055581Y000598D01*
X055483Y000540D02*
X052627Y000540D01*
X052750Y000481D02*
X055371Y000481D01*
X055251Y000423D02*
X053052Y000423D01*
X053857Y000364D02*
X055037Y000364D01*
X030502Y010777D02*
X028299Y010777D01*
X029016Y010719D02*
X030203Y010719D01*
X030728Y010836D02*
X027581Y010836D01*
X017880Y012673D02*
X017587Y012380D01*
X017410Y012380D01*
X017410Y012850D01*
X017880Y012850D01*
X017880Y012673D01*
X017856Y012649D02*
X044012Y012649D01*
X044112Y012591D02*
X017798Y012591D01*
X017739Y012532D02*
X044212Y012532D01*
X044312Y012474D02*
X017681Y012474D01*
X017622Y012415D02*
X044412Y012415D01*
X044512Y012357D02*
X006026Y012357D01*
X006085Y012415D02*
X007138Y012415D01*
X007079Y012474D02*
X006143Y012474D01*
X006202Y012532D02*
X007021Y012532D01*
X006962Y012591D02*
X006260Y012591D01*
X006319Y012649D02*
X006904Y012649D01*
X006880Y012708D02*
X006377Y012708D01*
X006436Y012766D02*
X006880Y012766D01*
X006330Y013000D02*
X005920Y013000D01*
X005978Y013059D02*
X006389Y013059D01*
X006447Y013117D02*
X006037Y013117D01*
X006095Y013176D02*
X006506Y013176D01*
X006564Y013234D02*
X006154Y013234D01*
X006212Y013293D02*
X006623Y013293D01*
X006681Y013351D02*
X006271Y013351D01*
X006329Y013410D02*
X006740Y013410D01*
X006798Y013468D02*
X006388Y013468D01*
X006446Y013527D02*
X006857Y013527D01*
X006915Y013585D02*
X006505Y013585D01*
X006563Y013644D02*
X006966Y013644D01*
X006920Y013702D02*
X006622Y013702D01*
X006680Y013761D02*
X006920Y013761D01*
X006920Y013819D02*
X006739Y013819D01*
X006797Y013878D02*
X006920Y013878D01*
X006920Y013936D02*
X006856Y013936D01*
X006914Y013995D02*
X006920Y013995D01*
X007005Y014505D02*
X005350Y012850D01*
X004880Y012850D01*
X004880Y012654D02*
X004856Y012630D01*
X005276Y012357D02*
X005687Y012357D01*
X005745Y012415D02*
X005335Y012415D01*
X005393Y012474D02*
X005804Y012474D01*
X005862Y012532D02*
X005452Y012532D01*
X005510Y012591D02*
X005921Y012591D01*
X005979Y012649D02*
X005569Y012649D01*
X005627Y012708D02*
X006038Y012708D01*
X006096Y012766D02*
X005686Y012766D01*
X005744Y012825D02*
X006155Y012825D01*
X006213Y012883D02*
X005803Y012883D01*
X005861Y012942D02*
X006272Y012942D01*
X005494Y013244D02*
X004880Y013244D01*
X004880Y013047D02*
X004547Y013047D01*
X004505Y013005D01*
X004505Y013380D02*
X004566Y013441D01*
X004880Y013441D01*
X005494Y013244D02*
X006880Y014630D01*
X009630Y014630D01*
X010675Y014755D02*
X011335Y014755D01*
X011394Y014697D02*
X010733Y014697D01*
X008755Y014505D02*
X007005Y014505D01*
X007675Y013293D02*
X008142Y013293D01*
X008084Y013234D02*
X007733Y013234D01*
X007792Y013176D02*
X008025Y013176D01*
X007967Y013117D02*
X007850Y013117D01*
X007880Y013059D02*
X007920Y013059D01*
X007920Y013000D02*
X007880Y013000D01*
X007880Y012942D02*
X007920Y012942D01*
X005628Y012298D02*
X005167Y012298D01*
X005167Y012240D02*
X005570Y012240D01*
X017350Y012415D02*
X017410Y012415D01*
X017410Y012474D02*
X017350Y012474D01*
X017350Y012532D02*
X017410Y012532D01*
X017410Y012591D02*
X017350Y012591D01*
X017350Y012649D02*
X017410Y012649D01*
X017410Y012708D02*
X017350Y012708D01*
X017350Y012766D02*
X017410Y012766D01*
X017410Y012825D02*
X017350Y012825D01*
X017410Y012883D02*
X043612Y012883D01*
X043512Y012942D02*
X017880Y012942D01*
X017880Y013000D02*
X043412Y013000D01*
X043312Y013059D02*
X017880Y013059D01*
X017850Y013117D02*
X043212Y013117D01*
X043113Y013176D02*
X017792Y013176D01*
X017733Y013234D02*
X043013Y013234D01*
X042913Y013293D02*
X017675Y013293D01*
X017616Y013351D02*
X042787Y013351D01*
X043712Y012825D02*
X017880Y012825D01*
X017880Y012766D02*
X043812Y012766D01*
X043912Y012708D02*
X017880Y012708D01*
X006630Y016380D02*
X006250Y016000D01*
X004880Y016000D01*
X004880Y016218D02*
X004880Y016218D01*
X004880Y016276D02*
X004880Y016276D01*
X004880Y016335D02*
X004880Y016335D01*
X005133Y016335D02*
X006415Y016335D01*
X006356Y016276D02*
X005164Y016276D01*
X005167Y016218D02*
X006298Y016218D01*
X006239Y016159D02*
X005167Y016159D01*
X003905Y016686D02*
X003886Y016686D01*
X003886Y016744D02*
X003905Y016744D01*
X005013Y016861D02*
X000485Y016861D01*
X000485Y016803D02*
X008480Y016803D01*
D14*
X006630Y016380D03*
X004505Y015005D03*
X004505Y014630D03*
X004505Y014130D03*
X004505Y013755D03*
X004505Y013380D03*
X004505Y013005D03*
X004505Y012630D03*
M02*
