G75*
%MOIN*%
%OFA0B0*%
%FSLAX24Y24*%
%IPPOS*%
%LPD*%
%AMOC8*
5,1,8,0,0,1.08239X$1,22.5*
%
%ADD10C,0.0493*%
%ADD11R,0.0375X0.0158*%
%ADD12R,0.0375X0.0217*%
%ADD13OC8,0.0800*%
D10*
X002145Y015555D03*
X003129Y015555D03*
D11*
X004880Y015606D03*
X004880Y015410D03*
X004880Y015213D03*
X004880Y015016D03*
X004880Y014819D03*
X004880Y014622D03*
X004880Y014425D03*
X004880Y014228D03*
X004880Y014032D03*
X004880Y013835D03*
X004880Y013638D03*
X004880Y013441D03*
X004880Y013244D03*
X004880Y013047D03*
X004880Y012850D03*
X004880Y012654D03*
X004880Y012457D03*
X004880Y012260D03*
X004880Y012063D03*
X004880Y015803D03*
X004880Y016000D03*
X004880Y016197D03*
D12*
X003896Y011669D03*
X003896Y016591D03*
D13*
X007380Y013880D03*
X008380Y013880D03*
X009380Y013880D03*
X010380Y013880D03*
X011380Y013880D03*
X012380Y013880D03*
X013380Y013880D03*
X014380Y013880D03*
X015380Y013880D03*
X016380Y013880D03*
X017380Y013880D03*
X017380Y012880D03*
X016380Y012880D03*
X015380Y012880D03*
X014380Y012880D03*
X013380Y012880D03*
X012380Y012880D03*
X011380Y012880D03*
X010380Y012880D03*
X009380Y012880D03*
X008380Y012880D03*
X007380Y012880D03*
M02*
