G75*
%MOIN*%
%OFA0B0*%
%FSLAX24Y24*%
%IPPOS*%
%LPD*%
%AMOC8*
5,1,8,0,0,1.08239X$1,22.5*
%
%ADD10C,0.0000*%
D10*
X000140Y000140D02*
X000140Y022140D01*
X059515Y022140D01*
X059515Y000140D01*
X000140Y000140D01*
X006174Y002476D02*
X006454Y002222D01*
X006740Y002033D01*
X007094Y001799D01*
X007493Y001565D01*
X007959Y001345D01*
X008426Y001125D01*
X008960Y000920D01*
X009584Y000745D01*
X010209Y000569D01*
X010925Y000422D01*
X012585Y000217D01*
X013529Y000158D01*
X015505Y000158D01*
X016371Y000255D01*
X017190Y000422D01*
X018009Y000589D01*
X018905Y000796D01*
X020348Y001396D01*
X020832Y001726D01*
X021387Y002077D01*
X021942Y002428D01*
X022413Y002800D01*
X022781Y003168D01*
X023165Y003551D01*
X023485Y003918D01*
X023760Y004284D01*
X024035Y004651D01*
X024264Y005018D01*
X024464Y005402D01*
X024663Y005786D01*
X024834Y006188D01*
X024991Y006624D01*
X025149Y007060D01*
X025294Y007530D01*
X025443Y008052D01*
X025532Y008363D01*
X025650Y008811D01*
X025778Y009308D01*
X025905Y009805D01*
X026042Y010350D01*
X026167Y010857D01*
X026292Y011364D01*
X026407Y011831D01*
X026489Y012172D01*
X026572Y012514D01*
X026624Y012728D01*
X026803Y013285D01*
X027050Y013712D01*
X027320Y014041D01*
X027591Y014370D01*
X027885Y014600D01*
X028438Y014921D01*
X028696Y015012D01*
X028893Y015064D01*
X029091Y015116D01*
X029227Y015128D01*
X029259Y015130D01*
X030042Y015128D01*
X030178Y015116D01*
X030375Y015064D01*
X030572Y015012D01*
X030831Y014921D01*
X031107Y014760D01*
X031383Y014600D01*
X031678Y014370D01*
X031949Y014041D01*
X032219Y013712D01*
X032465Y013285D01*
X032645Y012728D01*
X032696Y012514D01*
X032779Y012172D01*
X032862Y011831D01*
X032976Y011364D01*
X033102Y010857D01*
X033227Y010350D01*
X033364Y009805D01*
X033491Y009308D01*
X033618Y008811D01*
X033737Y008363D01*
X033826Y008052D01*
X033975Y007530D01*
X034120Y007060D01*
X034277Y006624D01*
X034435Y006188D01*
X034605Y005786D01*
X034805Y005402D01*
X035005Y005018D01*
X035234Y004651D01*
X035509Y004284D01*
X035783Y003918D01*
X036104Y003551D01*
X036488Y003168D01*
X036855Y002800D01*
X037326Y002428D01*
X037882Y002077D01*
X038437Y001726D01*
X039077Y001396D01*
X040489Y000827D01*
X041260Y000589D01*
X042898Y000255D01*
X043764Y000158D01*
X045740Y000158D01*
X046684Y000217D01*
X047514Y000320D01*
X048344Y000422D01*
X049059Y000569D01*
X049684Y000745D01*
X050309Y000920D01*
X050843Y001125D01*
X051310Y001345D01*
X051776Y001565D01*
X052175Y001799D01*
X052529Y002033D01*
X052815Y002222D01*
X053095Y002476D01*
X053366Y002780D01*
X053637Y003084D01*
X053898Y003439D01*
X054397Y004217D01*
X054634Y004640D01*
X054856Y005083D01*
X055077Y005526D01*
X055283Y005988D01*
X055655Y006920D01*
X055817Y007454D01*
X055960Y008014D01*
X056103Y008575D01*
X056227Y009162D01*
X056337Y009735D01*
X056448Y010309D01*
X056544Y010868D01*
X056633Y011373D01*
X056722Y011877D01*
X056803Y012327D01*
X056881Y012681D01*
X056959Y013035D01*
X057016Y013388D01*
X057078Y013722D01*
X057139Y014056D01*
X057205Y014372D01*
X057303Y014651D01*
X057401Y014930D01*
X057529Y015173D01*
X057716Y015362D01*
X057902Y015550D01*
X058146Y015685D01*
X058474Y015749D01*
X058634Y016654D01*
X058795Y017560D01*
X058955Y018466D01*
X059115Y019371D01*
X058953Y019445D01*
X058654Y019566D01*
X058355Y019687D01*
X057919Y019855D01*
X057370Y020046D01*
X056821Y020237D01*
X056158Y020450D01*
X055407Y020659D01*
X054656Y020869D01*
X053816Y021075D01*
X052911Y021252D01*
X051906Y021448D01*
X050820Y021613D01*
X049689Y021731D01*
X048557Y021850D01*
X047379Y021922D01*
X046188Y021933D01*
X044997Y021944D01*
X043793Y021894D01*
X042608Y021769D01*
X041424Y021644D01*
X040260Y021444D01*
X039150Y021153D01*
X038732Y021044D01*
X038248Y020913D01*
X037757Y020778D01*
X037266Y020643D01*
X036767Y020504D01*
X036321Y020379D01*
X035875Y020253D01*
X035481Y020141D01*
X035198Y020061D01*
X034916Y019981D01*
X034745Y019932D01*
X034511Y019919D01*
X034145Y019901D01*
X033779Y019882D01*
X033280Y019857D01*
X032751Y019832D01*
X032221Y019807D01*
X031660Y019782D01*
X031170Y019764D01*
X030679Y019745D01*
X030258Y019732D01*
X029259Y019732D01*
X029010Y019732D01*
X028590Y019745D01*
X028099Y019764D01*
X027609Y019782D01*
X027048Y019807D01*
X026518Y019832D01*
X025988Y019857D01*
X025490Y019882D01*
X025124Y019901D01*
X024757Y019919D01*
X024524Y019932D01*
X024353Y019981D01*
X024070Y020061D01*
X023788Y020141D01*
X023394Y020253D01*
X022948Y020379D01*
X022501Y020504D01*
X022003Y020643D01*
X021021Y020913D01*
X020537Y021044D01*
X020119Y021153D01*
X019009Y021444D01*
X017844Y021644D01*
X016660Y021769D01*
X015476Y021894D01*
X014272Y021944D01*
X013081Y021933D01*
X011889Y021922D01*
X010711Y021850D01*
X009580Y021731D01*
X008448Y021613D01*
X007363Y021448D01*
X006358Y021252D01*
X005453Y021075D01*
X004613Y020869D01*
X003862Y020659D01*
X003111Y020450D01*
X002448Y020237D01*
X001899Y020046D01*
X001350Y019855D01*
X000913Y019687D01*
X000614Y019566D01*
X000315Y019445D01*
X000154Y019371D01*
X000314Y018466D01*
X000474Y017560D01*
X000634Y016654D01*
X000794Y015749D01*
X001123Y015685D01*
X001367Y015550D01*
X001739Y015173D01*
X001868Y014930D01*
X001966Y014651D01*
X002063Y014372D01*
X002130Y014056D01*
X002191Y013722D01*
X002253Y013388D01*
X002309Y013035D01*
X002388Y012681D01*
X002466Y012327D01*
X002547Y011877D01*
X002636Y011373D01*
X002724Y010868D01*
X002821Y010309D01*
X002932Y009735D01*
X003042Y009162D01*
X003166Y008575D01*
X003309Y008014D01*
X003451Y007454D01*
X003613Y006920D01*
X003800Y006454D01*
X003986Y005988D01*
X004192Y005526D01*
X004413Y005083D01*
X004634Y004640D01*
X004871Y004217D01*
X005121Y003828D01*
X005370Y003439D01*
X005632Y003084D01*
X005903Y002780D01*
X006174Y002476D01*
X008195Y003864D02*
X008576Y003592D01*
X009019Y003373D01*
X009500Y003198D01*
X009981Y003023D01*
X010499Y002892D01*
X011028Y002796D01*
X011557Y002700D01*
X012265Y002640D01*
X015265Y002640D01*
X015538Y002663D01*
X016004Y002720D01*
X016465Y002802D01*
X016911Y002910D01*
X017356Y003018D01*
X017787Y003152D01*
X018194Y003313D01*
X018601Y003474D01*
X018984Y003663D01*
X019334Y003879D01*
X019685Y004095D01*
X020020Y004329D01*
X020340Y004587D01*
X020660Y004844D01*
X020964Y005124D01*
X021251Y005432D01*
X021539Y005740D01*
X021809Y006076D01*
X022061Y006444D01*
X022314Y006812D01*
X022549Y007213D01*
X022764Y007652D01*
X022870Y007867D01*
X022979Y008167D01*
X023086Y008519D01*
X023194Y008871D01*
X023299Y009275D01*
X023501Y010123D01*
X023596Y010568D01*
X023682Y011000D01*
X023768Y011432D01*
X023844Y011853D01*
X023908Y012229D01*
X023971Y012606D01*
X024008Y012985D01*
X024029Y013342D01*
X024049Y013700D01*
X024052Y014035D01*
X024047Y014323D01*
X024043Y014611D01*
X024030Y014852D01*
X024019Y015020D01*
X024007Y015189D01*
X023997Y015286D01*
X023997Y015370D01*
X023986Y015506D01*
X023974Y015641D01*
X023950Y015828D01*
X023902Y016034D01*
X023855Y016240D01*
X023782Y016465D01*
X023674Y016677D01*
X023565Y016888D01*
X023420Y017087D01*
X023226Y017240D01*
X023006Y017414D01*
X022724Y017571D01*
X022425Y017708D01*
X022126Y017846D01*
X021811Y017964D01*
X021523Y018060D01*
X021235Y018156D01*
X020975Y018231D01*
X020787Y018281D01*
X020599Y018332D01*
X020483Y018358D01*
X020268Y018416D01*
X019897Y018504D01*
X019526Y018591D01*
X018999Y018709D01*
X018373Y018828D01*
X017746Y018947D01*
X017015Y019046D01*
X016265Y019109D01*
X015520Y019227D01*
X014640Y019265D01*
X011640Y019265D01*
X010911Y019247D01*
X010261Y019184D01*
X009709Y019119D01*
X009157Y019053D01*
X008704Y018986D01*
X008389Y018936D01*
X008074Y018885D01*
X007897Y018850D01*
X007735Y018823D01*
X007546Y018773D01*
X007348Y018705D01*
X007150Y018637D01*
X006943Y018552D01*
X006541Y018357D01*
X006347Y018247D01*
X006176Y018130D01*
X006006Y018013D01*
X005858Y017888D01*
X005642Y017635D01*
X005549Y017513D01*
X005468Y017379D01*
X005387Y017245D01*
X005318Y017100D01*
X005260Y016927D01*
X005201Y016753D01*
X005152Y016552D01*
X005069Y016061D01*
X005034Y015771D01*
X005004Y015421D01*
X004970Y015016D01*
X004963Y014515D01*
X004979Y013961D01*
X004996Y013407D01*
X005036Y012800D01*
X005096Y012183D01*
X005156Y011566D01*
X005236Y010938D01*
X005426Y009747D01*
X005537Y009184D01*
X005660Y008695D01*
X005747Y008352D01*
X005854Y007946D01*
X005989Y007514D01*
X006124Y007081D01*
X006287Y006622D01*
X006487Y006172D01*
X006687Y005722D01*
X006924Y005281D01*
X007206Y004885D01*
X007488Y004488D01*
X007815Y004136D01*
X008195Y003864D01*
X035768Y010123D02*
X035673Y010568D01*
X035587Y011000D01*
X035501Y011432D01*
X035425Y011853D01*
X035361Y012229D01*
X035298Y012606D01*
X035261Y012985D01*
X035240Y013342D01*
X035220Y013700D01*
X035217Y014035D01*
X035221Y014323D01*
X035226Y014611D01*
X035239Y014852D01*
X035250Y015020D01*
X035261Y015189D01*
X035272Y015286D01*
X035271Y015370D01*
X035283Y015506D01*
X035295Y015641D01*
X035318Y015828D01*
X035366Y016034D01*
X035414Y016240D01*
X035486Y016465D01*
X035595Y016677D01*
X035703Y016888D01*
X035849Y017087D01*
X036042Y017240D01*
X036263Y017414D01*
X036545Y017571D01*
X036844Y017708D01*
X037142Y017846D01*
X037458Y017964D01*
X038033Y018156D01*
X038293Y018231D01*
X038482Y018281D01*
X038670Y018332D01*
X038786Y018358D01*
X039001Y018416D01*
X039371Y018504D01*
X039742Y018591D01*
X040270Y018709D01*
X040896Y018828D01*
X041522Y018947D01*
X042248Y019068D01*
X043014Y019163D01*
X043780Y019258D01*
X044587Y019327D01*
X045377Y019342D01*
X046167Y019357D01*
X046937Y019334D01*
X047647Y019291D01*
X048358Y019247D01*
X049008Y019184D01*
X049560Y019119D01*
X050112Y019053D01*
X050565Y018986D01*
X050879Y018936D01*
X051194Y018885D01*
X051372Y018850D01*
X051534Y018823D01*
X051722Y018773D01*
X051920Y018705D01*
X052118Y018637D01*
X052326Y018552D01*
X052728Y018357D01*
X052922Y018247D01*
X053092Y018130D01*
X053263Y018013D01*
X053411Y017888D01*
X053627Y017635D01*
X053720Y017513D01*
X053801Y017379D01*
X053882Y017245D01*
X053950Y017100D01*
X054009Y016927D01*
X054068Y016753D01*
X054117Y016552D01*
X054159Y016306D01*
X054200Y016061D01*
X054235Y015771D01*
X054264Y015421D01*
X054299Y015016D01*
X054306Y014515D01*
X054289Y013961D01*
X054273Y013407D01*
X054233Y012800D01*
X054173Y012183D01*
X054113Y011566D01*
X054033Y010938D01*
X053938Y010342D01*
X053843Y009747D01*
X053731Y009184D01*
X053608Y008695D01*
X053522Y008352D01*
X053415Y007946D01*
X053280Y007514D01*
X053145Y007081D01*
X052982Y006622D01*
X052781Y006172D01*
X052581Y005722D01*
X052344Y005281D01*
X052062Y004885D01*
X051781Y004488D01*
X051454Y004136D01*
X051073Y003864D01*
X050693Y003592D01*
X050250Y003373D01*
X049769Y003198D01*
X049288Y003023D01*
X048770Y002892D01*
X048241Y002796D01*
X047712Y002700D01*
X047171Y002639D01*
X046646Y002604D01*
X046120Y002569D01*
X045610Y002559D01*
X045140Y002567D01*
X044670Y002574D01*
X044198Y002606D01*
X043731Y002663D01*
X043264Y002720D01*
X042804Y002802D01*
X042358Y002910D01*
X041913Y003018D01*
X041482Y003152D01*
X041075Y003313D01*
X040668Y003474D01*
X040285Y003663D01*
X039934Y003879D01*
X039584Y004095D01*
X039248Y004329D01*
X038928Y004587D01*
X038609Y004844D01*
X038305Y005124D01*
X038017Y005432D01*
X037730Y005740D01*
X037460Y006076D01*
X037207Y006444D01*
X036955Y006812D01*
X036720Y007213D01*
X036505Y007652D01*
X036399Y007867D01*
X036290Y008167D01*
X036183Y008519D01*
X036075Y008871D01*
X035969Y009275D01*
X035768Y010123D01*
X055474Y017809D02*
X055476Y017838D01*
X055482Y017866D01*
X055491Y017894D01*
X055504Y017920D01*
X055521Y017943D01*
X055540Y017965D01*
X055562Y017984D01*
X055587Y017999D01*
X055613Y018012D01*
X055641Y018020D01*
X055669Y018025D01*
X055698Y018026D01*
X055727Y018023D01*
X055755Y018016D01*
X055782Y018006D01*
X055808Y017992D01*
X055831Y017975D01*
X055852Y017955D01*
X055870Y017932D01*
X055885Y017907D01*
X055896Y017880D01*
X055904Y017852D01*
X055908Y017823D01*
X055908Y017795D01*
X055904Y017766D01*
X055896Y017738D01*
X055885Y017711D01*
X055870Y017686D01*
X055852Y017663D01*
X055831Y017643D01*
X055808Y017626D01*
X055782Y017612D01*
X055755Y017602D01*
X055727Y017595D01*
X055698Y017592D01*
X055669Y017593D01*
X055641Y017598D01*
X055613Y017606D01*
X055587Y017619D01*
X055562Y017634D01*
X055540Y017653D01*
X055521Y017675D01*
X055504Y017698D01*
X055491Y017724D01*
X055482Y017752D01*
X055476Y017780D01*
X055474Y017809D01*
X056458Y017809D02*
X056460Y017838D01*
X056466Y017866D01*
X056475Y017894D01*
X056488Y017920D01*
X056505Y017943D01*
X056524Y017965D01*
X056546Y017984D01*
X056571Y017999D01*
X056597Y018012D01*
X056625Y018020D01*
X056653Y018025D01*
X056682Y018026D01*
X056711Y018023D01*
X056739Y018016D01*
X056766Y018006D01*
X056792Y017992D01*
X056815Y017975D01*
X056836Y017955D01*
X056854Y017932D01*
X056869Y017907D01*
X056880Y017880D01*
X056888Y017852D01*
X056892Y017823D01*
X056892Y017795D01*
X056888Y017766D01*
X056880Y017738D01*
X056869Y017711D01*
X056854Y017686D01*
X056836Y017663D01*
X056815Y017643D01*
X056792Y017626D01*
X056766Y017612D01*
X056739Y017602D01*
X056711Y017595D01*
X056682Y017592D01*
X056653Y017593D01*
X056625Y017598D01*
X056597Y017606D01*
X056571Y017619D01*
X056546Y017634D01*
X056524Y017653D01*
X056505Y017675D01*
X056488Y017698D01*
X056475Y017724D01*
X056466Y017752D01*
X056460Y017780D01*
X056458Y017809D01*
X003388Y017809D02*
X003390Y017838D01*
X003396Y017866D01*
X003405Y017894D01*
X003418Y017920D01*
X003435Y017943D01*
X003454Y017965D01*
X003476Y017984D01*
X003501Y017999D01*
X003527Y018012D01*
X003555Y018020D01*
X003583Y018025D01*
X003612Y018026D01*
X003641Y018023D01*
X003669Y018016D01*
X003696Y018006D01*
X003722Y017992D01*
X003745Y017975D01*
X003766Y017955D01*
X003784Y017932D01*
X003799Y017907D01*
X003810Y017880D01*
X003818Y017852D01*
X003822Y017823D01*
X003822Y017795D01*
X003818Y017766D01*
X003810Y017738D01*
X003799Y017711D01*
X003784Y017686D01*
X003766Y017663D01*
X003745Y017643D01*
X003722Y017626D01*
X003696Y017612D01*
X003669Y017602D01*
X003641Y017595D01*
X003612Y017592D01*
X003583Y017593D01*
X003555Y017598D01*
X003527Y017606D01*
X003501Y017619D01*
X003476Y017634D01*
X003454Y017653D01*
X003435Y017675D01*
X003418Y017698D01*
X003405Y017724D01*
X003396Y017752D01*
X003390Y017780D01*
X003388Y017809D01*
X002403Y017809D02*
X002405Y017838D01*
X002411Y017866D01*
X002420Y017894D01*
X002433Y017920D01*
X002450Y017943D01*
X002469Y017965D01*
X002491Y017984D01*
X002516Y017999D01*
X002542Y018012D01*
X002570Y018020D01*
X002598Y018025D01*
X002627Y018026D01*
X002656Y018023D01*
X002684Y018016D01*
X002711Y018006D01*
X002737Y017992D01*
X002760Y017975D01*
X002781Y017955D01*
X002799Y017932D01*
X002814Y017907D01*
X002825Y017880D01*
X002833Y017852D01*
X002837Y017823D01*
X002837Y017795D01*
X002833Y017766D01*
X002825Y017738D01*
X002814Y017711D01*
X002799Y017686D01*
X002781Y017663D01*
X002760Y017643D01*
X002737Y017626D01*
X002711Y017612D01*
X002684Y017602D01*
X002656Y017595D01*
X002627Y017592D01*
X002598Y017593D01*
X002570Y017598D01*
X002542Y017606D01*
X002516Y017619D01*
X002491Y017634D01*
X002469Y017653D01*
X002450Y017675D01*
X002433Y017698D01*
X002420Y017724D01*
X002411Y017752D01*
X002405Y017780D01*
X002403Y017809D01*
M02*
