G75*
%MOIN*%
%OFA0B0*%
%FSLAX24Y24*%
%IPPOS*%
%LPD*%
%AMOC8*
5,1,8,0,0,1.08239X$1,22.5*
%
%ADD10C,0.0740*%
%ADD11R,0.0394X0.0276*%
%ADD12R,0.0215X0.0211*%
%ADD13C,0.0080*%
%ADD14C,0.0060*%
%ADD15C,0.0260*%
%ADD16C,0.0240*%
D10*
X010265Y001890D03*
X011265Y001890D03*
X012265Y001890D03*
X013265Y001890D03*
X014265Y001890D03*
X015265Y001890D03*
X016265Y001890D03*
X017265Y001890D03*
X018265Y001890D03*
X003265Y013390D03*
X003265Y014390D03*
X009515Y020015D03*
X010515Y020015D03*
X011515Y020015D03*
X012515Y020015D03*
X013515Y020015D03*
X014515Y020015D03*
X015515Y020015D03*
X016515Y020015D03*
X017515Y020015D03*
X025515Y018890D03*
X026515Y018890D03*
X027515Y018890D03*
X028515Y018890D03*
X029515Y018890D03*
X030515Y018890D03*
X031515Y018890D03*
X032515Y018890D03*
X033515Y018890D03*
D11*
X024265Y011646D03*
X024265Y011134D03*
X004515Y011509D03*
X004515Y012021D03*
D12*
X004765Y011060D03*
X004765Y010720D03*
X024140Y010685D03*
X024140Y010345D03*
D13*
X006345Y002645D02*
X006090Y002931D01*
X005819Y003236D01*
X005568Y003575D01*
X005349Y003917D01*
X005349Y003917D01*
X005323Y003956D01*
X005297Y003997D01*
X005297Y003997D01*
X005077Y004340D01*
X004847Y004753D01*
X004649Y005148D01*
X004628Y005189D01*
X004606Y005233D01*
X004409Y005629D01*
X004207Y006082D01*
X004021Y006547D01*
X003840Y007000D01*
X003683Y007518D01*
X003553Y008027D01*
X003553Y008027D01*
X003542Y008072D01*
X003529Y008120D01*
X003400Y008629D01*
X003277Y009209D01*
X003158Y009828D01*
X003057Y010352D01*
X002969Y010862D01*
X002969Y010863D01*
X002961Y010909D01*
X002953Y010956D01*
X002953Y010956D01*
X002873Y011411D01*
X002791Y011872D01*
X002791Y011872D01*
X002783Y011919D01*
X002775Y011966D01*
X002710Y012327D01*
X002711Y012332D01*
X002701Y012374D01*
X002694Y012416D01*
X002691Y012420D01*
X002625Y012720D01*
X002545Y013080D01*
X002497Y013382D01*
X002497Y013385D01*
X002489Y013429D01*
X002482Y013473D01*
X002481Y013476D01*
X002436Y013719D01*
X002433Y013736D01*
X002419Y013813D01*
X002419Y013813D01*
X002374Y014056D01*
X002374Y014059D01*
X002365Y014103D01*
X002357Y014147D01*
X002355Y014149D01*
X002305Y014390D01*
X002306Y014406D01*
X002295Y014436D01*
X002288Y014468D01*
X002279Y014481D01*
X002208Y014685D01*
X002208Y014685D01*
X002104Y014982D01*
X002103Y015000D01*
X002089Y015026D01*
X002079Y015054D01*
X002067Y015068D01*
X001957Y015274D01*
X001944Y015307D01*
X001935Y015316D01*
X001929Y015327D01*
X001902Y015350D01*
X001546Y015710D01*
X001524Y015737D01*
X001513Y015744D01*
X001504Y015753D01*
X001472Y015767D01*
X001247Y015891D01*
X001215Y015912D01*
X001205Y015914D01*
X001197Y015918D01*
X001159Y015923D01*
X001002Y015953D01*
X000870Y016701D01*
X000711Y017600D01*
X000559Y018461D01*
X000549Y018515D01*
X000542Y018555D01*
X000423Y019229D01*
X000660Y019325D01*
X000660Y019325D01*
X000703Y019343D01*
X000749Y019361D01*
X001002Y019464D01*
X001432Y019630D01*
X001933Y019804D01*
X001982Y019821D01*
X002023Y019835D01*
X002524Y020009D01*
X003180Y020220D01*
X003880Y020415D01*
X004674Y020637D01*
X005505Y020840D01*
X006403Y021016D01*
X007404Y021212D01*
X008479Y021375D01*
X009613Y021493D01*
X010731Y021610D01*
X011898Y021682D01*
X013131Y021693D01*
X014268Y021704D01*
X015459Y021655D01*
X016622Y021532D01*
X017811Y021406D01*
X018958Y021209D01*
X020012Y020933D01*
X020012Y020933D01*
X020061Y020920D01*
X020105Y020909D01*
X020475Y020812D01*
X020958Y020682D01*
X021939Y020412D01*
X022437Y020273D01*
X022929Y020135D01*
X023328Y020022D01*
X023721Y019911D01*
X023959Y019843D01*
X023999Y019832D01*
X024051Y019817D01*
X024287Y019750D01*
X024438Y019706D01*
X024463Y019694D01*
X024484Y019693D01*
X024503Y019688D01*
X024531Y019691D01*
X024697Y019682D01*
X024698Y019682D01*
X024745Y019679D01*
X024792Y019677D01*
X024793Y019677D01*
X025110Y019661D01*
X025430Y019645D01*
X025430Y019645D01*
X025478Y019642D01*
X025525Y019640D01*
X025525Y019640D01*
X025929Y019620D01*
X025929Y019620D01*
X025977Y019617D01*
X026024Y019615D01*
X026024Y019615D01*
X026459Y019595D01*
X026459Y019595D01*
X026989Y019570D01*
X026989Y019570D01*
X027037Y019568D01*
X027084Y019565D01*
X027084Y019566D01*
X027551Y019545D01*
X027552Y019544D01*
X027599Y019543D01*
X027646Y019541D01*
X028042Y019526D01*
X028042Y019526D01*
X028194Y019520D01*
X024586Y019520D01*
X024554Y019488D01*
X024548Y019495D01*
X024357Y019495D01*
X024257Y019395D01*
X023819Y019395D01*
X023194Y020020D01*
X021210Y020020D01*
X021110Y020120D01*
X020920Y020120D01*
X020785Y019985D01*
X020785Y019795D01*
X020920Y019660D01*
X021110Y019660D01*
X021210Y019760D01*
X023086Y019760D01*
X023635Y019211D01*
X023711Y019135D01*
X024257Y019135D01*
X024357Y019035D01*
X024548Y019035D01*
X024682Y019170D01*
X024682Y019249D01*
X024694Y019260D01*
X025220Y019260D01*
X025117Y019156D01*
X025045Y018983D01*
X025045Y018797D01*
X025117Y018624D01*
X025249Y018492D01*
X025422Y018420D01*
X025608Y018420D01*
X025781Y018492D01*
X025880Y018591D01*
X026760Y017711D01*
X026836Y017635D01*
X027320Y017635D01*
X027420Y017535D01*
X027610Y017535D01*
X027745Y017670D01*
X027745Y017860D01*
X027610Y017995D01*
X027420Y017995D01*
X027320Y017895D01*
X026944Y017895D01*
X026417Y018422D01*
X026422Y018420D01*
X026608Y018420D01*
X026781Y018492D01*
X026913Y018624D01*
X026985Y018797D01*
X026985Y018983D01*
X026913Y019156D01*
X026810Y019260D01*
X027220Y019260D01*
X027117Y019156D01*
X027045Y018983D01*
X027045Y018797D01*
X027117Y018624D01*
X027249Y018492D01*
X027422Y018420D01*
X027608Y018420D01*
X027781Y018492D01*
X027913Y018624D01*
X027985Y018797D01*
X027985Y018983D01*
X027913Y019156D01*
X027810Y019260D01*
X028220Y019260D01*
X028117Y019156D01*
X028045Y018983D01*
X028045Y018797D01*
X028117Y018624D01*
X028249Y018492D01*
X028422Y018420D01*
X028608Y018420D01*
X028781Y018492D01*
X028913Y018624D01*
X028985Y018797D01*
X028985Y018983D01*
X028913Y019156D01*
X028810Y019260D01*
X029220Y019260D01*
X029117Y019156D01*
X029045Y018983D01*
X029045Y018797D01*
X029117Y018624D01*
X029249Y018492D01*
X029422Y018420D01*
X029608Y018420D01*
X029781Y018492D01*
X029913Y018624D01*
X029985Y018797D01*
X029985Y018983D01*
X029913Y019156D01*
X029810Y019260D01*
X030220Y019260D01*
X030117Y019156D01*
X030045Y018983D01*
X030045Y018797D01*
X030117Y018624D01*
X030249Y018492D01*
X030422Y018420D01*
X030608Y018420D01*
X030781Y018492D01*
X030913Y018624D01*
X030985Y018797D01*
X030985Y018983D01*
X030913Y019156D01*
X030810Y019260D01*
X031220Y019260D01*
X031117Y019156D01*
X031045Y018983D01*
X031045Y018797D01*
X031117Y018624D01*
X031249Y018492D01*
X031422Y018420D01*
X031608Y018420D01*
X031781Y018492D01*
X031913Y018624D01*
X031985Y018797D01*
X031985Y018983D01*
X031913Y019156D01*
X031810Y019260D01*
X031961Y019260D01*
X032101Y019120D01*
X032045Y018983D01*
X032045Y018797D01*
X032117Y018624D01*
X032249Y018492D01*
X032385Y018435D01*
X032385Y017710D01*
X032285Y017610D01*
X032285Y017420D01*
X032420Y017285D01*
X032610Y017285D01*
X032745Y017420D01*
X032745Y017610D01*
X032645Y017710D01*
X032645Y018435D01*
X032781Y018492D01*
X032913Y018624D01*
X032985Y018797D01*
X032985Y018983D01*
X032913Y019156D01*
X032781Y019288D01*
X032608Y019360D01*
X032422Y019360D01*
X032285Y019304D01*
X032069Y019520D01*
X031075Y019520D01*
X031226Y019526D01*
X031622Y019541D01*
X031623Y019541D01*
X031670Y019543D01*
X031717Y019544D01*
X031718Y019545D01*
X032184Y019566D01*
X032185Y019565D01*
X032232Y019568D01*
X032279Y019570D01*
X032280Y019570D01*
X032810Y019595D01*
X033244Y019615D01*
X033245Y019615D01*
X033292Y019617D01*
X033339Y019620D01*
X033340Y019620D01*
X033743Y019640D01*
X033744Y019640D01*
X033790Y019642D01*
X033839Y019645D01*
X034159Y019661D01*
X034476Y019677D01*
X034476Y019677D01*
X034524Y019679D01*
X034571Y019682D01*
X034571Y019682D01*
X034738Y019691D01*
X034765Y019688D01*
X034785Y019693D01*
X034805Y019694D01*
X034831Y019706D01*
X034982Y019750D01*
X035218Y019817D01*
X035218Y019817D01*
X035264Y019830D01*
X035310Y019843D01*
X035310Y019843D01*
X035548Y019911D01*
X035940Y020022D01*
X036340Y020135D01*
X036340Y020135D01*
X036832Y020273D01*
X037330Y020412D01*
X037775Y020534D01*
X038311Y020682D01*
X038794Y020812D01*
X039164Y020909D01*
X039164Y020909D01*
X039207Y020920D01*
X039256Y020933D01*
X039256Y020933D01*
X040311Y021209D01*
X041457Y021406D01*
X042653Y021533D01*
X043810Y021655D01*
X045001Y021704D01*
X046234Y021692D01*
X047371Y021682D01*
X048538Y021610D01*
X049656Y021493D01*
X050790Y021375D01*
X051865Y021212D01*
X052835Y021022D01*
X053764Y020840D01*
X054595Y020637D01*
X055339Y020429D01*
X056089Y020220D01*
X056744Y020009D01*
X057246Y019835D01*
X057290Y019820D01*
X057336Y019804D01*
X057336Y019804D01*
X057836Y019630D01*
X058267Y019464D01*
X058608Y019325D01*
X058608Y019325D01*
X058846Y019229D01*
X058727Y018555D01*
X058727Y018555D01*
X058724Y018541D01*
X058710Y018461D01*
X058710Y018461D01*
X058566Y017649D01*
X058558Y017602D01*
X058550Y017555D01*
X058550Y017555D01*
X058398Y016695D01*
X058267Y015953D01*
X058110Y015923D01*
X058072Y015918D01*
X058063Y015914D01*
X058054Y015912D01*
X058022Y015891D01*
X057797Y015766D01*
X057765Y015753D01*
X057756Y015744D01*
X057744Y015737D01*
X057722Y015710D01*
X057544Y015529D01*
X057367Y015350D01*
X057340Y015327D01*
X057334Y015316D01*
X057325Y015307D01*
X057312Y015274D01*
X057202Y015068D01*
X057190Y015054D01*
X057180Y015026D01*
X057166Y015000D01*
X057164Y014982D01*
X057077Y014732D01*
X056989Y014481D01*
X056980Y014468D01*
X056974Y014436D01*
X056963Y014406D01*
X056964Y014390D01*
X056913Y014149D01*
X056912Y014147D01*
X056904Y014103D01*
X056894Y014059D01*
X056895Y014056D01*
X056842Y013766D01*
X056788Y013476D01*
X056787Y013473D01*
X056780Y013429D01*
X056771Y013385D01*
X056772Y013382D01*
X056724Y013080D01*
X056657Y012779D01*
X056647Y012732D01*
X056636Y012686D01*
X056578Y012420D01*
X056575Y012416D01*
X056567Y012374D01*
X056558Y012332D01*
X056559Y012327D01*
X056494Y011966D01*
X056494Y011966D01*
X056486Y011919D01*
X056477Y011872D01*
X056405Y011461D01*
X056395Y011405D01*
X056389Y011367D01*
X056316Y010956D01*
X056308Y010909D01*
X056300Y010863D01*
X056300Y010862D01*
X056211Y010352D01*
X056093Y009734D01*
X056093Y009734D01*
X056020Y009357D01*
X056020Y011711D01*
X056395Y012086D01*
X056395Y014820D01*
X056495Y014920D01*
X056495Y015110D01*
X056360Y015245D01*
X056170Y015245D01*
X056120Y015195D01*
X056120Y015298D01*
X056020Y015398D01*
X056020Y016320D01*
X056120Y016420D01*
X056120Y016610D01*
X055985Y016745D01*
X055870Y016745D01*
X055870Y016860D01*
X055735Y016995D01*
X055545Y016995D01*
X055410Y016860D01*
X055410Y016670D01*
X055510Y016570D01*
X055510Y015148D01*
X055410Y015048D01*
X055410Y014857D01*
X055545Y014723D01*
X055735Y014723D01*
X055870Y014857D01*
X055870Y014973D01*
X055985Y014973D01*
X056035Y015022D01*
X056035Y014920D01*
X056085Y014870D01*
X055920Y014870D01*
X055785Y014735D01*
X055785Y014545D01*
X055920Y014410D01*
X056010Y014410D01*
X056010Y014345D01*
X055985Y014370D01*
X055795Y014370D01*
X055660Y014235D01*
X055660Y014045D01*
X055795Y013910D01*
X055885Y013910D01*
X055885Y013845D01*
X055860Y013870D01*
X055670Y013870D01*
X055535Y013735D01*
X055535Y013679D01*
X054895Y014319D01*
X054895Y016935D01*
X054920Y016910D01*
X055110Y016910D01*
X055245Y017045D01*
X055245Y017235D01*
X055145Y017335D01*
X055145Y018945D01*
X055245Y019045D01*
X055245Y019235D01*
X055110Y019370D01*
X054920Y019370D01*
X054785Y019235D01*
X054785Y019045D01*
X054885Y018945D01*
X054885Y017335D01*
X054882Y017332D01*
X054819Y017395D01*
X052395Y019819D01*
X052319Y019895D01*
X035711Y019895D01*
X035635Y019819D01*
X034510Y018694D01*
X034510Y017585D01*
X034410Y017485D01*
X034410Y017295D01*
X034545Y017160D01*
X034735Y017160D01*
X034870Y017295D01*
X034870Y017485D01*
X034770Y017585D01*
X034770Y018586D01*
X034910Y018726D01*
X034910Y018670D01*
X035010Y018570D01*
X035010Y017585D01*
X034910Y017485D01*
X034910Y017295D01*
X035045Y017160D01*
X035235Y017160D01*
X035370Y017295D01*
X035370Y017485D01*
X035270Y017585D01*
X035270Y018570D01*
X035370Y018670D01*
X035370Y018860D01*
X035235Y018995D01*
X035179Y018995D01*
X035535Y019351D01*
X035535Y019295D01*
X035670Y019160D01*
X035860Y019160D01*
X035995Y019295D01*
X035995Y019436D01*
X036069Y019510D01*
X043904Y019510D01*
X043802Y019501D01*
X043798Y019503D01*
X043755Y019497D01*
X043712Y019494D01*
X043708Y019491D01*
X042985Y019402D01*
X042260Y019312D01*
X042255Y019313D01*
X042213Y019306D01*
X042171Y019301D01*
X042166Y019298D01*
X041527Y019191D01*
X041524Y019192D01*
X041480Y019183D01*
X041436Y019176D01*
X041433Y019175D01*
X040898Y019073D01*
X040857Y019065D01*
X040804Y019055D01*
X040268Y018953D01*
X040264Y018953D01*
X040221Y018944D01*
X040178Y018935D01*
X040175Y018933D01*
X039735Y018835D01*
X039734Y018836D01*
X039689Y018825D01*
X039644Y018815D01*
X039642Y018814D01*
X039363Y018748D01*
X039363Y018748D01*
X039337Y018742D01*
X039270Y018726D01*
X039270Y018726D01*
X038988Y018660D01*
X038984Y018660D01*
X038942Y018649D01*
X038899Y018639D01*
X038896Y018636D01*
X038728Y018591D01*
X038659Y018575D01*
X038654Y018576D01*
X038612Y018565D01*
X038570Y018555D01*
X038566Y018552D01*
X038466Y018526D01*
X038466Y018526D01*
X038422Y018514D01*
X038373Y018501D01*
X038275Y018475D01*
X038273Y018475D01*
X038229Y018462D01*
X038185Y018450D01*
X038183Y018449D01*
X038008Y018399D01*
X038002Y018399D01*
X037962Y018386D01*
X037921Y018374D01*
X037917Y018371D01*
X037423Y018205D01*
X037418Y018205D01*
X037378Y018190D01*
X037336Y018176D01*
X037333Y018173D01*
X037094Y018084D01*
X037085Y018084D01*
X037050Y018068D01*
X037014Y018054D01*
X037007Y018048D01*
X036787Y017946D01*
X036787Y017946D01*
X036742Y017926D01*
X036700Y017906D01*
X036480Y017805D01*
X036470Y017804D01*
X036436Y017785D01*
X036401Y017769D01*
X036395Y017762D01*
X036171Y017637D01*
X036152Y017632D01*
X036130Y017614D01*
X036105Y017600D01*
X036093Y017585D01*
X035893Y017427D01*
X035711Y017284D01*
X035683Y017267D01*
X035674Y017255D01*
X035662Y017246D01*
X035646Y017217D01*
X035526Y017053D01*
X035512Y017040D01*
X035499Y017015D01*
X035482Y016991D01*
X035477Y016973D01*
X035381Y016786D01*
X035285Y016599D01*
X035272Y016583D01*
X035264Y016557D01*
X035251Y016532D01*
X035249Y016512D01*
X035197Y016349D01*
X035191Y016341D01*
X035183Y016304D01*
X035171Y016267D01*
X035172Y016257D01*
X035143Y016135D01*
X035124Y016051D01*
X035122Y016042D01*
X035122Y016042D01*
X035093Y015916D01*
X035086Y015905D01*
X035082Y015870D01*
X035074Y015836D01*
X035076Y015823D01*
X035062Y015714D01*
X035060Y015709D01*
X035056Y015666D01*
X035051Y015624D01*
X035052Y015619D01*
X035040Y015482D01*
X035035Y015427D01*
X035031Y015417D01*
X035031Y015380D01*
X035028Y015343D01*
X035032Y015333D01*
X035032Y015299D01*
X035027Y015257D01*
X035025Y015253D01*
X035022Y015210D01*
X035018Y015167D01*
X035019Y015163D01*
X035014Y015084D01*
X035011Y015036D01*
X035007Y014989D01*
X035007Y014989D01*
X035002Y014913D01*
X035001Y014912D01*
X034999Y014866D01*
X034996Y014820D01*
X034997Y014818D01*
X034989Y014666D01*
X034987Y014662D01*
X034986Y014619D01*
X034984Y014576D01*
X034985Y014571D01*
X034981Y014329D01*
X034977Y014083D01*
X034976Y014080D01*
X034977Y014036D01*
X034976Y013991D01*
X034977Y013988D01*
X034980Y013739D01*
X034978Y013734D01*
X034980Y013692D01*
X034980Y013650D01*
X034983Y013644D01*
X034998Y013377D01*
X035018Y013014D01*
X034564Y013014D01*
X034585Y012936D02*
X035023Y012936D01*
X035024Y012924D02*
X035026Y012919D01*
X035055Y012622D01*
X034667Y012622D01*
X034647Y012700D02*
X035047Y012700D01*
X035055Y012622D02*
X035053Y012613D01*
X035060Y012574D01*
X035064Y012535D01*
X035068Y012527D01*
X035132Y012143D01*
X035132Y012143D01*
X035180Y011859D01*
X035180Y011857D01*
X035188Y011811D01*
X035196Y011766D01*
X035197Y011765D01*
X035257Y011434D01*
X035256Y011433D01*
X035265Y011388D01*
X035274Y011342D01*
X035275Y011341D01*
X035342Y011000D01*
X035429Y010566D01*
X035428Y010564D01*
X035438Y010519D01*
X035447Y010474D01*
X035448Y010473D01*
X035524Y010117D01*
X035524Y010114D01*
X035534Y010071D01*
X035544Y010026D01*
X035545Y010024D01*
X035726Y009263D01*
X035725Y009260D01*
X035737Y009217D01*
X035747Y009173D01*
X035749Y009171D01*
X035832Y008851D01*
X035832Y008847D01*
X035844Y008805D01*
X035855Y008764D01*
X035858Y008760D01*
X035954Y008447D01*
X036048Y008137D01*
X036048Y008130D01*
X036062Y008091D01*
X036074Y008051D01*
X036078Y008046D01*
X036161Y007818D01*
X036162Y007804D01*
X036177Y007773D01*
X036189Y007741D01*
X036198Y007731D01*
X036290Y007545D01*
X036488Y007142D01*
X036489Y007133D01*
X036509Y007100D01*
X036526Y007065D01*
X036533Y007059D01*
X036728Y006725D01*
X036730Y006716D01*
X036752Y006684D01*
X036772Y006650D01*
X036779Y006645D01*
X037018Y006296D01*
X037240Y005972D01*
X037243Y005963D01*
X037267Y005933D01*
X037289Y005901D01*
X037297Y005896D01*
X037519Y005620D01*
X037522Y005611D01*
X037549Y005583D01*
X037573Y005552D01*
X037581Y005548D01*
X037874Y005234D01*
X037874Y005234D01*
X038103Y004989D01*
X038107Y004980D01*
X038135Y004954D01*
X038162Y004926D01*
X038170Y004922D01*
X038417Y004694D01*
X038421Y004687D01*
X038452Y004662D01*
X038481Y004635D01*
X038489Y004632D01*
X038779Y004399D01*
X039067Y004167D01*
X039072Y004160D01*
X039104Y004137D01*
X039135Y004113D01*
X039143Y004110D01*
X039413Y003922D01*
X039417Y003916D01*
X039452Y003894D01*
X039486Y003871D01*
X039493Y003869D01*
X039768Y003700D01*
X039768Y003700D01*
X040128Y003477D01*
X040136Y003468D01*
X040169Y003452D01*
X040199Y003433D01*
X040211Y003431D01*
X040528Y003276D01*
X040535Y003269D01*
X040571Y003255D01*
X040605Y003238D01*
X040615Y003237D01*
X040942Y003108D01*
X040942Y003108D01*
X040983Y003091D01*
X041031Y003072D01*
X041358Y002943D01*
X041365Y002937D01*
X041402Y002926D01*
X041438Y002911D01*
X041447Y002911D01*
X041803Y002800D01*
X041810Y002796D01*
X041849Y002786D01*
X041887Y002774D01*
X041895Y002775D01*
X042255Y002688D01*
X042255Y002688D01*
X042708Y002578D01*
X042715Y002574D01*
X042754Y002567D01*
X042794Y002557D01*
X042801Y002558D01*
X043182Y002490D01*
X043188Y002487D01*
X043229Y002482D01*
X043269Y002475D01*
X043276Y002476D01*
X043730Y002421D01*
X044128Y002373D01*
X044134Y002370D01*
X044175Y002367D01*
X044216Y002362D01*
X044222Y002364D01*
X044613Y002337D01*
X044619Y002335D01*
X044660Y002334D01*
X044702Y002331D01*
X044708Y002333D01*
X045184Y002326D01*
X045562Y002320D01*
X045566Y002318D01*
X045610Y002319D01*
X045654Y002318D01*
X045658Y002320D01*
X046083Y002328D01*
X046089Y002326D01*
X046131Y002329D01*
X046172Y002329D01*
X046178Y002332D01*
X046614Y002361D01*
X046614Y002361D01*
X046658Y002364D01*
X046709Y002367D01*
X046709Y002367D01*
X047145Y002397D01*
X047151Y002395D01*
X047193Y002400D01*
X047235Y002403D01*
X047240Y002405D01*
X047699Y002457D01*
X047708Y002455D01*
X047747Y002462D01*
X047786Y002467D01*
X047793Y002471D01*
X048266Y002557D01*
X048774Y002649D01*
X048783Y002648D01*
X048821Y002657D01*
X048860Y002664D01*
X048867Y002669D01*
X049313Y002782D01*
X049325Y002781D01*
X049359Y002793D01*
X049393Y002802D01*
X049403Y002809D01*
X050500Y002809D01*
X050422Y002731D02*
X049111Y002731D01*
X049403Y002809D02*
X049806Y002956D01*
X049806Y002956D01*
X049841Y002969D01*
X049896Y002989D01*
X050300Y003136D01*
X050313Y003137D01*
X050344Y003152D01*
X050377Y003164D01*
X050387Y003173D01*
X050774Y003364D01*
X050794Y003369D01*
X050817Y003385D01*
X050842Y003398D01*
X050855Y003413D01*
X051174Y003641D01*
X051174Y003641D01*
X051217Y003671D01*
X051252Y003697D01*
X051575Y003928D01*
X051597Y003938D01*
X051613Y003955D01*
X051632Y003969D01*
X051645Y003990D01*
X051935Y004302D01*
X051949Y004310D01*
X051967Y004336D01*
X051989Y004360D01*
X051995Y004375D01*
X052230Y004707D01*
X052230Y004707D01*
X052259Y004747D01*
X052286Y004785D01*
X052521Y005116D01*
X052533Y005126D01*
X052549Y005155D01*
X052568Y005181D01*
X052571Y005196D01*
X052774Y005575D01*
X052781Y005581D01*
X052797Y005617D01*
X052815Y005651D01*
X052816Y005660D01*
X053020Y006118D01*
X053020Y006118D01*
X053185Y006490D01*
X053192Y006497D01*
X053205Y006533D01*
X053220Y006568D01*
X053220Y006578D01*
X053357Y006960D01*
X053360Y006964D01*
X053373Y007005D01*
X053387Y007046D01*
X053387Y007051D01*
X053523Y007488D01*
X053632Y007834D01*
X053635Y007839D01*
X053646Y007880D01*
X053658Y007920D01*
X053658Y007926D01*
X053742Y008246D01*
X053743Y008247D01*
X053754Y008292D01*
X053766Y008337D01*
X053766Y008338D01*
X053841Y008635D01*
X053954Y009085D01*
X053958Y009090D01*
X053966Y009131D01*
X053976Y009171D01*
X053975Y009178D01*
X054070Y009658D01*
X054072Y009662D01*
X054079Y009705D01*
X054087Y009747D01*
X054086Y009752D01*
X054167Y010257D01*
X054167Y010257D01*
X054175Y010304D01*
X054183Y010352D01*
X054263Y010857D01*
X054265Y010860D01*
X054271Y010904D01*
X054278Y010947D01*
X054277Y010951D01*
X054345Y011492D01*
X054347Y011495D01*
X054351Y011539D01*
X054357Y011583D01*
X054356Y011586D01*
X054411Y012158D01*
X054458Y012638D01*
X054586Y012510D01*
X054632Y012510D01*
X054732Y012410D01*
X054923Y012410D01*
X055057Y012545D01*
X055057Y012664D01*
X055135Y012586D01*
X055135Y011595D01*
X055110Y011620D01*
X054920Y011620D01*
X054785Y011485D01*
X054785Y011295D01*
X054920Y011160D01*
X055010Y011160D01*
X055010Y009663D01*
X053653Y005962D01*
X049961Y002270D01*
X040569Y002270D01*
X036257Y006582D01*
X034395Y013657D01*
X034395Y013694D01*
X034382Y013707D01*
X034377Y013725D01*
X034345Y013744D01*
X031020Y017069D01*
X030944Y017145D01*
X025694Y017145D01*
X024119Y018719D01*
X024101Y018751D01*
X024083Y018756D01*
X024069Y018770D01*
X024033Y018770D01*
X020458Y019756D01*
X019069Y021145D01*
X008211Y021145D01*
X008135Y021069D01*
X007370Y020304D01*
X007370Y020485D01*
X007235Y020620D01*
X007045Y020620D01*
X006945Y020520D01*
X005085Y020520D01*
X004985Y020620D01*
X004795Y020620D01*
X004660Y020485D01*
X004660Y020295D01*
X004795Y020160D01*
X004985Y020160D01*
X005085Y020260D01*
X006945Y020260D01*
X007045Y020160D01*
X007226Y020160D01*
X004385Y017319D01*
X004385Y012259D01*
X004277Y012259D01*
X004270Y012252D01*
X004270Y012569D01*
X003679Y013160D01*
X003735Y013297D01*
X003735Y013483D01*
X003663Y013656D01*
X003531Y013788D01*
X003358Y013860D01*
X003172Y013860D01*
X002999Y013788D01*
X002867Y013656D01*
X002795Y013483D01*
X002795Y013297D01*
X002867Y013124D01*
X002999Y012992D01*
X003172Y012920D01*
X003358Y012920D01*
X003495Y012976D01*
X004010Y012461D01*
X004010Y011196D01*
X003920Y011106D01*
X003920Y010924D01*
X004049Y010795D01*
X004176Y010795D01*
X004382Y010590D01*
X004558Y010590D01*
X004558Y010573D01*
X004616Y010514D01*
X004914Y010514D01*
X004972Y010573D01*
X004972Y010866D01*
X004949Y010890D01*
X004972Y010914D01*
X004972Y011105D01*
X004992Y010951D01*
X004991Y010947D01*
X004998Y010904D01*
X005003Y010860D01*
X005005Y010857D01*
X005182Y009752D01*
X005182Y009747D01*
X005190Y009705D01*
X005197Y009662D01*
X005199Y009658D01*
X005294Y009178D01*
X005293Y009171D01*
X005303Y009131D01*
X005311Y009090D01*
X005315Y009085D01*
X005430Y008627D01*
X005503Y008338D01*
X005503Y008337D01*
X005515Y008292D01*
X005526Y008247D01*
X005527Y008246D01*
X005611Y007926D01*
X005610Y007920D01*
X005623Y007880D01*
X005634Y007839D01*
X005637Y007834D01*
X005758Y007447D01*
X005882Y007051D01*
X005882Y007046D01*
X005896Y007005D01*
X005909Y006964D01*
X005912Y006960D01*
X006048Y006578D01*
X006049Y006568D01*
X006064Y006533D01*
X006077Y006497D01*
X006084Y006490D01*
X006287Y006031D01*
X006287Y006031D01*
X006453Y005660D01*
X006453Y005651D01*
X006472Y005617D01*
X006488Y005581D01*
X006494Y005575D01*
X006698Y005196D01*
X006701Y005181D01*
X006720Y005155D01*
X006736Y005126D01*
X006747Y005116D01*
X007008Y004749D01*
X007274Y004375D01*
X007280Y004360D01*
X007302Y004336D01*
X007320Y004310D01*
X007334Y004302D01*
X007624Y003990D01*
X007637Y003969D01*
X007656Y003955D01*
X007672Y003938D01*
X007694Y003928D01*
X008017Y003697D01*
X008017Y003697D01*
X008054Y003670D01*
X008094Y003641D01*
X008094Y003641D01*
X008413Y003413D01*
X008427Y003398D01*
X008452Y003385D01*
X008475Y003369D01*
X008494Y003364D01*
X008882Y003173D01*
X008892Y003164D01*
X008925Y003152D01*
X008956Y003137D01*
X008969Y003136D01*
X009373Y002989D01*
X009373Y002989D01*
X009423Y002971D01*
X009463Y002956D01*
X009866Y002809D01*
X006199Y002809D01*
X006269Y002731D02*
X010158Y002731D01*
X009956Y002782D02*
X010402Y002669D01*
X010409Y002664D01*
X010448Y002657D01*
X010486Y002648D01*
X010494Y002649D01*
X010985Y002560D01*
X011479Y002470D01*
X011489Y002465D01*
X011525Y002462D01*
X011561Y002455D01*
X011573Y002458D01*
X012208Y002404D01*
X012217Y002400D01*
X012255Y002400D01*
X012292Y002397D01*
X012302Y002400D01*
X015228Y002400D01*
X015237Y002397D01*
X015275Y002400D01*
X015313Y002400D01*
X015322Y002404D01*
X015515Y002420D01*
X015519Y002419D01*
X015562Y002424D01*
X015605Y002427D01*
X015609Y002430D01*
X015907Y002466D01*
X015885Y002444D01*
X015630Y002189D01*
X015531Y002288D01*
X015358Y002360D01*
X015172Y002360D01*
X014999Y002288D01*
X014867Y002156D01*
X014795Y001983D01*
X014795Y001797D01*
X014867Y001624D01*
X014970Y001520D01*
X014560Y001520D01*
X014663Y001624D01*
X014735Y001797D01*
X014735Y001983D01*
X014663Y002156D01*
X014531Y002288D01*
X014358Y002360D01*
X014172Y002360D01*
X013999Y002288D01*
X013867Y002156D01*
X013795Y001983D01*
X013795Y001797D01*
X013867Y001624D01*
X013970Y001520D01*
X013560Y001520D01*
X013663Y001624D01*
X013735Y001797D01*
X013735Y001983D01*
X013663Y002156D01*
X013531Y002288D01*
X013358Y002360D01*
X013172Y002360D01*
X012999Y002288D01*
X012867Y002156D01*
X012795Y001983D01*
X012795Y001797D01*
X012797Y001792D01*
X012735Y001854D01*
X012735Y001983D01*
X012663Y002156D01*
X012531Y002288D01*
X012358Y002360D01*
X012172Y002360D01*
X011999Y002288D01*
X011867Y002156D01*
X011795Y001983D01*
X011795Y001797D01*
X011867Y001624D01*
X011999Y001492D01*
X012172Y001420D01*
X012358Y001420D01*
X012531Y001492D01*
X012630Y001591D01*
X012885Y001336D01*
X012961Y001260D01*
X019396Y001260D01*
X018832Y001025D01*
X017957Y000824D01*
X017095Y000647D01*
X016333Y000492D01*
X015491Y000398D01*
X013536Y000398D01*
X012607Y000456D01*
X010964Y000659D01*
X010266Y000802D01*
X009622Y000983D01*
X009035Y001148D01*
X008520Y001346D01*
X008104Y001542D01*
X007605Y001777D01*
X007221Y002003D01*
X006912Y002207D01*
X006843Y002252D01*
X006832Y002259D01*
X006602Y002412D01*
X006345Y002645D01*
X006338Y002652D02*
X010468Y002652D01*
X010384Y002387D02*
X010305Y002400D01*
X010305Y001930D01*
X010225Y001930D01*
X010225Y002400D01*
X010225Y002400D01*
X010146Y002387D01*
X010069Y002363D01*
X009998Y002326D01*
X009933Y002279D01*
X009876Y002222D01*
X009829Y002157D01*
X009792Y002086D01*
X009768Y002009D01*
X009755Y001930D01*
X010225Y001930D01*
X010225Y001850D01*
X009755Y001850D01*
X009755Y001850D01*
X009768Y001771D01*
X009792Y001694D01*
X009829Y001623D01*
X009876Y001558D01*
X009933Y001501D01*
X009998Y001454D01*
X010069Y001417D01*
X010146Y001393D01*
X010225Y001380D01*
X010225Y001850D01*
X010305Y001850D01*
X010305Y001930D01*
X010775Y001930D01*
X010775Y001930D01*
X010762Y002009D01*
X010738Y002086D01*
X010701Y002157D01*
X010654Y002222D01*
X010597Y002279D01*
X010532Y002326D01*
X010461Y002363D01*
X010384Y002387D01*
X010305Y002400D02*
X010305Y002400D01*
X010305Y002338D02*
X010225Y002338D01*
X010225Y002260D02*
X010305Y002260D01*
X010305Y002181D02*
X010225Y002181D01*
X010225Y002103D02*
X010305Y002103D01*
X010305Y002024D02*
X010225Y002024D01*
X010225Y001946D02*
X010305Y001946D01*
X010305Y001867D02*
X010795Y001867D01*
X010775Y001850D02*
X010305Y001850D01*
X010305Y001380D01*
X010305Y001380D01*
X010384Y001393D01*
X010461Y001417D01*
X010532Y001454D01*
X010597Y001501D01*
X010654Y001558D01*
X010701Y001623D01*
X010738Y001694D01*
X010762Y001771D01*
X010775Y001850D01*
X010775Y001850D01*
X010795Y001797D02*
X010867Y001624D01*
X010999Y001492D01*
X011172Y001420D01*
X011358Y001420D01*
X011531Y001492D01*
X011663Y001624D01*
X011735Y001797D01*
X011735Y001983D01*
X011663Y002156D01*
X011531Y002288D01*
X011358Y002360D01*
X011172Y002360D01*
X010999Y002288D01*
X010867Y002156D01*
X010795Y001983D01*
X010795Y001797D01*
X010798Y001789D02*
X010765Y001789D01*
X010743Y001710D02*
X010831Y001710D01*
X010863Y001632D02*
X010706Y001632D01*
X010649Y001553D02*
X010937Y001553D01*
X011040Y001475D02*
X010561Y001475D01*
X010395Y001396D02*
X012825Y001396D01*
X012747Y001475D02*
X012490Y001475D01*
X012593Y001553D02*
X012668Y001553D01*
X012904Y001318D02*
X008595Y001318D01*
X008414Y001396D02*
X010135Y001396D01*
X010225Y001396D02*
X010305Y001396D01*
X010305Y001475D02*
X010225Y001475D01*
X010225Y001553D02*
X010305Y001553D01*
X010305Y001632D02*
X010225Y001632D01*
X010225Y001710D02*
X010305Y001710D01*
X010305Y001789D02*
X010225Y001789D01*
X010225Y001867D02*
X007452Y001867D01*
X007585Y001789D02*
X009765Y001789D01*
X009787Y001710D02*
X007747Y001710D01*
X007914Y001632D02*
X009824Y001632D01*
X009881Y001553D02*
X008081Y001553D01*
X008104Y001542D02*
X008104Y001542D01*
X008247Y001475D02*
X009969Y001475D01*
X010225Y001380D02*
X010225Y001380D01*
X009829Y000925D02*
X018397Y000925D01*
X018057Y000847D02*
X010108Y000847D01*
X010433Y000768D02*
X017686Y000768D01*
X017301Y000690D02*
X010817Y000690D01*
X011355Y000611D02*
X016917Y000611D01*
X016532Y000533D02*
X011990Y000533D01*
X012642Y000454D02*
X015991Y000454D01*
X014937Y001553D02*
X014593Y001553D01*
X014667Y001632D02*
X014863Y001632D01*
X014831Y001710D02*
X014699Y001710D01*
X014732Y001789D02*
X014798Y001789D01*
X014795Y001867D02*
X014735Y001867D01*
X014735Y001946D02*
X014795Y001946D01*
X014812Y002024D02*
X014718Y002024D01*
X014686Y002103D02*
X014844Y002103D01*
X014891Y002181D02*
X014639Y002181D01*
X014560Y002260D02*
X014970Y002260D01*
X015118Y002338D02*
X014412Y002338D01*
X014118Y002338D02*
X013412Y002338D01*
X013560Y002260D02*
X013970Y002260D01*
X013891Y002181D02*
X013639Y002181D01*
X013686Y002103D02*
X013844Y002103D01*
X013812Y002024D02*
X013718Y002024D01*
X013735Y001946D02*
X013795Y001946D01*
X013795Y001867D02*
X013735Y001867D01*
X013732Y001789D02*
X013798Y001789D01*
X013831Y001710D02*
X013699Y001710D01*
X013667Y001632D02*
X013863Y001632D01*
X013937Y001553D02*
X013593Y001553D01*
X012795Y001867D02*
X012735Y001867D01*
X012735Y001946D02*
X012795Y001946D01*
X012812Y002024D02*
X012718Y002024D01*
X012686Y002103D02*
X012844Y002103D01*
X012891Y002181D02*
X012639Y002181D01*
X012560Y002260D02*
X012970Y002260D01*
X013118Y002338D02*
X012412Y002338D01*
X012118Y002338D02*
X011412Y002338D01*
X011560Y002260D02*
X011970Y002260D01*
X011891Y002181D02*
X011639Y002181D01*
X011686Y002103D02*
X011844Y002103D01*
X011812Y002024D02*
X011718Y002024D01*
X011735Y001946D02*
X011795Y001946D01*
X011795Y001867D02*
X011735Y001867D01*
X011732Y001789D02*
X011798Y001789D01*
X011831Y001710D02*
X011699Y001710D01*
X011667Y001632D02*
X011863Y001632D01*
X011937Y001553D02*
X011593Y001553D01*
X011490Y001475D02*
X012040Y001475D01*
X010795Y001946D02*
X010773Y001946D01*
X010758Y002024D02*
X010812Y002024D01*
X010844Y002103D02*
X010729Y002103D01*
X010684Y002181D02*
X010891Y002181D01*
X010970Y002260D02*
X010617Y002260D01*
X010509Y002338D02*
X011118Y002338D01*
X011342Y002495D02*
X006510Y002495D01*
X006596Y002417D02*
X012060Y002417D01*
X010909Y002574D02*
X006423Y002574D01*
X006713Y002338D02*
X010021Y002338D01*
X009913Y002260D02*
X006832Y002260D01*
X006832Y002259D02*
X006832Y002259D01*
X006912Y002207D02*
X006912Y002207D01*
X006951Y002181D02*
X009846Y002181D01*
X009801Y002103D02*
X007070Y002103D01*
X007188Y002024D02*
X009772Y002024D01*
X009757Y001946D02*
X007318Y001946D01*
X008799Y001239D02*
X019346Y001239D01*
X019157Y001161D02*
X009004Y001161D01*
X009271Y001082D02*
X018968Y001082D01*
X018737Y001004D02*
X009550Y001004D01*
X009755Y001930D02*
X009755Y001930D01*
X009943Y002781D02*
X009956Y002782D01*
X009943Y002781D02*
X009910Y002793D01*
X009876Y002802D01*
X009866Y002809D01*
X009651Y002888D02*
X006129Y002888D01*
X006059Y002966D02*
X009435Y002966D01*
X009463Y002956D02*
X009463Y002956D01*
X009220Y003045D02*
X005989Y003045D01*
X005919Y003123D02*
X009004Y003123D01*
X008824Y003202D02*
X005849Y003202D01*
X005786Y003280D02*
X008665Y003280D01*
X008506Y003359D02*
X005728Y003359D01*
X005670Y003437D02*
X008380Y003437D01*
X008270Y003516D02*
X005612Y003516D01*
X005556Y003594D02*
X008160Y003594D01*
X008050Y003673D02*
X005505Y003673D01*
X005455Y003751D02*
X007941Y003751D01*
X007831Y003830D02*
X005405Y003830D01*
X005354Y003908D02*
X007721Y003908D01*
X007626Y003987D02*
X005304Y003987D01*
X005254Y004065D02*
X007554Y004065D01*
X007481Y004144D02*
X005203Y004144D01*
X005153Y004222D02*
X007408Y004222D01*
X007335Y004301D02*
X005103Y004301D01*
X005056Y004379D02*
X007271Y004379D01*
X007216Y004458D02*
X005012Y004458D01*
X004968Y004536D02*
X007160Y004536D01*
X007104Y004615D02*
X004924Y004615D01*
X004880Y004693D02*
X007048Y004693D01*
X006992Y004772D02*
X004837Y004772D01*
X004798Y004850D02*
X006937Y004850D01*
X006881Y004929D02*
X004759Y004929D01*
X004719Y005007D02*
X006825Y005007D01*
X006769Y005086D02*
X004680Y005086D01*
X004649Y005148D02*
X004649Y005148D01*
X004641Y005164D02*
X006713Y005164D01*
X006673Y005243D02*
X004602Y005243D01*
X004606Y005233D02*
X004606Y005233D01*
X004563Y005321D02*
X006631Y005321D01*
X006588Y005400D02*
X004523Y005400D01*
X004484Y005478D02*
X006546Y005478D01*
X006504Y005557D02*
X004445Y005557D01*
X004406Y005635D02*
X006462Y005635D01*
X006429Y005714D02*
X004371Y005714D01*
X004336Y005792D02*
X006394Y005792D01*
X006359Y005871D02*
X004301Y005871D01*
X004266Y005949D02*
X006324Y005949D01*
X006289Y006028D02*
X004231Y006028D01*
X004198Y006106D02*
X006254Y006106D01*
X006219Y006185D02*
X004166Y006185D01*
X004135Y006263D02*
X006184Y006263D01*
X006149Y006342D02*
X004103Y006342D01*
X004072Y006420D02*
X006115Y006420D01*
X006077Y006499D02*
X004041Y006499D01*
X004009Y006577D02*
X006048Y006577D01*
X006021Y006656D02*
X003978Y006656D01*
X003946Y006734D02*
X005993Y006734D01*
X005965Y006813D02*
X003915Y006813D01*
X003884Y006891D02*
X005937Y006891D01*
X005907Y006970D02*
X003852Y006970D01*
X003825Y007048D02*
X005882Y007048D01*
X005858Y007127D02*
X003802Y007127D01*
X003778Y007205D02*
X005834Y007205D01*
X005809Y007284D02*
X003754Y007284D01*
X003730Y007362D02*
X005785Y007362D01*
X005760Y007441D02*
X003706Y007441D01*
X003682Y007519D02*
X005736Y007519D01*
X005711Y007598D02*
X003662Y007598D01*
X003642Y007676D02*
X005687Y007676D01*
X005662Y007755D02*
X003622Y007755D01*
X003602Y007833D02*
X005637Y007833D01*
X005613Y007912D02*
X003582Y007912D01*
X003562Y007990D02*
X005594Y007990D01*
X005573Y008069D02*
X003542Y008069D01*
X003529Y008120D02*
X003529Y008120D01*
X003522Y008147D02*
X005553Y008147D01*
X005532Y008226D02*
X003502Y008226D01*
X003482Y008304D02*
X005511Y008304D01*
X005492Y008383D02*
X003462Y008383D01*
X003442Y008461D02*
X005472Y008461D01*
X005452Y008540D02*
X003422Y008540D01*
X003402Y008618D02*
X005432Y008618D01*
X005413Y008697D02*
X003385Y008697D01*
X003369Y008775D02*
X005393Y008775D01*
X005373Y008854D02*
X003352Y008854D01*
X003336Y008932D02*
X005353Y008932D01*
X005333Y009011D02*
X003319Y009011D01*
X003303Y009089D02*
X005312Y009089D01*
X005294Y009168D02*
X003286Y009168D01*
X003270Y009246D02*
X005280Y009246D01*
X005265Y009325D02*
X003255Y009325D01*
X003240Y009403D02*
X005249Y009403D01*
X005234Y009482D02*
X003225Y009482D01*
X003210Y009560D02*
X005218Y009560D01*
X005203Y009639D02*
X003195Y009639D01*
X003179Y009717D02*
X005188Y009717D01*
X005175Y009796D02*
X003164Y009796D01*
X003149Y009874D02*
X005163Y009874D01*
X005150Y009953D02*
X003134Y009953D01*
X003119Y010031D02*
X005138Y010031D01*
X005125Y010110D02*
X003104Y010110D01*
X003089Y010188D02*
X005113Y010188D01*
X005100Y010267D02*
X003074Y010267D01*
X003059Y010345D02*
X005087Y010345D01*
X005075Y010424D02*
X003045Y010424D01*
X003031Y010502D02*
X005062Y010502D01*
X005050Y010581D02*
X004972Y010581D01*
X004972Y010659D02*
X005037Y010659D01*
X005025Y010738D02*
X004972Y010738D01*
X004972Y010816D02*
X005012Y010816D01*
X004999Y010895D02*
X004953Y010895D01*
X004972Y010973D02*
X004989Y010973D01*
X004979Y011052D02*
X004972Y011052D01*
X004958Y011222D02*
X004914Y011266D01*
X004895Y011266D01*
X004895Y011313D01*
X004812Y011396D01*
X004812Y011688D01*
X004753Y011747D01*
X004277Y011747D01*
X004270Y011740D01*
X004270Y011790D01*
X004277Y011783D01*
X004753Y011783D01*
X004812Y011842D01*
X004812Y012200D01*
X004753Y012259D01*
X004645Y012259D01*
X004645Y017211D01*
X008319Y020885D01*
X010451Y020885D01*
X009880Y020314D01*
X009781Y020413D01*
X009608Y020485D01*
X009422Y020485D01*
X009249Y020413D01*
X009117Y020281D01*
X009045Y020108D01*
X009045Y019922D01*
X007356Y019922D01*
X007434Y020001D02*
X009045Y020001D01*
X009045Y020079D02*
X007513Y020079D01*
X007591Y020158D02*
X009065Y020158D01*
X009098Y020236D02*
X007670Y020236D01*
X007748Y020315D02*
X009150Y020315D01*
X009228Y020393D02*
X007827Y020393D01*
X007905Y020472D02*
X009389Y020472D01*
X009641Y020472D02*
X010038Y020472D01*
X010116Y020550D02*
X007984Y020550D01*
X008062Y020629D02*
X010195Y020629D01*
X010273Y020707D02*
X008141Y020707D01*
X008219Y020786D02*
X010352Y020786D01*
X010430Y020864D02*
X008298Y020864D01*
X008087Y021021D02*
X006430Y021021D01*
X006831Y021100D02*
X008166Y021100D01*
X008009Y020943D02*
X006028Y020943D01*
X005627Y020864D02*
X007930Y020864D01*
X007852Y020786D02*
X005282Y020786D01*
X005055Y020550D02*
X006975Y020550D01*
X007305Y020550D02*
X007616Y020550D01*
X007538Y020472D02*
X007370Y020472D01*
X007370Y020393D02*
X007459Y020393D01*
X007381Y020315D02*
X007370Y020315D01*
X007224Y020158D02*
X002986Y020158D01*
X002741Y020079D02*
X007145Y020079D01*
X007067Y020001D02*
X002499Y020001D01*
X002273Y019922D02*
X006988Y019922D01*
X006910Y019844D02*
X002047Y019844D01*
X002023Y019835D02*
X002023Y019835D01*
X001933Y019804D02*
X001933Y019804D01*
X001821Y019765D02*
X006831Y019765D01*
X006753Y019687D02*
X001595Y019687D01*
X001375Y019608D02*
X006674Y019608D01*
X006596Y019530D02*
X001172Y019530D01*
X000971Y019451D02*
X006517Y019451D01*
X006439Y019373D02*
X000777Y019373D01*
X000749Y019361D02*
X000749Y019361D01*
X000583Y019294D02*
X006360Y019294D01*
X006282Y019216D02*
X000425Y019216D01*
X000439Y019137D02*
X006203Y019137D01*
X006125Y019059D02*
X000453Y019059D01*
X000467Y018980D02*
X006046Y018980D01*
X005968Y018902D02*
X000481Y018902D01*
X000495Y018823D02*
X005889Y018823D01*
X005811Y018745D02*
X000508Y018745D01*
X000522Y018666D02*
X005732Y018666D01*
X005654Y018588D02*
X000536Y018588D01*
X000542Y018555D02*
X000542Y018555D01*
X000550Y018509D02*
X005575Y018509D01*
X005497Y018431D02*
X000564Y018431D01*
X000559Y018461D02*
X000559Y018461D01*
X000578Y018352D02*
X005418Y018352D01*
X005340Y018274D02*
X000592Y018274D01*
X000606Y018195D02*
X002360Y018195D01*
X002362Y018196D02*
X002233Y018068D01*
X002164Y017900D01*
X002164Y017718D01*
X002233Y017551D01*
X002362Y017422D01*
X002530Y017353D01*
X002711Y017353D01*
X002879Y017422D01*
X003007Y017551D01*
X003077Y017718D01*
X003077Y017900D01*
X003007Y018068D01*
X002879Y018196D01*
X002711Y018266D01*
X002530Y018266D01*
X002362Y018196D01*
X002282Y018117D02*
X000620Y018117D01*
X000633Y018038D02*
X002221Y018038D01*
X002188Y017960D02*
X000647Y017960D01*
X000661Y017881D02*
X002164Y017881D01*
X002164Y017803D02*
X000675Y017803D01*
X000689Y017724D02*
X002164Y017724D01*
X002194Y017646D02*
X000703Y017646D01*
X000717Y017567D02*
X002227Y017567D01*
X002295Y017489D02*
X000731Y017489D01*
X000744Y017410D02*
X002391Y017410D01*
X002849Y017410D02*
X003375Y017410D01*
X003346Y017422D02*
X003514Y017353D01*
X003695Y017353D01*
X003863Y017422D01*
X003992Y017551D01*
X004061Y017718D01*
X004061Y017900D01*
X003992Y018068D01*
X003863Y018196D01*
X003695Y018266D01*
X003514Y018266D01*
X003346Y018196D01*
X003218Y018068D01*
X003148Y017900D01*
X003148Y017718D01*
X003218Y017551D01*
X003346Y017422D01*
X003280Y017489D02*
X002945Y017489D01*
X003014Y017567D02*
X003211Y017567D01*
X003178Y017646D02*
X003047Y017646D01*
X003077Y017724D02*
X003148Y017724D01*
X003148Y017803D02*
X003077Y017803D01*
X003077Y017881D02*
X003148Y017881D01*
X003173Y017960D02*
X003052Y017960D01*
X003020Y018038D02*
X003205Y018038D01*
X003266Y018117D02*
X002959Y018117D01*
X002880Y018195D02*
X003345Y018195D01*
X003864Y018195D02*
X005261Y018195D01*
X005183Y018117D02*
X003943Y018117D01*
X004004Y018038D02*
X005104Y018038D01*
X005026Y017960D02*
X004036Y017960D01*
X004061Y017881D02*
X004947Y017881D01*
X004869Y017803D02*
X004061Y017803D01*
X004061Y017724D02*
X004790Y017724D01*
X004712Y017646D02*
X004031Y017646D01*
X003998Y017567D02*
X004633Y017567D01*
X004555Y017489D02*
X003929Y017489D01*
X003834Y017410D02*
X004476Y017410D01*
X004398Y017332D02*
X000758Y017332D01*
X000772Y017253D02*
X004385Y017253D01*
X004385Y017175D02*
X000786Y017175D01*
X000800Y017096D02*
X004385Y017096D01*
X004385Y017018D02*
X000814Y017018D01*
X000828Y016939D02*
X004385Y016939D01*
X004385Y016861D02*
X000842Y016861D01*
X000855Y016782D02*
X004385Y016782D01*
X004385Y016704D02*
X000869Y016704D01*
X000883Y016625D02*
X004385Y016625D01*
X004385Y016547D02*
X000897Y016547D01*
X000911Y016468D02*
X004385Y016468D01*
X004385Y016390D02*
X000925Y016390D01*
X000939Y016311D02*
X004385Y016311D01*
X004385Y016233D02*
X000953Y016233D01*
X000967Y016154D02*
X004385Y016154D01*
X004385Y016076D02*
X000980Y016076D01*
X000994Y015997D02*
X004385Y015997D01*
X004385Y015919D02*
X001196Y015919D01*
X001339Y015840D02*
X004385Y015840D01*
X004385Y015762D02*
X001483Y015762D01*
X001573Y015683D02*
X004385Y015683D01*
X004385Y015605D02*
X001650Y015605D01*
X001728Y015526D02*
X004385Y015526D01*
X004385Y015448D02*
X001805Y015448D01*
X001883Y015369D02*
X004385Y015369D01*
X004385Y015291D02*
X001951Y015291D01*
X001990Y015212D02*
X004385Y015212D01*
X004385Y015134D02*
X002032Y015134D01*
X002078Y015055D02*
X004385Y015055D01*
X004385Y014977D02*
X002106Y014977D01*
X002134Y014898D02*
X003213Y014898D01*
X003225Y014898D02*
X003305Y014898D01*
X003305Y014900D02*
X003305Y014900D01*
X003305Y014430D01*
X003775Y014430D01*
X003775Y014430D01*
X003762Y014509D01*
X003738Y014586D01*
X003701Y014657D01*
X003654Y014722D01*
X003597Y014779D01*
X003532Y014826D01*
X003461Y014863D01*
X003384Y014887D01*
X003305Y014900D01*
X003317Y014898D02*
X004385Y014898D01*
X004385Y014820D02*
X003541Y014820D01*
X003635Y014741D02*
X004385Y014741D01*
X004385Y014663D02*
X003697Y014663D01*
X003738Y014584D02*
X004385Y014584D01*
X004385Y014506D02*
X003763Y014506D01*
X003775Y014350D02*
X003305Y014350D01*
X003305Y014430D01*
X003225Y014430D01*
X003225Y014900D01*
X003225Y014900D01*
X003146Y014887D01*
X003069Y014863D01*
X002998Y014826D01*
X002933Y014779D01*
X002876Y014722D01*
X002829Y014657D01*
X002792Y014586D01*
X002768Y014509D01*
X002755Y014430D01*
X003225Y014430D01*
X003225Y014350D01*
X003305Y014350D01*
X003305Y013880D01*
X003305Y013880D01*
X003384Y013893D01*
X003461Y013917D01*
X003532Y013954D01*
X003597Y014001D01*
X003654Y014058D01*
X003701Y014123D01*
X003738Y014194D01*
X003762Y014271D01*
X003775Y014350D01*
X003775Y014350D01*
X003775Y014349D02*
X004385Y014349D01*
X004385Y014427D02*
X003305Y014427D01*
X003305Y014349D02*
X003225Y014349D01*
X003225Y014350D02*
X003225Y013880D01*
X003225Y013880D01*
X003146Y013893D01*
X003069Y013917D01*
X002998Y013954D01*
X002933Y014001D01*
X002876Y014058D01*
X002829Y014123D01*
X002792Y014194D01*
X002768Y014271D01*
X002755Y014350D01*
X002755Y014350D01*
X003225Y014350D01*
X003225Y014427D02*
X002298Y014427D01*
X002313Y014349D02*
X002755Y014349D01*
X002768Y014270D02*
X002330Y014270D01*
X002347Y014192D02*
X002794Y014192D01*
X002836Y014113D02*
X002363Y014113D01*
X002378Y014035D02*
X002899Y014035D01*
X002995Y013956D02*
X002392Y013956D01*
X002407Y013878D02*
X004385Y013878D01*
X004385Y013956D02*
X003535Y013956D01*
X003631Y014035D02*
X004385Y014035D01*
X004385Y014113D02*
X003694Y014113D01*
X003736Y014192D02*
X004385Y014192D01*
X004385Y014270D02*
X003762Y014270D01*
X003305Y014270D02*
X003225Y014270D01*
X003225Y014192D02*
X003305Y014192D01*
X003305Y014113D02*
X003225Y014113D01*
X003225Y014035D02*
X003305Y014035D01*
X003305Y013956D02*
X003225Y013956D01*
X003024Y013799D02*
X002421Y013799D01*
X002436Y013721D02*
X002931Y013721D01*
X002861Y013642D02*
X002450Y013642D01*
X002464Y013564D02*
X002828Y013564D01*
X002796Y013485D02*
X002479Y013485D01*
X002493Y013407D02*
X002795Y013407D01*
X002795Y013328D02*
X002505Y013328D01*
X002518Y013250D02*
X002814Y013250D01*
X002847Y013171D02*
X002531Y013171D01*
X002543Y013093D02*
X002898Y013093D01*
X002976Y013014D02*
X002560Y013014D01*
X002577Y012936D02*
X003134Y012936D01*
X003396Y012936D02*
X003536Y012936D01*
X003614Y012857D02*
X002595Y012857D01*
X002612Y012779D02*
X003693Y012779D01*
X003771Y012700D02*
X002629Y012700D01*
X002647Y012622D02*
X003850Y012622D01*
X003928Y012543D02*
X002664Y012543D01*
X002681Y012465D02*
X004007Y012465D01*
X004010Y012386D02*
X002699Y012386D01*
X002713Y012308D02*
X004010Y012308D01*
X004010Y012229D02*
X002727Y012229D01*
X002742Y012151D02*
X004010Y012151D01*
X004010Y012072D02*
X002756Y012072D01*
X002770Y011994D02*
X004010Y011994D01*
X004010Y011915D02*
X002784Y011915D01*
X002775Y011966D02*
X002775Y011966D01*
X002798Y011837D02*
X004010Y011837D01*
X004010Y011758D02*
X002811Y011758D01*
X002825Y011680D02*
X004010Y011680D01*
X004010Y011601D02*
X002839Y011601D01*
X002853Y011523D02*
X004010Y011523D01*
X004010Y011444D02*
X002867Y011444D01*
X002881Y011366D02*
X004010Y011366D01*
X004010Y011287D02*
X002894Y011287D01*
X002908Y011209D02*
X004010Y011209D01*
X003944Y011130D02*
X002922Y011130D01*
X002936Y011052D02*
X003920Y011052D01*
X003920Y010973D02*
X002950Y010973D01*
X002963Y010895D02*
X003949Y010895D01*
X004028Y010816D02*
X002977Y010816D01*
X002991Y010738D02*
X004234Y010738D01*
X004312Y010659D02*
X003004Y010659D01*
X003018Y010581D02*
X004558Y010581D01*
X004958Y011222D02*
X004923Y011492D01*
X004922Y011495D01*
X004917Y011539D01*
X004912Y011583D01*
X004913Y011586D01*
X004862Y012112D01*
X004862Y012112D01*
X004802Y012733D01*
X004800Y012737D01*
X004797Y012781D01*
X004793Y012825D01*
X004794Y012828D01*
X004759Y013348D01*
X004758Y013352D01*
X004756Y013396D01*
X004753Y013439D01*
X004755Y013443D01*
X004740Y013952D01*
X004724Y014465D01*
X004722Y014470D01*
X004723Y014513D01*
X004722Y014555D01*
X004723Y014560D01*
X004729Y014980D01*
X004727Y014988D01*
X004730Y015027D01*
X004731Y015067D01*
X004734Y015075D01*
X004761Y015393D01*
X004761Y015393D01*
X004765Y015438D01*
X004769Y015488D01*
X004769Y015488D01*
X004791Y015748D01*
X004790Y015752D01*
X004795Y015795D01*
X004799Y015839D01*
X004801Y015843D01*
X004825Y016048D01*
X004824Y016054D01*
X004831Y016095D01*
X004836Y016137D01*
X004839Y016142D01*
X004909Y016554D01*
X004908Y016562D01*
X004917Y016600D01*
X004923Y016639D01*
X004928Y016647D01*
X004959Y016774D01*
X004958Y016785D01*
X004970Y016820D01*
X004979Y016856D01*
X004985Y016865D01*
X005017Y016958D01*
X005017Y016958D01*
X005032Y017004D01*
X005048Y017049D01*
X005048Y017049D01*
X005080Y017145D01*
X005081Y017159D01*
X005095Y017190D01*
X005106Y017222D01*
X005116Y017233D01*
X005155Y017316D01*
X005157Y017329D01*
X005175Y017359D01*
X005190Y017391D01*
X005200Y017399D01*
X005262Y017502D01*
X005325Y017608D01*
X005329Y017621D01*
X005350Y017648D01*
X005368Y017678D01*
X005379Y017686D01*
X005426Y017748D01*
X005428Y017754D01*
X005455Y017786D01*
X005480Y017819D01*
X005486Y017822D01*
X005657Y018023D01*
X005667Y018041D01*
X005688Y018059D01*
X005706Y018081D01*
X005724Y018090D01*
X005824Y018174D01*
X005830Y018184D01*
X005860Y018204D01*
X005887Y018227D01*
X005899Y018231D01*
X006001Y018301D01*
X006001Y018301D01*
X006041Y018328D01*
X006080Y018355D01*
X006080Y018355D01*
X006181Y018424D01*
X006187Y018433D01*
X006220Y018451D01*
X006251Y018472D01*
X006261Y018475D01*
X006388Y018546D01*
X006393Y018552D01*
X006430Y018570D01*
X006465Y018590D01*
X006472Y018591D01*
X006802Y018751D01*
X006808Y018756D01*
X006845Y018771D01*
X006881Y018789D01*
X006889Y018790D01*
X007022Y018844D01*
X007028Y018849D01*
X007066Y018862D01*
X007104Y018878D01*
X007111Y018878D01*
X007265Y018930D01*
X007432Y018987D01*
X007439Y018992D01*
X007477Y019002D01*
X007514Y019015D01*
X007523Y019015D01*
X007638Y019045D01*
X007648Y019051D01*
X007684Y019058D01*
X007719Y019067D01*
X007730Y019065D01*
X007854Y019086D01*
X007985Y019112D01*
X007989Y019114D01*
X008032Y019121D01*
X008075Y019129D01*
X008079Y019129D01*
X008304Y019165D01*
X008304Y019165D01*
X008351Y019173D01*
X008398Y019180D01*
X008398Y019180D01*
X008620Y019216D01*
X008622Y019217D01*
X008668Y019224D01*
X008713Y019231D01*
X008715Y019231D01*
X009078Y019284D01*
X009082Y019286D01*
X009125Y019291D01*
X009169Y019298D01*
X009173Y019297D01*
X009728Y019363D01*
X009728Y019363D01*
X010188Y019417D01*
X010190Y019418D01*
X010235Y019423D01*
X010280Y019428D01*
X010282Y019427D01*
X010849Y019482D01*
X010858Y019486D01*
X010897Y019487D01*
X010935Y019491D01*
X010944Y019488D01*
X011589Y019504D01*
X011592Y019505D01*
X011637Y019505D01*
X011682Y019506D01*
X011685Y019505D01*
X014598Y019505D01*
X014603Y019507D01*
X014645Y019505D01*
X014688Y019505D01*
X014693Y019503D01*
X015497Y019468D01*
X015511Y019472D01*
X015544Y019466D01*
X015578Y019465D01*
X015591Y019459D01*
X016294Y019347D01*
X016994Y019289D01*
X017000Y019290D01*
X017041Y019285D01*
X017083Y019281D01*
X017088Y019279D01*
X017738Y019191D01*
X017744Y019192D01*
X017785Y019184D01*
X017826Y019179D01*
X017832Y019175D01*
X018371Y019073D01*
X018371Y019073D01*
X018412Y019065D01*
X018464Y019055D01*
X018464Y019055D01*
X019001Y018953D01*
X019004Y018953D01*
X019047Y018944D01*
X019091Y018935D01*
X019094Y018933D01*
X019504Y018842D01*
X018961Y019385D01*
X016211Y019385D01*
X016135Y019461D01*
X015880Y019716D01*
X015781Y019617D01*
X015608Y019545D01*
X015422Y019545D01*
X015249Y019617D01*
X015117Y019749D01*
X015045Y019922D01*
X014985Y019922D01*
X014985Y020108D01*
X014913Y020281D01*
X014810Y020385D01*
X015220Y020385D01*
X015117Y020281D01*
X015045Y020108D01*
X015045Y019922D01*
X014985Y019922D02*
X014913Y019749D01*
X014781Y019617D01*
X014608Y019545D01*
X014422Y019545D01*
X014249Y019617D01*
X014117Y019749D01*
X014045Y019922D01*
X013985Y019922D01*
X013985Y020051D01*
X014047Y020113D01*
X014045Y020108D01*
X014045Y019922D01*
X013985Y019922D02*
X013913Y019749D01*
X013781Y019617D01*
X013608Y019545D01*
X013422Y019545D01*
X013249Y019617D01*
X013117Y019749D01*
X013045Y019922D01*
X012985Y019922D01*
X012985Y020051D01*
X013047Y020113D01*
X013045Y020108D01*
X013045Y019922D01*
X012985Y019922D02*
X012913Y019749D01*
X012781Y019617D01*
X012608Y019545D01*
X012422Y019545D01*
X012249Y019617D01*
X012117Y019749D01*
X012045Y019922D01*
X011985Y019922D01*
X011985Y020051D01*
X012047Y020113D01*
X012045Y020108D01*
X012045Y019922D01*
X011985Y019922D02*
X011913Y019749D01*
X011781Y019617D01*
X011608Y019545D01*
X011422Y019545D01*
X011249Y019617D01*
X011117Y019749D01*
X011045Y019922D01*
X010985Y019922D01*
X010913Y019749D01*
X010781Y019617D01*
X010608Y019545D01*
X010422Y019545D01*
X010249Y019617D01*
X010117Y019749D01*
X010045Y019922D01*
X009985Y019922D01*
X009985Y020051D01*
X010047Y020113D01*
X010045Y020108D01*
X010045Y019922D01*
X009985Y019922D02*
X009913Y019749D01*
X009781Y019617D01*
X009608Y019545D01*
X009422Y019545D01*
X009249Y019617D01*
X009117Y019749D01*
X009045Y019922D01*
X009077Y019844D02*
X007277Y019844D01*
X007199Y019765D02*
X009110Y019765D01*
X009179Y019687D02*
X007120Y019687D01*
X007042Y019608D02*
X009269Y019608D01*
X009761Y019608D02*
X010269Y019608D01*
X010179Y019687D02*
X009851Y019687D01*
X009920Y019765D02*
X010110Y019765D01*
X010077Y019844D02*
X009953Y019844D01*
X009985Y020001D02*
X010045Y020001D01*
X010045Y020079D02*
X010013Y020079D01*
X009880Y020315D02*
X009881Y020315D01*
X009959Y020393D02*
X009802Y020393D01*
X010417Y020483D02*
X010694Y020760D01*
X012326Y020760D01*
X011880Y020314D01*
X011781Y020413D01*
X011608Y020485D01*
X011422Y020485D01*
X011249Y020413D01*
X011117Y020281D01*
X011045Y020108D01*
X011045Y019922D01*
X010985Y019922D02*
X010985Y020108D01*
X010913Y020281D01*
X010781Y020413D01*
X010608Y020485D01*
X010422Y020485D01*
X010417Y020483D01*
X010484Y020550D02*
X012116Y020550D01*
X012038Y020472D02*
X011641Y020472D01*
X011802Y020393D02*
X011959Y020393D01*
X011881Y020315D02*
X011880Y020315D01*
X012013Y020079D02*
X012045Y020079D01*
X012045Y020001D02*
X011985Y020001D01*
X011953Y019844D02*
X012077Y019844D01*
X012110Y019765D02*
X011920Y019765D01*
X011851Y019687D02*
X012179Y019687D01*
X012269Y019608D02*
X011761Y019608D01*
X011269Y019608D02*
X010761Y019608D01*
X010851Y019687D02*
X011179Y019687D01*
X011110Y019765D02*
X010920Y019765D01*
X010953Y019844D02*
X011077Y019844D01*
X011045Y020001D02*
X010985Y020001D01*
X010985Y020079D02*
X011045Y020079D01*
X011065Y020158D02*
X010965Y020158D01*
X010932Y020236D02*
X011098Y020236D01*
X011150Y020315D02*
X010880Y020315D01*
X010802Y020393D02*
X011228Y020393D01*
X011389Y020472D02*
X010641Y020472D01*
X010562Y020629D02*
X012195Y020629D01*
X012273Y020707D02*
X010641Y020707D01*
X010351Y021571D02*
X016257Y021571D01*
X017000Y021492D02*
X009601Y021492D01*
X008850Y021414D02*
X017743Y021414D01*
X018225Y021335D02*
X008218Y021335D01*
X007701Y021257D02*
X018681Y021257D01*
X019076Y021178D02*
X007233Y021178D01*
X007773Y020707D02*
X004962Y020707D01*
X004725Y020550D02*
X004364Y020550D01*
X004645Y020629D02*
X007695Y020629D01*
X006969Y020236D02*
X005061Y020236D01*
X004719Y020236D02*
X003237Y020236D01*
X003519Y020315D02*
X004660Y020315D01*
X004660Y020393D02*
X003801Y020393D01*
X003880Y020415D02*
X003880Y020415D01*
X004082Y020472D02*
X004660Y020472D01*
X006885Y019451D02*
X010527Y019451D01*
X009812Y019373D02*
X006806Y019373D01*
X006728Y019294D02*
X009143Y019294D01*
X008618Y019216D02*
X006649Y019216D01*
X006571Y019137D02*
X008131Y019137D01*
X007688Y019059D02*
X006492Y019059D01*
X006414Y018980D02*
X007411Y018980D01*
X007181Y018902D02*
X006335Y018902D01*
X006257Y018823D02*
X006971Y018823D01*
X006789Y018745D02*
X006178Y018745D01*
X006100Y018666D02*
X006628Y018666D01*
X006461Y018588D02*
X006021Y018588D01*
X005943Y018509D02*
X006322Y018509D01*
X006186Y018431D02*
X005864Y018431D01*
X005786Y018352D02*
X006076Y018352D01*
X005961Y018274D02*
X005707Y018274D01*
X005629Y018195D02*
X005847Y018195D01*
X005756Y018117D02*
X005550Y018117D01*
X005472Y018038D02*
X005665Y018038D01*
X005603Y017960D02*
X005393Y017960D01*
X005315Y017881D02*
X005536Y017881D01*
X005468Y017803D02*
X005236Y017803D01*
X005158Y017724D02*
X005408Y017724D01*
X005348Y017646D02*
X005079Y017646D01*
X005001Y017567D02*
X005301Y017567D01*
X005253Y017489D02*
X004922Y017489D01*
X004844Y017410D02*
X005206Y017410D01*
X005158Y017332D02*
X004765Y017332D01*
X004687Y017253D02*
X005125Y017253D01*
X005088Y017175D02*
X004645Y017175D01*
X004645Y017096D02*
X005064Y017096D01*
X005037Y017018D02*
X004645Y017018D01*
X004645Y016939D02*
X005010Y016939D01*
X004982Y016861D02*
X004645Y016861D01*
X004645Y016782D02*
X004959Y016782D01*
X004942Y016704D02*
X004645Y016704D01*
X004645Y016625D02*
X004921Y016625D01*
X004908Y016547D02*
X004645Y016547D01*
X004645Y016468D02*
X004894Y016468D01*
X004881Y016390D02*
X004645Y016390D01*
X004645Y016311D02*
X004868Y016311D01*
X004854Y016233D02*
X004645Y016233D01*
X004645Y016154D02*
X004841Y016154D01*
X004828Y016076D02*
X004645Y016076D01*
X004645Y015997D02*
X004819Y015997D01*
X004810Y015919D02*
X004645Y015919D01*
X004645Y015840D02*
X004800Y015840D01*
X004791Y015762D02*
X004645Y015762D01*
X004645Y015683D02*
X004786Y015683D01*
X004779Y015605D02*
X004645Y015605D01*
X004645Y015526D02*
X004772Y015526D01*
X004766Y015448D02*
X004645Y015448D01*
X004645Y015369D02*
X004759Y015369D01*
X004752Y015291D02*
X004645Y015291D01*
X004645Y015212D02*
X004746Y015212D01*
X004739Y015134D02*
X004645Y015134D01*
X004645Y015055D02*
X004730Y015055D01*
X004729Y014977D02*
X004645Y014977D01*
X004645Y014898D02*
X004728Y014898D01*
X004727Y014820D02*
X004645Y014820D01*
X004645Y014741D02*
X004726Y014741D01*
X004725Y014663D02*
X004645Y014663D01*
X004645Y014584D02*
X004724Y014584D01*
X004723Y014506D02*
X004645Y014506D01*
X004645Y014427D02*
X004725Y014427D01*
X004728Y014349D02*
X004645Y014349D01*
X004645Y014270D02*
X004730Y014270D01*
X004732Y014192D02*
X004645Y014192D01*
X004645Y014113D02*
X004735Y014113D01*
X004737Y014035D02*
X004645Y014035D01*
X004645Y013956D02*
X004740Y013956D01*
X004742Y013878D02*
X004645Y013878D01*
X004645Y013799D02*
X004744Y013799D01*
X004747Y013721D02*
X004645Y013721D01*
X004645Y013642D02*
X004749Y013642D01*
X004751Y013564D02*
X004645Y013564D01*
X004645Y013485D02*
X004754Y013485D01*
X004756Y013407D02*
X004645Y013407D01*
X004645Y013328D02*
X004761Y013328D01*
X004766Y013250D02*
X004645Y013250D01*
X004645Y013171D02*
X004771Y013171D01*
X004776Y013093D02*
X004645Y013093D01*
X004645Y013014D02*
X004782Y013014D01*
X004787Y012936D02*
X004645Y012936D01*
X004645Y012857D02*
X004792Y012857D01*
X004797Y012779D02*
X004645Y012779D01*
X004645Y012700D02*
X004805Y012700D01*
X004812Y012622D02*
X004645Y012622D01*
X004645Y012543D02*
X004820Y012543D01*
X004828Y012465D02*
X004645Y012465D01*
X004645Y012386D02*
X004835Y012386D01*
X004843Y012308D02*
X004645Y012308D01*
X004783Y012229D02*
X004851Y012229D01*
X004858Y012151D02*
X004812Y012151D01*
X004812Y012072D02*
X004866Y012072D01*
X004873Y011994D02*
X004812Y011994D01*
X004812Y011915D02*
X004881Y011915D01*
X004889Y011837D02*
X004807Y011837D01*
X004896Y011758D02*
X004270Y011758D01*
X004812Y011680D02*
X004904Y011680D01*
X004911Y011601D02*
X004812Y011601D01*
X004812Y011523D02*
X004919Y011523D01*
X004929Y011444D02*
X004812Y011444D01*
X004842Y011366D02*
X004939Y011366D01*
X004949Y011287D02*
X004895Y011287D01*
X004385Y012308D02*
X004270Y012308D01*
X004270Y012386D02*
X004385Y012386D01*
X004385Y012465D02*
X004270Y012465D01*
X004270Y012543D02*
X004385Y012543D01*
X004385Y012622D02*
X004217Y012622D01*
X004139Y012700D02*
X004385Y012700D01*
X004385Y012779D02*
X004060Y012779D01*
X003982Y012857D02*
X004385Y012857D01*
X004385Y012936D02*
X003903Y012936D01*
X003825Y013014D02*
X004385Y013014D01*
X004385Y013093D02*
X003746Y013093D01*
X003683Y013171D02*
X004385Y013171D01*
X004385Y013250D02*
X003716Y013250D01*
X003735Y013328D02*
X004385Y013328D01*
X004385Y013407D02*
X003735Y013407D01*
X003734Y013485D02*
X004385Y013485D01*
X004385Y013564D02*
X003702Y013564D01*
X003669Y013642D02*
X004385Y013642D01*
X004385Y013721D02*
X003599Y013721D01*
X003506Y013799D02*
X004385Y013799D01*
X002755Y014430D02*
X002755Y014430D01*
X002767Y014506D02*
X002271Y014506D01*
X002243Y014584D02*
X002792Y014584D01*
X002833Y014663D02*
X002216Y014663D01*
X002188Y014741D02*
X002895Y014741D01*
X002989Y014820D02*
X002161Y014820D01*
X003225Y014820D02*
X003305Y014820D01*
X003305Y014741D02*
X003225Y014741D01*
X003225Y014663D02*
X003305Y014663D01*
X003305Y014584D02*
X003225Y014584D01*
X003225Y014506D02*
X003305Y014506D01*
X006963Y019530D02*
X016067Y019530D01*
X015988Y019608D02*
X015761Y019608D01*
X015851Y019687D02*
X015910Y019687D01*
X016145Y019451D02*
X015641Y019451D01*
X015269Y019608D02*
X014761Y019608D01*
X014851Y019687D02*
X015179Y019687D01*
X015110Y019765D02*
X014920Y019765D01*
X014953Y019844D02*
X015077Y019844D01*
X015045Y020001D02*
X014985Y020001D01*
X014985Y020079D02*
X015045Y020079D01*
X015065Y020158D02*
X014965Y020158D01*
X014932Y020236D02*
X015098Y020236D01*
X015150Y020315D02*
X014880Y020315D01*
X014045Y020079D02*
X014013Y020079D01*
X013985Y020001D02*
X014045Y020001D01*
X014077Y019844D02*
X013953Y019844D01*
X013920Y019765D02*
X014110Y019765D01*
X014179Y019687D02*
X013851Y019687D01*
X013761Y019608D02*
X014269Y019608D01*
X013269Y019608D02*
X012761Y019608D01*
X012851Y019687D02*
X013179Y019687D01*
X013110Y019765D02*
X012920Y019765D01*
X012953Y019844D02*
X013077Y019844D01*
X013045Y020001D02*
X012985Y020001D01*
X013013Y020079D02*
X013045Y020079D01*
X016134Y019373D02*
X018974Y019373D01*
X019052Y019294D02*
X016931Y019294D01*
X017553Y019216D02*
X019131Y019216D01*
X019209Y019137D02*
X018032Y019137D01*
X018444Y019059D02*
X019288Y019059D01*
X019366Y018980D02*
X018856Y018980D01*
X019236Y018902D02*
X019445Y018902D01*
X021279Y019530D02*
X023317Y019530D01*
X023238Y019608D02*
X020995Y019608D01*
X020893Y019687D02*
X020710Y019687D01*
X020815Y019765D02*
X020449Y019765D01*
X020370Y019844D02*
X020785Y019844D01*
X020785Y019922D02*
X020292Y019922D01*
X020213Y020001D02*
X020800Y020001D01*
X020879Y020079D02*
X020135Y020079D01*
X020056Y020158D02*
X022847Y020158D01*
X022929Y020135D02*
X022929Y020135D01*
X023127Y020079D02*
X021151Y020079D01*
X021722Y020472D02*
X019742Y020472D01*
X019664Y020550D02*
X021436Y020550D01*
X021151Y020629D02*
X019585Y020629D01*
X019507Y020707D02*
X020864Y020707D01*
X020573Y020786D02*
X019428Y020786D01*
X019350Y020864D02*
X020277Y020864D01*
X020105Y020909D02*
X020105Y020909D01*
X019976Y020943D02*
X019271Y020943D01*
X019193Y021021D02*
X019676Y021021D01*
X019376Y021100D02*
X019114Y021100D01*
X018461Y020385D02*
X017866Y020385D01*
X017904Y020347D01*
X017951Y020282D01*
X017988Y020211D01*
X018012Y020134D01*
X018025Y020055D01*
X018025Y020055D01*
X017555Y020055D01*
X017555Y019975D01*
X018025Y019975D01*
X018025Y019975D01*
X018012Y019896D01*
X017988Y019819D01*
X017951Y019748D01*
X017904Y019683D01*
X017866Y019645D01*
X018685Y019645D01*
X018660Y019670D01*
X018660Y019860D01*
X018795Y019995D01*
X018851Y019995D01*
X018461Y020385D01*
X018532Y020315D02*
X017928Y020315D01*
X017975Y020236D02*
X018610Y020236D01*
X018689Y020158D02*
X018005Y020158D01*
X018021Y020079D02*
X018767Y020079D01*
X018846Y020001D02*
X017555Y020001D01*
X017475Y020001D02*
X016985Y020001D01*
X017005Y019975D02*
X017005Y019975D01*
X017475Y019975D01*
X017475Y020055D01*
X017005Y020055D01*
X017005Y020055D01*
X017018Y020134D01*
X017042Y020211D01*
X017079Y020282D01*
X017126Y020347D01*
X017164Y020385D01*
X016810Y020385D01*
X016913Y020281D01*
X016985Y020108D01*
X016985Y019922D01*
X017013Y019922D01*
X017018Y019896D02*
X017042Y019819D01*
X017079Y019748D01*
X017126Y019683D01*
X017164Y019645D01*
X016810Y019645D01*
X016913Y019749D01*
X016985Y019922D01*
X017018Y019896D02*
X017005Y019975D01*
X017009Y020079D02*
X016985Y020079D01*
X016965Y020158D02*
X017025Y020158D01*
X017055Y020236D02*
X016932Y020236D01*
X016880Y020315D02*
X017102Y020315D01*
X017034Y019844D02*
X016953Y019844D01*
X016920Y019765D02*
X017070Y019765D01*
X017123Y019687D02*
X016851Y019687D01*
X017907Y019687D02*
X018660Y019687D01*
X018660Y019765D02*
X017960Y019765D01*
X017996Y019844D02*
X018660Y019844D01*
X018722Y019922D02*
X018017Y019922D01*
X019821Y020393D02*
X022006Y020393D01*
X022288Y020315D02*
X019899Y020315D01*
X019978Y020236D02*
X022568Y020236D01*
X023213Y020001D02*
X023405Y020001D01*
X023292Y019922D02*
X023682Y019922D01*
X023449Y019765D02*
X024234Y019765D01*
X024051Y019817D02*
X024051Y019817D01*
X023959Y019843D02*
X023959Y019843D01*
X023958Y019844D02*
X023370Y019844D01*
X023527Y019687D02*
X024611Y019687D01*
X024313Y019451D02*
X023763Y019451D01*
X023684Y019530D02*
X027943Y019530D01*
X027646Y019541D02*
X027646Y019541D01*
X027854Y019216D02*
X028176Y019216D01*
X028109Y019137D02*
X027921Y019137D01*
X027954Y019059D02*
X028076Y019059D01*
X028045Y018980D02*
X027985Y018980D01*
X027985Y018902D02*
X028045Y018902D01*
X028045Y018823D02*
X027985Y018823D01*
X027963Y018745D02*
X028067Y018745D01*
X028099Y018666D02*
X027931Y018666D01*
X027877Y018588D02*
X028153Y018588D01*
X028231Y018509D02*
X027799Y018509D01*
X027634Y018431D02*
X028396Y018431D01*
X028634Y018431D02*
X029396Y018431D01*
X029231Y018509D02*
X028799Y018509D01*
X028877Y018588D02*
X029153Y018588D01*
X029099Y018666D02*
X028931Y018666D01*
X028963Y018745D02*
X029067Y018745D01*
X029045Y018823D02*
X028985Y018823D01*
X028985Y018902D02*
X029045Y018902D01*
X029045Y018980D02*
X028985Y018980D01*
X028954Y019059D02*
X029076Y019059D01*
X029109Y019137D02*
X028921Y019137D01*
X028854Y019216D02*
X029176Y019216D01*
X029854Y019216D02*
X030176Y019216D01*
X030109Y019137D02*
X029921Y019137D01*
X029954Y019059D02*
X030076Y019059D01*
X030045Y018980D02*
X029985Y018980D01*
X029985Y018902D02*
X030045Y018902D01*
X030045Y018823D02*
X029985Y018823D01*
X029963Y018745D02*
X030067Y018745D01*
X030099Y018666D02*
X029931Y018666D01*
X029877Y018588D02*
X030153Y018588D01*
X030231Y018509D02*
X029799Y018509D01*
X029634Y018431D02*
X030396Y018431D01*
X030634Y018431D02*
X031396Y018431D01*
X031231Y018509D02*
X030799Y018509D01*
X030877Y018588D02*
X031153Y018588D01*
X031099Y018666D02*
X030931Y018666D01*
X030963Y018745D02*
X031067Y018745D01*
X031045Y018823D02*
X030985Y018823D01*
X030985Y018902D02*
X031045Y018902D01*
X031045Y018980D02*
X030985Y018980D01*
X030954Y019059D02*
X031076Y019059D01*
X031109Y019137D02*
X030921Y019137D01*
X030854Y019216D02*
X031176Y019216D01*
X031326Y019530D02*
X035346Y019530D01*
X035424Y019608D02*
X033093Y019608D01*
X033319Y019363D02*
X033396Y019387D01*
X033475Y019400D01*
X033475Y019400D01*
X033475Y018930D01*
X033555Y018930D01*
X033555Y019400D01*
X033555Y019400D01*
X033634Y019387D01*
X033711Y019363D01*
X033782Y019326D01*
X033847Y019279D01*
X033904Y019222D01*
X033951Y019157D01*
X033988Y019086D01*
X034012Y019009D01*
X034025Y018930D01*
X034025Y018930D01*
X033555Y018930D01*
X033555Y018850D01*
X034025Y018850D01*
X034025Y018850D01*
X034012Y018771D01*
X033988Y018694D01*
X033951Y018623D01*
X033904Y018558D01*
X033847Y018501D01*
X033782Y018454D01*
X033711Y018417D01*
X033634Y018393D01*
X033555Y018380D01*
X033555Y018380D01*
X033555Y018850D01*
X033475Y018850D01*
X033005Y018850D01*
X033005Y018850D01*
X033018Y018771D01*
X033042Y018694D01*
X033079Y018623D01*
X033126Y018558D01*
X033183Y018501D01*
X033248Y018454D01*
X033319Y018417D01*
X033396Y018393D01*
X033475Y018380D01*
X033475Y018850D01*
X033475Y018930D01*
X033005Y018930D01*
X033005Y018930D01*
X033018Y019009D01*
X033042Y019086D01*
X033079Y019157D01*
X033126Y019222D01*
X033183Y019279D01*
X033248Y019326D01*
X033319Y019363D01*
X033350Y019373D02*
X032216Y019373D01*
X032138Y019451D02*
X035267Y019451D01*
X035189Y019373D02*
X033680Y019373D01*
X033555Y019373D02*
X033475Y019373D01*
X033475Y019294D02*
X033555Y019294D01*
X033555Y019216D02*
X033475Y019216D01*
X033475Y019137D02*
X033555Y019137D01*
X033555Y019059D02*
X033475Y019059D01*
X033475Y018980D02*
X033555Y018980D01*
X033555Y018902D02*
X034718Y018902D01*
X034796Y018980D02*
X034017Y018980D01*
X033996Y019059D02*
X034875Y019059D01*
X034953Y019137D02*
X033962Y019137D01*
X033909Y019216D02*
X035032Y019216D01*
X035110Y019294D02*
X033827Y019294D01*
X033203Y019294D02*
X032768Y019294D01*
X032854Y019216D02*
X033121Y019216D01*
X033068Y019137D02*
X032921Y019137D01*
X032954Y019059D02*
X033034Y019059D01*
X033013Y018980D02*
X032985Y018980D01*
X032985Y018902D02*
X033475Y018902D01*
X033475Y018823D02*
X033555Y018823D01*
X033555Y018745D02*
X033475Y018745D01*
X033475Y018666D02*
X033555Y018666D01*
X033555Y018588D02*
X033475Y018588D01*
X033475Y018509D02*
X033555Y018509D01*
X033555Y018431D02*
X033475Y018431D01*
X033475Y018380D02*
X033475Y018380D01*
X033293Y018431D02*
X032645Y018431D01*
X032645Y018352D02*
X034510Y018352D01*
X034510Y018274D02*
X032645Y018274D01*
X032645Y018195D02*
X034510Y018195D01*
X034510Y018117D02*
X032645Y018117D01*
X032645Y018038D02*
X034510Y018038D01*
X034510Y017960D02*
X032645Y017960D01*
X032645Y017881D02*
X034510Y017881D01*
X034510Y017803D02*
X032645Y017803D01*
X032645Y017724D02*
X034510Y017724D01*
X034510Y017646D02*
X032710Y017646D01*
X032745Y017567D02*
X034492Y017567D01*
X034413Y017489D02*
X032745Y017489D01*
X032735Y017410D02*
X034410Y017410D01*
X034410Y017332D02*
X032657Y017332D01*
X032373Y017332D02*
X025507Y017332D01*
X025429Y017410D02*
X032295Y017410D01*
X032285Y017489D02*
X025350Y017489D01*
X025272Y017567D02*
X027388Y017567D01*
X027642Y017567D02*
X032285Y017567D01*
X032320Y017646D02*
X027721Y017646D01*
X027745Y017724D02*
X032385Y017724D01*
X032385Y017803D02*
X027745Y017803D01*
X027724Y017881D02*
X032385Y017881D01*
X032385Y017960D02*
X027646Y017960D01*
X027384Y017960D02*
X026879Y017960D01*
X026801Y018038D02*
X032385Y018038D01*
X032385Y018117D02*
X026722Y018117D01*
X026644Y018195D02*
X032385Y018195D01*
X032385Y018274D02*
X026565Y018274D01*
X026487Y018352D02*
X032385Y018352D01*
X032385Y018431D02*
X031634Y018431D01*
X031799Y018509D02*
X032231Y018509D01*
X032153Y018588D02*
X031877Y018588D01*
X031931Y018666D02*
X032099Y018666D01*
X032067Y018745D02*
X031963Y018745D01*
X031985Y018823D02*
X032045Y018823D01*
X032045Y018902D02*
X031985Y018902D01*
X031985Y018980D02*
X032045Y018980D01*
X032076Y019059D02*
X031954Y019059D01*
X031921Y019137D02*
X032084Y019137D01*
X032006Y019216D02*
X031854Y019216D01*
X032985Y018823D02*
X033009Y018823D01*
X033026Y018745D02*
X032963Y018745D01*
X032931Y018666D02*
X033057Y018666D01*
X033104Y018588D02*
X032877Y018588D01*
X032799Y018509D02*
X033175Y018509D01*
X033737Y018431D02*
X034510Y018431D01*
X034510Y018509D02*
X033855Y018509D01*
X033926Y018588D02*
X034510Y018588D01*
X034510Y018666D02*
X033973Y018666D01*
X034004Y018745D02*
X034561Y018745D01*
X034639Y018823D02*
X034021Y018823D01*
X034771Y018588D02*
X034992Y018588D01*
X035010Y018509D02*
X034770Y018509D01*
X034770Y018431D02*
X035010Y018431D01*
X035010Y018352D02*
X034770Y018352D01*
X034770Y018274D02*
X035010Y018274D01*
X035010Y018195D02*
X034770Y018195D01*
X034770Y018117D02*
X035010Y018117D01*
X035010Y018038D02*
X034770Y018038D01*
X034770Y017960D02*
X035010Y017960D01*
X035010Y017881D02*
X034770Y017881D01*
X034770Y017803D02*
X035010Y017803D01*
X035010Y017724D02*
X034770Y017724D01*
X034770Y017646D02*
X035010Y017646D01*
X034992Y017567D02*
X034788Y017567D01*
X034867Y017489D02*
X034913Y017489D01*
X034910Y017410D02*
X034870Y017410D01*
X034870Y017332D02*
X034910Y017332D01*
X034952Y017253D02*
X034828Y017253D01*
X034750Y017175D02*
X035030Y017175D01*
X035250Y017175D02*
X035615Y017175D01*
X035672Y017253D02*
X035328Y017253D01*
X035370Y017332D02*
X035771Y017332D01*
X035871Y017410D02*
X035370Y017410D01*
X035367Y017489D02*
X035970Y017489D01*
X036070Y017567D02*
X035288Y017567D01*
X035270Y017646D02*
X036186Y017646D01*
X036327Y017724D02*
X035270Y017724D01*
X035270Y017803D02*
X036468Y017803D01*
X036645Y017881D02*
X035270Y017881D01*
X035270Y017960D02*
X036815Y017960D01*
X036700Y017906D02*
X036700Y017906D01*
X036986Y018038D02*
X035270Y018038D01*
X035270Y018117D02*
X037181Y018117D01*
X037391Y018195D02*
X035270Y018195D01*
X035270Y018274D02*
X037627Y018274D01*
X037862Y018352D02*
X035270Y018352D01*
X035270Y018431D02*
X038119Y018431D01*
X038373Y018501D02*
X038373Y018501D01*
X038404Y018509D02*
X035270Y018509D01*
X035288Y018588D02*
X038713Y018588D01*
X039015Y018666D02*
X035366Y018666D01*
X035370Y018745D02*
X039348Y018745D01*
X039680Y018823D02*
X035370Y018823D01*
X035329Y018902D02*
X040032Y018902D01*
X040413Y018980D02*
X035250Y018980D01*
X035242Y019059D02*
X040824Y019059D01*
X040804Y019055D02*
X040804Y019055D01*
X040898Y019073D02*
X040898Y019073D01*
X041237Y019137D02*
X035321Y019137D01*
X035399Y019216D02*
X035614Y019216D01*
X035536Y019294D02*
X035478Y019294D01*
X035916Y019216D02*
X041672Y019216D01*
X042142Y019294D02*
X035994Y019294D01*
X035995Y019373D02*
X042750Y019373D01*
X043383Y019451D02*
X036010Y019451D01*
X035581Y019765D02*
X035035Y019765D01*
X035311Y019844D02*
X035660Y019844D01*
X035587Y019922D02*
X056996Y019922D01*
X057222Y019844D02*
X052370Y019844D01*
X052395Y019819D02*
X052395Y019819D01*
X052449Y019765D02*
X057448Y019765D01*
X057246Y019835D02*
X057246Y019835D01*
X057674Y019687D02*
X052527Y019687D01*
X052606Y019608D02*
X057893Y019608D01*
X058096Y019530D02*
X052684Y019530D01*
X052763Y019451D02*
X058298Y019451D01*
X058492Y019373D02*
X052841Y019373D01*
X052920Y019294D02*
X054844Y019294D01*
X054785Y019216D02*
X052998Y019216D01*
X053077Y019137D02*
X054785Y019137D01*
X054785Y019059D02*
X053155Y019059D01*
X053234Y018980D02*
X054850Y018980D01*
X054885Y018902D02*
X053312Y018902D01*
X053391Y018823D02*
X054885Y018823D01*
X054885Y018745D02*
X053469Y018745D01*
X053548Y018666D02*
X054885Y018666D01*
X054885Y018588D02*
X053626Y018588D01*
X053705Y018509D02*
X054885Y018509D01*
X054885Y018431D02*
X053783Y018431D01*
X053862Y018352D02*
X054885Y018352D01*
X054885Y018274D02*
X053940Y018274D01*
X054019Y018195D02*
X054885Y018195D01*
X054885Y018117D02*
X054097Y018117D01*
X054176Y018038D02*
X054885Y018038D01*
X054885Y017960D02*
X054254Y017960D01*
X054333Y017881D02*
X054885Y017881D01*
X054885Y017803D02*
X054411Y017803D01*
X054490Y017724D02*
X054885Y017724D01*
X054885Y017646D02*
X054568Y017646D01*
X054647Y017567D02*
X054885Y017567D01*
X054885Y017489D02*
X054725Y017489D01*
X054804Y017410D02*
X054885Y017410D01*
X055145Y017410D02*
X055462Y017410D01*
X055433Y017422D02*
X055600Y017353D01*
X055782Y017353D01*
X055950Y017422D01*
X056078Y017551D01*
X056148Y017718D01*
X056148Y017900D01*
X056078Y018068D01*
X055950Y018196D01*
X055782Y018266D01*
X055600Y018266D01*
X055433Y018196D01*
X055304Y018068D01*
X055235Y017900D01*
X055235Y017718D01*
X055304Y017551D01*
X055433Y017422D01*
X055366Y017489D02*
X055145Y017489D01*
X055145Y017567D02*
X055297Y017567D01*
X055265Y017646D02*
X055145Y017646D01*
X055145Y017724D02*
X055235Y017724D01*
X055235Y017803D02*
X055145Y017803D01*
X055145Y017881D02*
X055235Y017881D01*
X055259Y017960D02*
X055145Y017960D01*
X055145Y018038D02*
X055292Y018038D01*
X055353Y018117D02*
X055145Y018117D01*
X055145Y018195D02*
X055431Y018195D01*
X055145Y018274D02*
X058677Y018274D01*
X058691Y018352D02*
X055145Y018352D01*
X055145Y018431D02*
X058705Y018431D01*
X058719Y018509D02*
X055145Y018509D01*
X055145Y018588D02*
X058733Y018588D01*
X058746Y018666D02*
X055145Y018666D01*
X055145Y018745D02*
X058760Y018745D01*
X058774Y018823D02*
X055145Y018823D01*
X055145Y018902D02*
X058788Y018902D01*
X058802Y018980D02*
X055180Y018980D01*
X055245Y019059D02*
X058816Y019059D01*
X058830Y019137D02*
X055245Y019137D01*
X055245Y019216D02*
X058844Y019216D01*
X058686Y019294D02*
X055186Y019294D01*
X056770Y020001D02*
X035864Y020001D01*
X036142Y020079D02*
X056528Y020079D01*
X056283Y020158D02*
X036422Y020158D01*
X036701Y020236D02*
X056031Y020236D01*
X055750Y020315D02*
X036981Y020315D01*
X037262Y020393D02*
X055468Y020393D01*
X055187Y020472D02*
X037547Y020472D01*
X037775Y020534D02*
X037775Y020534D01*
X037833Y020550D02*
X054905Y020550D01*
X054623Y020629D02*
X038118Y020629D01*
X038405Y020707D02*
X054307Y020707D01*
X053987Y020786D02*
X038695Y020786D01*
X038992Y020864D02*
X053642Y020864D01*
X053241Y020943D02*
X039292Y020943D01*
X039593Y021021D02*
X052839Y021021D01*
X052438Y021100D02*
X039893Y021100D01*
X040193Y021178D02*
X052036Y021178D01*
X051568Y021257D02*
X040588Y021257D01*
X041043Y021335D02*
X051051Y021335D01*
X050418Y021414D02*
X041526Y021414D01*
X042269Y021492D02*
X049668Y021492D01*
X048918Y021571D02*
X043012Y021571D01*
X043756Y021649D02*
X047904Y021649D01*
X055951Y018195D02*
X056416Y018195D01*
X056417Y018196D02*
X056288Y018068D01*
X056219Y017900D01*
X056219Y017718D01*
X056288Y017551D01*
X056417Y017422D01*
X056585Y017353D01*
X056766Y017353D01*
X056934Y017422D01*
X057062Y017551D01*
X057132Y017718D01*
X057132Y017900D01*
X057062Y018068D01*
X056934Y018196D01*
X056766Y018266D01*
X056585Y018266D01*
X056417Y018196D01*
X056337Y018117D02*
X056030Y018117D01*
X056091Y018038D02*
X056276Y018038D01*
X056244Y017960D02*
X056123Y017960D01*
X056148Y017881D02*
X056219Y017881D01*
X056219Y017803D02*
X056148Y017803D01*
X056148Y017724D02*
X056219Y017724D01*
X056249Y017646D02*
X056118Y017646D01*
X056085Y017567D02*
X056282Y017567D01*
X056351Y017489D02*
X056016Y017489D01*
X055920Y017410D02*
X056446Y017410D01*
X056905Y017410D02*
X058524Y017410D01*
X058510Y017332D02*
X055149Y017332D01*
X055227Y017253D02*
X058497Y017253D01*
X058483Y017175D02*
X055245Y017175D01*
X055245Y017096D02*
X058469Y017096D01*
X058455Y017018D02*
X055218Y017018D01*
X055139Y016939D02*
X055489Y016939D01*
X055410Y016861D02*
X054895Y016861D01*
X054895Y016782D02*
X055410Y016782D01*
X055410Y016704D02*
X054895Y016704D01*
X054895Y016625D02*
X055455Y016625D01*
X055510Y016547D02*
X054895Y016547D01*
X054895Y016468D02*
X055510Y016468D01*
X055510Y016390D02*
X054895Y016390D01*
X054895Y016311D02*
X055510Y016311D01*
X055510Y016233D02*
X054895Y016233D01*
X054895Y016154D02*
X055510Y016154D01*
X055510Y016076D02*
X054895Y016076D01*
X054895Y015997D02*
X055510Y015997D01*
X055510Y015919D02*
X054895Y015919D01*
X054895Y015840D02*
X055510Y015840D01*
X055510Y015762D02*
X054895Y015762D01*
X054895Y015683D02*
X055510Y015683D01*
X055510Y015605D02*
X054895Y015605D01*
X054895Y015526D02*
X055510Y015526D01*
X055510Y015448D02*
X054895Y015448D01*
X054895Y015369D02*
X055510Y015369D01*
X055510Y015291D02*
X054895Y015291D01*
X054895Y015212D02*
X055510Y015212D01*
X055496Y015134D02*
X054895Y015134D01*
X054895Y015055D02*
X055417Y015055D01*
X055410Y014977D02*
X054895Y014977D01*
X054895Y014898D02*
X055410Y014898D01*
X055448Y014820D02*
X054895Y014820D01*
X054895Y014741D02*
X055526Y014741D01*
X055754Y014741D02*
X055791Y014741D01*
X055785Y014663D02*
X054895Y014663D01*
X054895Y014584D02*
X055785Y014584D01*
X055824Y014506D02*
X054895Y014506D01*
X054895Y014427D02*
X055903Y014427D01*
X056007Y014349D02*
X056010Y014349D01*
X055773Y014349D02*
X054895Y014349D01*
X054944Y014270D02*
X055695Y014270D01*
X055660Y014192D02*
X055022Y014192D01*
X055101Y014113D02*
X055660Y014113D01*
X055670Y014035D02*
X055179Y014035D01*
X055258Y013956D02*
X055749Y013956D01*
X055885Y013878D02*
X055336Y013878D01*
X055415Y013799D02*
X055599Y013799D01*
X055535Y013721D02*
X055493Y013721D01*
X056395Y013721D02*
X056833Y013721D01*
X056848Y013799D02*
X056395Y013799D01*
X056395Y013878D02*
X056862Y013878D01*
X056877Y013956D02*
X056395Y013956D01*
X056395Y014035D02*
X056891Y014035D01*
X056905Y014113D02*
X056395Y014113D01*
X056395Y014192D02*
X056922Y014192D01*
X056939Y014270D02*
X056395Y014270D01*
X056395Y014349D02*
X056955Y014349D01*
X056970Y014427D02*
X056395Y014427D01*
X056395Y014506D02*
X056998Y014506D01*
X057025Y014584D02*
X056395Y014584D01*
X056395Y014663D02*
X057053Y014663D01*
X057080Y014741D02*
X056395Y014741D01*
X056395Y014820D02*
X057108Y014820D01*
X057135Y014898D02*
X056473Y014898D01*
X056495Y014977D02*
X057163Y014977D01*
X057191Y015055D02*
X056495Y015055D01*
X056472Y015134D02*
X057237Y015134D01*
X057279Y015212D02*
X056393Y015212D01*
X056137Y015212D02*
X056120Y015212D01*
X056120Y015291D02*
X057318Y015291D01*
X057386Y015369D02*
X056049Y015369D01*
X056020Y015448D02*
X057463Y015448D01*
X057541Y015526D02*
X056020Y015526D01*
X056020Y015605D02*
X057618Y015605D01*
X057696Y015683D02*
X056020Y015683D01*
X056020Y015762D02*
X057785Y015762D01*
X057930Y015840D02*
X056020Y015840D01*
X056020Y015919D02*
X058073Y015919D01*
X058274Y015997D02*
X056020Y015997D01*
X056020Y016076D02*
X058288Y016076D01*
X058302Y016154D02*
X056020Y016154D01*
X056020Y016233D02*
X058316Y016233D01*
X058330Y016311D02*
X056020Y016311D01*
X056090Y016390D02*
X058344Y016390D01*
X058358Y016468D02*
X056120Y016468D01*
X056120Y016547D02*
X058372Y016547D01*
X058386Y016625D02*
X056105Y016625D01*
X056027Y016704D02*
X058399Y016704D01*
X058413Y016782D02*
X055870Y016782D01*
X055870Y016861D02*
X058427Y016861D01*
X058441Y016939D02*
X055791Y016939D01*
X057000Y017489D02*
X058538Y017489D01*
X058552Y017567D02*
X057069Y017567D01*
X057102Y017646D02*
X058566Y017646D01*
X058566Y017649D02*
X058566Y017649D01*
X058580Y017724D02*
X057132Y017724D01*
X057132Y017803D02*
X058594Y017803D01*
X058608Y017881D02*
X057132Y017881D01*
X057107Y017960D02*
X058621Y017960D01*
X058635Y018038D02*
X057075Y018038D01*
X057014Y018117D02*
X058649Y018117D01*
X058663Y018195D02*
X056935Y018195D01*
X056035Y014977D02*
X055989Y014977D01*
X056057Y014898D02*
X055870Y014898D01*
X055869Y014820D02*
X055832Y014820D01*
X056395Y013642D02*
X056819Y013642D01*
X056804Y013564D02*
X056395Y013564D01*
X056395Y013485D02*
X056790Y013485D01*
X056775Y013407D02*
X056395Y013407D01*
X056395Y013328D02*
X056763Y013328D01*
X056751Y013250D02*
X056395Y013250D01*
X056395Y013171D02*
X056738Y013171D01*
X056726Y013093D02*
X056395Y013093D01*
X056395Y013014D02*
X056709Y013014D01*
X056692Y012936D02*
X056395Y012936D01*
X056395Y012857D02*
X056674Y012857D01*
X056657Y012779D02*
X056657Y012779D01*
X056395Y012779D01*
X056395Y012700D02*
X056639Y012700D01*
X056636Y012686D02*
X056636Y012686D01*
X056622Y012622D02*
X056395Y012622D01*
X056395Y012543D02*
X056605Y012543D01*
X056587Y012465D02*
X056395Y012465D01*
X056395Y012386D02*
X056570Y012386D01*
X056555Y012308D02*
X056395Y012308D01*
X056395Y012229D02*
X056541Y012229D01*
X056527Y012151D02*
X056395Y012151D01*
X056381Y012072D02*
X056513Y012072D01*
X056499Y011994D02*
X056302Y011994D01*
X056224Y011915D02*
X056485Y011915D01*
X056477Y011872D02*
X056477Y011872D01*
X056471Y011837D02*
X056145Y011837D01*
X056067Y011758D02*
X056457Y011758D01*
X056444Y011680D02*
X056020Y011680D01*
X056020Y011601D02*
X056430Y011601D01*
X056416Y011523D02*
X056020Y011523D01*
X056020Y011444D02*
X056402Y011444D01*
X056405Y011461D02*
X056405Y011461D01*
X056389Y011367D02*
X056389Y011367D01*
X056388Y011366D02*
X056020Y011366D01*
X056020Y011287D02*
X056374Y011287D01*
X056361Y011209D02*
X056020Y011209D01*
X056020Y011130D02*
X056347Y011130D01*
X056333Y011052D02*
X056020Y011052D01*
X056020Y010973D02*
X056319Y010973D01*
X056316Y010956D02*
X056316Y010956D01*
X056305Y010895D02*
X056020Y010895D01*
X056020Y010816D02*
X056292Y010816D01*
X056278Y010738D02*
X056020Y010738D01*
X056020Y010659D02*
X056265Y010659D01*
X056251Y010581D02*
X056020Y010581D01*
X056020Y010502D02*
X056237Y010502D01*
X056224Y010424D02*
X056020Y010424D01*
X056020Y010345D02*
X056210Y010345D01*
X056195Y010267D02*
X056020Y010267D01*
X056020Y010188D02*
X056180Y010188D01*
X056165Y010110D02*
X056020Y010110D01*
X056020Y010031D02*
X056150Y010031D01*
X056135Y009953D02*
X056020Y009953D01*
X056020Y009874D02*
X056120Y009874D01*
X056104Y009796D02*
X056020Y009796D01*
X056020Y009717D02*
X056089Y009717D01*
X056074Y009639D02*
X056020Y009639D01*
X056020Y009560D02*
X056059Y009560D01*
X056044Y009482D02*
X056020Y009482D01*
X056020Y009403D02*
X056029Y009403D01*
X055001Y009639D02*
X054066Y009639D01*
X054081Y009717D02*
X055010Y009717D01*
X055010Y009796D02*
X054093Y009796D01*
X054106Y009874D02*
X055010Y009874D01*
X055010Y009953D02*
X054119Y009953D01*
X054131Y010031D02*
X055010Y010031D01*
X055010Y010110D02*
X054144Y010110D01*
X054156Y010188D02*
X055010Y010188D01*
X055010Y010267D02*
X054169Y010267D01*
X054181Y010345D02*
X055010Y010345D01*
X055010Y010424D02*
X054194Y010424D01*
X054183Y010352D02*
X054183Y010352D01*
X054207Y010502D02*
X055010Y010502D01*
X055010Y010581D02*
X054219Y010581D01*
X054232Y010659D02*
X055010Y010659D01*
X055010Y010738D02*
X054244Y010738D01*
X054257Y010816D02*
X055010Y010816D01*
X055010Y010895D02*
X054270Y010895D01*
X054280Y010973D02*
X055010Y010973D01*
X055010Y011052D02*
X054290Y011052D01*
X054300Y011130D02*
X055010Y011130D01*
X054871Y011209D02*
X054309Y011209D01*
X054319Y011287D02*
X054793Y011287D01*
X054785Y011366D02*
X054329Y011366D01*
X054339Y011444D02*
X054785Y011444D01*
X054822Y011523D02*
X054350Y011523D01*
X054357Y011601D02*
X054901Y011601D01*
X055129Y011601D02*
X055135Y011601D01*
X055135Y011680D02*
X054365Y011680D01*
X054373Y011758D02*
X055135Y011758D01*
X055135Y011837D02*
X054380Y011837D01*
X054388Y011915D02*
X055135Y011915D01*
X055135Y011994D02*
X054395Y011994D01*
X054403Y012072D02*
X055135Y012072D01*
X055135Y012151D02*
X054411Y012151D01*
X054418Y012229D02*
X055135Y012229D01*
X055135Y012308D02*
X054426Y012308D01*
X054434Y012386D02*
X055135Y012386D01*
X055135Y012465D02*
X054977Y012465D01*
X055056Y012543D02*
X055135Y012543D01*
X055100Y012622D02*
X055057Y012622D01*
X054678Y012465D02*
X054441Y012465D01*
X054449Y012543D02*
X054553Y012543D01*
X054475Y012622D02*
X054456Y012622D01*
X054050Y009560D02*
X054972Y009560D01*
X054943Y009482D02*
X054035Y009482D01*
X054019Y009403D02*
X054915Y009403D01*
X054886Y009325D02*
X054004Y009325D01*
X053988Y009246D02*
X054857Y009246D01*
X054828Y009168D02*
X053975Y009168D01*
X053957Y009089D02*
X054800Y009089D01*
X054771Y009011D02*
X053935Y009011D01*
X053916Y008932D02*
X054742Y008932D01*
X054713Y008854D02*
X053896Y008854D01*
X053876Y008775D02*
X054684Y008775D01*
X054656Y008697D02*
X053856Y008697D01*
X053836Y008618D02*
X054627Y008618D01*
X054598Y008540D02*
X053817Y008540D01*
X053797Y008461D02*
X054569Y008461D01*
X054540Y008383D02*
X053777Y008383D01*
X053758Y008304D02*
X054512Y008304D01*
X054483Y008226D02*
X053737Y008226D01*
X053716Y008147D02*
X054454Y008147D01*
X054425Y008069D02*
X053696Y008069D01*
X053675Y007990D02*
X054397Y007990D01*
X054368Y007912D02*
X053656Y007912D01*
X053631Y007833D02*
X054339Y007833D01*
X054310Y007755D02*
X053607Y007755D01*
X053582Y007676D02*
X054281Y007676D01*
X054253Y007598D02*
X053558Y007598D01*
X053533Y007519D02*
X054224Y007519D01*
X054195Y007441D02*
X053509Y007441D01*
X053523Y007488D02*
X053523Y007488D01*
X053484Y007362D02*
X054166Y007362D01*
X054137Y007284D02*
X053460Y007284D01*
X053435Y007205D02*
X054109Y007205D01*
X054080Y007127D02*
X053411Y007127D01*
X053387Y007048D02*
X054051Y007048D01*
X054022Y006970D02*
X053362Y006970D01*
X053332Y006891D02*
X053994Y006891D01*
X053965Y006813D02*
X053304Y006813D01*
X053276Y006734D02*
X053936Y006734D01*
X053907Y006656D02*
X053248Y006656D01*
X053220Y006577D02*
X053878Y006577D01*
X053850Y006499D02*
X053192Y006499D01*
X053154Y006420D02*
X053821Y006420D01*
X053792Y006342D02*
X053119Y006342D01*
X053084Y006263D02*
X053763Y006263D01*
X053735Y006185D02*
X053049Y006185D01*
X053015Y006106D02*
X053706Y006106D01*
X053677Y006028D02*
X052980Y006028D01*
X052945Y005949D02*
X053640Y005949D01*
X053562Y005871D02*
X052910Y005871D01*
X052875Y005792D02*
X053483Y005792D01*
X053405Y005714D02*
X052840Y005714D01*
X052807Y005635D02*
X053326Y005635D01*
X053248Y005557D02*
X052764Y005557D01*
X052722Y005478D02*
X053169Y005478D01*
X053091Y005400D02*
X052680Y005400D01*
X052638Y005321D02*
X053012Y005321D01*
X052934Y005243D02*
X052596Y005243D01*
X052555Y005164D02*
X052855Y005164D01*
X052777Y005086D02*
X052500Y005086D01*
X052444Y005007D02*
X052698Y005007D01*
X052620Y004929D02*
X052388Y004929D01*
X052332Y004850D02*
X052541Y004850D01*
X052463Y004772D02*
X052276Y004772D01*
X052286Y004785D02*
X052286Y004785D01*
X052221Y004693D02*
X052384Y004693D01*
X052306Y004615D02*
X052165Y004615D01*
X052109Y004536D02*
X052227Y004536D01*
X052149Y004458D02*
X052053Y004458D01*
X052070Y004379D02*
X051997Y004379D01*
X051992Y004301D02*
X051934Y004301D01*
X051913Y004222D02*
X051861Y004222D01*
X051835Y004144D02*
X051788Y004144D01*
X051756Y004065D02*
X051715Y004065D01*
X051678Y003987D02*
X051643Y003987D01*
X051599Y003908D02*
X051547Y003908D01*
X051521Y003830D02*
X051438Y003830D01*
X051442Y003751D02*
X051328Y003751D01*
X051364Y003673D02*
X051218Y003673D01*
X051252Y003697D02*
X051252Y003697D01*
X051285Y003594D02*
X051109Y003594D01*
X051207Y003516D02*
X050999Y003516D01*
X050889Y003437D02*
X051128Y003437D01*
X051050Y003359D02*
X050763Y003359D01*
X050604Y003280D02*
X050971Y003280D01*
X050893Y003202D02*
X050445Y003202D01*
X050265Y003123D02*
X050814Y003123D01*
X050736Y003045D02*
X050049Y003045D01*
X049896Y002989D02*
X049896Y002989D01*
X049834Y002966D02*
X050657Y002966D01*
X050579Y002888D02*
X049618Y002888D01*
X050186Y002495D02*
X047926Y002495D01*
X048359Y002574D02*
X050265Y002574D01*
X050343Y002652D02*
X048800Y002652D01*
X050029Y002338D02*
X046270Y002338D01*
X047341Y002417D02*
X050108Y002417D01*
X045184Y002326D02*
X045184Y002326D01*
X044604Y002338D02*
X040501Y002338D01*
X040422Y002417D02*
X043767Y002417D01*
X043156Y002495D02*
X040344Y002495D01*
X040265Y002574D02*
X042716Y002574D01*
X042402Y002652D02*
X040187Y002652D01*
X040108Y002731D02*
X042079Y002731D01*
X041776Y002809D02*
X040030Y002809D01*
X039951Y002888D02*
X041524Y002888D01*
X041300Y002966D02*
X039873Y002966D01*
X039794Y003045D02*
X041101Y003045D01*
X041031Y003072D02*
X041031Y003072D01*
X040903Y003123D02*
X039716Y003123D01*
X039637Y003202D02*
X040705Y003202D01*
X040519Y003280D02*
X039559Y003280D01*
X039480Y003359D02*
X040360Y003359D01*
X040194Y003437D02*
X039402Y003437D01*
X039323Y003516D02*
X040066Y003516D01*
X039939Y003594D02*
X039245Y003594D01*
X039166Y003673D02*
X039812Y003673D01*
X039685Y003751D02*
X039088Y003751D01*
X039009Y003830D02*
X039557Y003830D01*
X039430Y003908D02*
X038931Y003908D01*
X038852Y003987D02*
X039320Y003987D01*
X039208Y004065D02*
X038774Y004065D01*
X038695Y004144D02*
X039095Y004144D01*
X038999Y004222D02*
X038617Y004222D01*
X038538Y004301D02*
X038901Y004301D01*
X038804Y004379D02*
X038460Y004379D01*
X038381Y004458D02*
X038706Y004458D01*
X038609Y004536D02*
X038303Y004536D01*
X038224Y004615D02*
X038511Y004615D01*
X038418Y004693D02*
X038146Y004693D01*
X038067Y004772D02*
X038333Y004772D01*
X038248Y004850D02*
X037989Y004850D01*
X037910Y004929D02*
X038159Y004929D01*
X038086Y005007D02*
X037832Y005007D01*
X037753Y005086D02*
X038012Y005086D01*
X037939Y005164D02*
X037675Y005164D01*
X037596Y005243D02*
X037866Y005243D01*
X037793Y005321D02*
X037518Y005321D01*
X037439Y005400D02*
X037720Y005400D01*
X037646Y005478D02*
X037361Y005478D01*
X037282Y005557D02*
X037570Y005557D01*
X037507Y005635D02*
X037204Y005635D01*
X037125Y005714D02*
X037443Y005714D01*
X037380Y005792D02*
X037047Y005792D01*
X036968Y005871D02*
X037317Y005871D01*
X037254Y005949D02*
X036890Y005949D01*
X036811Y006028D02*
X037202Y006028D01*
X037148Y006106D02*
X036733Y006106D01*
X036654Y006185D02*
X037094Y006185D01*
X037041Y006263D02*
X036576Y006263D01*
X036497Y006342D02*
X036987Y006342D01*
X036933Y006420D02*
X036419Y006420D01*
X036340Y006499D02*
X036879Y006499D01*
X036825Y006577D02*
X036262Y006577D01*
X036237Y006656D02*
X036769Y006656D01*
X036723Y006734D02*
X036217Y006734D01*
X036196Y006813D02*
X036677Y006813D01*
X036631Y006891D02*
X036175Y006891D01*
X036155Y006970D02*
X036585Y006970D01*
X036539Y007048D02*
X036134Y007048D01*
X036113Y007127D02*
X036493Y007127D01*
X036457Y007205D02*
X036093Y007205D01*
X036072Y007284D02*
X036418Y007284D01*
X036380Y007362D02*
X036052Y007362D01*
X036031Y007441D02*
X036341Y007441D01*
X036302Y007519D02*
X036010Y007519D01*
X035990Y007598D02*
X036264Y007598D01*
X036225Y007676D02*
X035969Y007676D01*
X035948Y007755D02*
X036184Y007755D01*
X036156Y007833D02*
X035928Y007833D01*
X035907Y007912D02*
X036127Y007912D01*
X036099Y007990D02*
X035886Y007990D01*
X035866Y008069D02*
X036069Y008069D01*
X036045Y008147D02*
X035845Y008147D01*
X035824Y008226D02*
X036021Y008226D01*
X035997Y008304D02*
X035804Y008304D01*
X035783Y008383D02*
X035973Y008383D01*
X035949Y008461D02*
X035762Y008461D01*
X035742Y008540D02*
X035925Y008540D01*
X035901Y008618D02*
X035721Y008618D01*
X035700Y008697D02*
X035878Y008697D01*
X035852Y008775D02*
X035680Y008775D01*
X035659Y008854D02*
X035832Y008854D01*
X035811Y008932D02*
X035638Y008932D01*
X035618Y009011D02*
X035791Y009011D01*
X035770Y009089D02*
X035597Y009089D01*
X035576Y009168D02*
X035749Y009168D01*
X035729Y009246D02*
X035556Y009246D01*
X035535Y009325D02*
X035711Y009325D01*
X035692Y009403D02*
X035514Y009403D01*
X035494Y009482D02*
X035674Y009482D01*
X035655Y009560D02*
X035473Y009560D01*
X035452Y009639D02*
X035637Y009639D01*
X035618Y009717D02*
X035432Y009717D01*
X035411Y009796D02*
X035599Y009796D01*
X035581Y009874D02*
X035390Y009874D01*
X035370Y009953D02*
X035562Y009953D01*
X035543Y010031D02*
X035349Y010031D01*
X035328Y010110D02*
X035525Y010110D01*
X035509Y010188D02*
X035308Y010188D01*
X035287Y010267D02*
X035492Y010267D01*
X035475Y010345D02*
X035267Y010345D01*
X035246Y010424D02*
X035458Y010424D01*
X035441Y010502D02*
X035225Y010502D01*
X035205Y010581D02*
X035426Y010581D01*
X035410Y010659D02*
X035184Y010659D01*
X035163Y010738D02*
X035395Y010738D01*
X035379Y010816D02*
X035143Y010816D01*
X035122Y010895D02*
X035363Y010895D01*
X035348Y010973D02*
X035101Y010973D01*
X035081Y011052D02*
X035332Y011052D01*
X035342Y011000D02*
X035342Y011000D01*
X035317Y011130D02*
X035060Y011130D01*
X035039Y011209D02*
X035301Y011209D01*
X035285Y011287D02*
X035019Y011287D01*
X034998Y011366D02*
X035269Y011366D01*
X035255Y011444D02*
X034977Y011444D01*
X034957Y011523D02*
X035241Y011523D01*
X035227Y011601D02*
X034936Y011601D01*
X034915Y011680D02*
X035212Y011680D01*
X035198Y011758D02*
X034895Y011758D01*
X034874Y011837D02*
X035184Y011837D01*
X035171Y011915D02*
X034853Y011915D01*
X034833Y011994D02*
X035158Y011994D01*
X035144Y012072D02*
X034812Y012072D01*
X034791Y012151D02*
X035131Y012151D01*
X035118Y012229D02*
X034771Y012229D01*
X034750Y012308D02*
X035105Y012308D01*
X035091Y012386D02*
X034729Y012386D01*
X034709Y012465D02*
X035078Y012465D01*
X035063Y012543D02*
X034688Y012543D01*
X034626Y012779D02*
X035040Y012779D01*
X035032Y012857D02*
X034605Y012857D01*
X034543Y013093D02*
X035014Y013093D01*
X035010Y013171D02*
X034523Y013171D01*
X034502Y013250D02*
X035005Y013250D01*
X035001Y013328D02*
X034482Y013328D01*
X034461Y013407D02*
X034996Y013407D01*
X034998Y013377D02*
X034998Y013377D01*
X034992Y013485D02*
X034440Y013485D01*
X034420Y013564D02*
X034987Y013564D01*
X034983Y013642D02*
X034399Y013642D01*
X034378Y013721D02*
X034978Y013721D01*
X034979Y013799D02*
X034290Y013799D01*
X034211Y013878D02*
X034978Y013878D01*
X034977Y013956D02*
X034133Y013956D01*
X034054Y014035D02*
X034977Y014035D01*
X034978Y014113D02*
X033976Y014113D01*
X033897Y014192D02*
X034979Y014192D01*
X034980Y014270D02*
X033819Y014270D01*
X033740Y014349D02*
X034982Y014349D01*
X034983Y014427D02*
X033662Y014427D01*
X033583Y014506D02*
X034984Y014506D01*
X034984Y014584D02*
X033505Y014584D01*
X033426Y014663D02*
X034987Y014663D01*
X034992Y014741D02*
X033348Y014741D01*
X033269Y014820D02*
X034996Y014820D01*
X035001Y014898D02*
X033191Y014898D01*
X033112Y014977D02*
X035006Y014977D01*
X035012Y015055D02*
X033034Y015055D01*
X032955Y015134D02*
X035017Y015134D01*
X035014Y015084D02*
X035014Y015084D01*
X035022Y015212D02*
X032877Y015212D01*
X032798Y015291D02*
X035031Y015291D01*
X035030Y015369D02*
X032720Y015369D01*
X032641Y015448D02*
X035037Y015448D01*
X035044Y015526D02*
X032563Y015526D01*
X032484Y015605D02*
X035051Y015605D01*
X035057Y015683D02*
X032406Y015683D01*
X032327Y015762D02*
X035068Y015762D01*
X035075Y015840D02*
X032249Y015840D01*
X032170Y015919D02*
X035093Y015919D01*
X035111Y015997D02*
X032092Y015997D01*
X032013Y016076D02*
X035130Y016076D01*
X035143Y016135D02*
X035143Y016135D01*
X035148Y016154D02*
X031935Y016154D01*
X031856Y016233D02*
X035166Y016233D01*
X035184Y016311D02*
X031778Y016311D01*
X031699Y016390D02*
X035210Y016390D01*
X035235Y016468D02*
X031621Y016468D01*
X031542Y016547D02*
X035258Y016547D01*
X035299Y016625D02*
X031464Y016625D01*
X031385Y016704D02*
X035339Y016704D01*
X035379Y016782D02*
X031307Y016782D01*
X031228Y016861D02*
X035420Y016861D01*
X035460Y016939D02*
X031150Y016939D01*
X031071Y017018D02*
X035500Y017018D01*
X035558Y017096D02*
X030993Y017096D01*
X034452Y017253D02*
X025586Y017253D01*
X025664Y017175D02*
X034530Y017175D01*
X034850Y018666D02*
X034914Y018666D01*
X034657Y019687D02*
X035503Y019687D01*
X033839Y019645D02*
X033839Y019645D01*
X027396Y018431D02*
X026634Y018431D01*
X026799Y018509D02*
X027231Y018509D01*
X027153Y018588D02*
X026877Y018588D01*
X026931Y018666D02*
X027099Y018666D01*
X027067Y018745D02*
X026963Y018745D01*
X026985Y018823D02*
X027045Y018823D01*
X027045Y018902D02*
X026985Y018902D01*
X026985Y018980D02*
X027045Y018980D01*
X027076Y019059D02*
X026954Y019059D01*
X026921Y019137D02*
X027109Y019137D01*
X027176Y019216D02*
X026854Y019216D01*
X026176Y019608D02*
X023606Y019608D01*
X023395Y019451D02*
X021564Y019451D01*
X021848Y019373D02*
X023474Y019373D01*
X023552Y019294D02*
X022133Y019294D01*
X022417Y019216D02*
X023631Y019216D01*
X023709Y019137D02*
X022702Y019137D01*
X022987Y019059D02*
X024334Y019059D01*
X024571Y019059D02*
X025076Y019059D01*
X025109Y019137D02*
X024650Y019137D01*
X024682Y019216D02*
X025176Y019216D01*
X025045Y018980D02*
X023271Y018980D01*
X023556Y018902D02*
X025045Y018902D01*
X025045Y018823D02*
X023840Y018823D01*
X024105Y018745D02*
X025067Y018745D01*
X025099Y018666D02*
X024173Y018666D01*
X024251Y018588D02*
X025153Y018588D01*
X025231Y018509D02*
X024330Y018509D01*
X024408Y018431D02*
X025396Y018431D01*
X025634Y018431D02*
X026041Y018431D01*
X025962Y018509D02*
X025799Y018509D01*
X025877Y018588D02*
X025884Y018588D01*
X026119Y018352D02*
X024487Y018352D01*
X024565Y018274D02*
X026198Y018274D01*
X026276Y018195D02*
X024644Y018195D01*
X024722Y018117D02*
X026355Y018117D01*
X026433Y018038D02*
X024801Y018038D01*
X024879Y017960D02*
X026512Y017960D01*
X026590Y017881D02*
X024958Y017881D01*
X025036Y017803D02*
X026669Y017803D01*
X026747Y017724D02*
X025115Y017724D01*
X025193Y017646D02*
X026826Y017646D01*
X023160Y019687D02*
X021137Y019687D01*
X015513Y021649D02*
X011364Y021649D01*
X035018Y013014D02*
X035017Y013009D01*
X035021Y012967D01*
X035024Y012924D01*
X015858Y002417D02*
X015473Y002417D01*
X015412Y002338D02*
X015779Y002338D01*
X015701Y002260D02*
X015560Y002260D01*
D14*
X015515Y001890D02*
X016015Y002390D01*
X016765Y002390D01*
X016890Y002515D01*
X019890Y002515D01*
X023890Y006515D01*
X025765Y013390D01*
X025765Y015015D01*
X026515Y015765D01*
X027015Y016265D01*
X030890Y016265D01*
X033515Y013640D01*
X035390Y006515D01*
X040140Y001765D01*
X050390Y001765D01*
X054140Y005515D01*
X055515Y009265D01*
X055515Y012140D01*
X055890Y012515D01*
X055890Y013515D01*
X055765Y013640D01*
X055640Y013390D02*
X054765Y014265D01*
X054765Y017265D01*
X052265Y019765D01*
X035765Y019765D01*
X034640Y018640D01*
X034640Y017390D01*
X035140Y017390D02*
X035140Y018765D01*
X035765Y019390D02*
X036015Y019640D01*
X052140Y019640D01*
X054515Y017265D01*
X054515Y015265D01*
X054640Y015140D01*
X054640Y013515D01*
X054515Y013390D01*
X054515Y012765D01*
X054640Y012640D01*
X054828Y012640D01*
X055265Y012640D02*
X054765Y013140D01*
X054765Y013265D01*
X055010Y013520D02*
X054890Y013640D01*
X055010Y013520D02*
X055240Y013520D01*
X055390Y013370D01*
X055390Y009390D01*
X054015Y005640D01*
X050265Y001890D01*
X040265Y001890D01*
X035640Y006515D01*
X033765Y013640D01*
X030890Y016515D01*
X026890Y016515D01*
X026515Y016140D01*
X025515Y015140D01*
X025515Y013390D01*
X023640Y006515D01*
X020015Y002890D01*
X019890Y002890D01*
X019515Y003140D02*
X019265Y002890D01*
X019515Y003140D02*
X020015Y003140D01*
X023390Y006515D01*
X025265Y013390D01*
X025265Y015265D01*
X026515Y016515D01*
X026640Y016515D01*
X026890Y016765D01*
X030890Y016765D01*
X034015Y013640D01*
X035890Y006515D01*
X040390Y002015D01*
X050140Y002015D01*
X053890Y005765D01*
X055265Y009515D01*
X055265Y012640D01*
X055640Y012015D02*
X056015Y012390D01*
X056015Y014015D01*
X055890Y014140D01*
X056140Y014515D02*
X056015Y014640D01*
X056140Y014515D02*
X056140Y012265D01*
X055765Y011890D01*
X055765Y009015D01*
X054390Y005265D01*
X050640Y001515D01*
X039890Y001515D01*
X034890Y006515D01*
X033015Y013640D01*
X030890Y015765D01*
X027265Y015765D01*
X026515Y015015D01*
X026265Y014765D01*
X026265Y013390D01*
X024390Y006515D01*
X019640Y001765D01*
X019515Y001765D01*
X019390Y002015D02*
X019140Y001765D01*
X019515Y001390D02*
X024640Y006515D01*
X026515Y013390D01*
X026515Y014640D01*
X027390Y015515D01*
X030890Y015515D01*
X032765Y013640D01*
X034640Y006515D01*
X039765Y001390D01*
X050765Y001390D01*
X054515Y005140D01*
X055890Y008890D01*
X055890Y011765D01*
X056265Y012140D01*
X056265Y015015D01*
X055890Y015203D02*
X055890Y016515D01*
X055640Y016765D02*
X055640Y014953D01*
X055640Y013390D02*
X055640Y013265D01*
X055640Y012015D02*
X055640Y009140D01*
X054265Y005390D01*
X050515Y001640D01*
X040015Y001640D01*
X035140Y006515D01*
X033265Y013640D01*
X030890Y016015D01*
X027140Y016015D01*
X026515Y015390D01*
X026015Y014890D01*
X026015Y013390D01*
X024140Y006515D01*
X019640Y002015D01*
X019390Y002015D01*
X019140Y002265D02*
X019015Y002390D01*
X017015Y002390D01*
X016515Y001890D01*
X016265Y001890D01*
X015515Y001890D02*
X015265Y001890D01*
X013015Y001390D02*
X019515Y001390D01*
X013015Y001390D02*
X012515Y001890D01*
X012265Y001890D01*
X023890Y009765D02*
X024140Y010015D01*
X024140Y010345D01*
X024140Y010685D02*
X024140Y011009D01*
X024265Y011134D01*
X024265Y011646D02*
X024265Y012640D01*
X025015Y013390D01*
X025015Y015265D01*
X026265Y016515D01*
X026265Y016890D01*
X026390Y017015D01*
X030890Y017015D01*
X034265Y013640D01*
X036140Y006515D01*
X040515Y002140D01*
X050015Y002140D01*
X053765Y005890D01*
X055140Y009640D01*
X055140Y011265D01*
X055015Y011390D01*
X055015Y017140D02*
X055015Y019140D01*
X032515Y018890D02*
X032515Y017515D01*
X032515Y018890D02*
X032015Y019390D01*
X024640Y019390D01*
X024515Y019265D01*
X024453Y019265D01*
X023765Y019265D01*
X023140Y019890D01*
X021015Y019890D01*
X020390Y019640D02*
X019015Y021015D01*
X008265Y021015D01*
X004515Y017265D01*
X004515Y012021D01*
X004515Y011509D02*
X004765Y011259D01*
X004765Y011060D01*
X004765Y010720D02*
X004435Y010720D01*
X004140Y011015D01*
X004140Y012515D01*
X003265Y013390D01*
X015765Y020015D02*
X016265Y019515D01*
X019015Y019515D01*
X019640Y018890D01*
X023265Y017890D01*
X024265Y016890D01*
X024265Y014890D01*
X024515Y014640D01*
X024515Y015015D02*
X024515Y016890D01*
X023390Y018015D01*
X019765Y019015D01*
X019015Y019765D01*
X018890Y019765D01*
X018390Y020140D02*
X018265Y020015D01*
X017515Y020015D01*
X018515Y020515D02*
X019890Y019140D01*
X023515Y018140D01*
X024765Y016890D01*
X024765Y015390D01*
X025015Y015765D02*
X025015Y016890D01*
X023640Y018265D01*
X020015Y019265D01*
X018640Y020640D01*
X013390Y020640D01*
X012765Y020015D01*
X012515Y020015D01*
X011765Y020015D02*
X012515Y020765D01*
X018765Y020765D01*
X020140Y019390D01*
X023765Y018390D01*
X025265Y016890D01*
X025265Y016140D01*
X025515Y016515D02*
X025515Y016890D01*
X023890Y018515D01*
X020265Y019515D01*
X018890Y020890D01*
X010640Y020890D01*
X009765Y020015D01*
X009515Y020015D01*
X011515Y020015D02*
X011765Y020015D01*
X013515Y020015D02*
X013765Y020015D01*
X014265Y020515D01*
X018515Y020515D01*
X020390Y019640D02*
X024015Y018640D01*
X025640Y017015D01*
X026390Y017015D01*
X026890Y017765D02*
X027515Y017765D01*
X026890Y017765D02*
X025765Y018890D01*
X025515Y018890D01*
X015765Y020015D02*
X015515Y020015D01*
X007140Y020390D02*
X004890Y020390D01*
D15*
X004890Y020390D03*
X007140Y020390D03*
X007390Y019640D03*
X018390Y020140D03*
X018890Y019765D03*
X018953Y019203D03*
X020515Y019890D03*
X021015Y019890D03*
X024453Y019265D03*
X024765Y019140D03*
X027515Y017765D03*
X026515Y016515D03*
X026515Y016140D03*
X026515Y015765D03*
X026515Y015390D03*
X026515Y015015D03*
X026515Y014640D03*
X024515Y014640D03*
X024515Y015015D03*
X024765Y015390D03*
X025015Y015765D03*
X025265Y016140D03*
X025515Y016515D03*
X032515Y017515D03*
X033515Y017515D03*
X034640Y017390D03*
X035140Y017390D03*
X035140Y018765D03*
X035765Y019390D03*
X054765Y013265D03*
X054890Y013640D03*
X055765Y013640D03*
X055640Y013265D03*
X054828Y012640D03*
X055015Y011390D03*
X055890Y014140D03*
X056015Y014640D03*
X056265Y015015D03*
X055890Y015203D03*
X055640Y014953D03*
X057015Y015140D03*
X055890Y016515D03*
X055640Y016765D03*
X055015Y017140D03*
X055015Y019140D03*
X019890Y002890D03*
X019265Y002890D03*
X019140Y002265D03*
X019140Y001765D03*
X019515Y001765D03*
X009390Y002765D03*
D16*
X023890Y009765D03*
X004140Y011015D03*
X056765Y016640D03*
M02*
