%
M48
M72
T01C0.0080
T02C0.0100
T03C0.0400
T04C0.0433
%
T01
X23890Y9765
X4140Y11015
X56765Y16640
T02
X9390Y2765
X19140Y2265
X19265Y2890
X19890Y2890
X19515Y1765
X19140Y1765
X24515Y14640
X24515Y15015
X24765Y15390
X25015Y15765
X25265Y16140
X25515Y16515
X26515Y16515
X26515Y16140
X26515Y15765
X26515Y15390
X26515Y15015
X26515Y14640
X32515Y17515
X33515Y17515
X34640Y17390
X35140Y17390
X35140Y18765
X35765Y19390
X27515Y17765
X24765Y19140
X24453Y19265
X21015Y19890
X20515Y19890
X18890Y19765
X18953Y19203
X18390Y20140
X7390Y19640
X7140Y20390
X4890Y20390
X54765Y13265
X54890Y13640
X55765Y13640
X55640Y13265
X54828Y12640
X55015Y11390
X55890Y14140
X56015Y14640
X56265Y15015
X55890Y15203
X55640Y14953
X57015Y15140
X55890Y16515
X55640Y16765
X55015Y17140
X55015Y19140
T03
X33515Y18890
X32515Y18890
X31515Y18890
X30515Y18890
X29515Y18890
X28515Y18890
X27515Y18890
X26515Y18890
X25515Y18890
X17515Y20015
X16515Y20015
X15515Y20015
X14515Y20015
X13515Y20015
X12515Y20015
X11515Y20015
X10515Y20015
X9515Y20015
X3265Y14390
X3265Y13390
X10265Y1890
X11265Y1890
X12265Y1890
X13265Y1890
X14265Y1890
X15265Y1890
X16265Y1890
X17265Y1890
X18265Y1890
T04
X3605Y17809
X2620Y17809
X55691Y17809
X56675Y17809
M30
